{
.appVersion = "3058";
.formatVersion = 3;
DisplayStrings = (
AaAQQ,
Y,
Z,
a,
waow.
);
classes = (
{
code = "f f_ext_left.alt f_stroke_left.alt
t t_ext_left.alt

f_ext_leftright.alt f_ext_right.alt
f_stroke_left_ext_right.alt
t_ext_leftright.alt t_ext_right.alt";
name = ftij_right_ext;
},
{
code = "m n r j i
t t_ext_right.alt
f f_ext_right.alt
f_l.liga

f_l_ext_left.liga
f_ext_left.alt f_ext_leftright.alt
t_ext_leftright.alt t_ext_left.alt
";
name = ftij_left_ext;
},
{
code = "f f_ext_left.alt f_ext_right.alt
t t_ext_left.alt t_ext_right.alt

f_ext_leftright.alt t_ext_leftright.alt
";
name = ftij_leftright_ext;
},
{
code = "i i_ext_left.alt l f_l.liga f_l_ext_left.liga f_l_stroke_left.liga";
name = if_right_stroke;
}
);
customParameters = (
{
name = licenses;
value = "SIL Open Font License (OFL-1.1)";
},
{
name = licenseURL;
value = "http://scripts.sil.org/OFL";
}
);
date = "2021-06-11 15:09:22 +0000";
familyName = "Shinkai Mono";
featurePrefixes = (
{
automatic = 1;
code = "languagesystem DFLT dflt;
";
name = Languagesystems;
},
{
code = "# --------------------
# ftij
# --------------------
# f ff fff ffff fffff
# t tt ttt tttt ttttt
# fi fj ti tj
# --------------------

lookup ftij_connect_leftright {
    sub [f f_ext_left.alt f_ext_right.alt] by f_ext_leftright.alt;
    sub [t t_ext_left.alt t_ext_right.alt] by t_ext_leftright.alt;
} ftij_connect_leftright;

lookup ftij_connect_left {
    sub f by f_ext_left.alt;
    sub t by t_ext_left.alt;
    sub i by i_ext_left.alt;
    sub j by j_ext_left.alt;
    sub m by m_ext_left.alt;
    sub n by n_ext_left.alt;
    sub r by r_ext_left.alt;
    sub t_ext_right.alt by t_ext_leftright.alt;
    sub f_ext_right.alt by f_ext_leftright.alt;
    sub f_l.liga by f_l_ext_left.liga;
} ftij_connect_left;

lookup ftij_connect_right {
    sub f by f_ext_right.alt;
	sub f_stroke_left.alt by f_stroke_left_ext_right.alt;
    sub f_ext_left.alt by f_ext_leftright.alt;
    sub f_stroke_left.alt by f_stroke_left_ext_right.alt;

glyphs = (
{
glyphname = A;
lastChange = "2021-06-29 13:39:07 +0000";
layers = (
{
layerId = m01;
shapes = (
{
closed = 1;
nodes = (
(270,706,l),
(198,706,l),
(53,-1,l),
(128,-1,l)
);
},
{
closed = 1;
nodes = (
(447,-1,l),
(302,706,l),
(230,706,l),
(372,-1,l)
);
},
{
closed = 1;
nodes = (
(161,255,l),
(339,255,l),
(339,325,l),
(161,325,l)
);
},
{
closed = 1;
nodes = (
(44,-1,l),
(154,-1,l),
(154,69,l),
(44,69,l)
);
},
{
closed = 1;
nodes = (
(346,-1,l),
(456,-1,l),
(456,69,l),
(346,69,l)
);
}
);
userData = {
com.schriftgestaltung.Glyphs.lastChange = "2021-06-18 11:48:42 +0000";
};
width = 500;
}
);
unicode = 65;
},
{
glyphname = B;
lastChange = "2021-06-29 08:14:51 +0000";
layers = (
{
hints = (
{
place = (60, 380);
place = (60, 380);
type = Stem;
}
);
layerId = m01;
shapes = (
{
closed = 1;
nodes = (
(102,0,l),
(172,0,l),
(172,697,l),
(102,697,l)
);
},
{
closed = 1;
nodes = (
(226,-3,ls),
(331,-3,o),
(448,66,o),
(448,212,cs),
(448,352,o),
(326,418,o),
(199,418,c),
(151,418,l),
(151,348,l),
(199,348,l),
(265,348,o),
(378,309,o),
(378,212,cs),
(378,107,o),
(287,67,o),
(226,67,cs),
(86,67,l),
(86,-3,l)
);
},
{
closed = 1;
nodes = (
(79,632,l),
(210,632,ls),
(261,632,o),
(335,606,o),
(335,530,cs),
(335,466,o),
(260,418,o),
(199,418,cs),
(151,418,l),
(151,348,l),
(199,348,ls),
(294,348,o),
(405,423,o),
(405,530,cs),
(405,642,o),
(323,702,o),
(210,702,cs),
(79,702,l)
);
}
);
userData = {
com.schriftgestaltung.Glyphs.lastChange = "2021-06-18 11:48:50 +0000";
};
width = 500;
}
);
unicode = 66;
},
{
glyphname = C;
lastChange = "2021-06-29 11:49:36 +0000";
layers = (
{
hints = (
{
place = (60, 380);
place = (60, 380);
type = Stem;
}
);
layerId = m01;
shapes = (
{
closed = 1;
nodes = (
(137,569,o),
(196,636,o),
(257,636,cs),
(340,636,o),
(364,513,o),
(364,513,c),
(434,528,l),
(434,528,o),
(399,704,o),
(257,706,cs),
(121,708,o),
(67,573,o),
(67,350,cs),
(67,127,o),
(120,-6,o),
(261,-6,cs),
(421,-6,o),
(436,228,o),
(436,228,c),
(367,235,l),
(367,235,o),
(351,64,o),
(261,64,cs),
(195,64,o),
(137,130,o),
(137,350,cs)
);
},
{
closed = 1;
nodes = (
(364,466,l),
(434,466,l),
(434,605,l),
(364,605,l)
);
}
);
width = 501;
}
);
unicode = 67;
},
{
glyphname = D;
lastChange = "2021-06-29 11:53:33 +0000";
layers = (
{
hints = (
{
place = (60, 380);
place = (60, 380);
type = Stem;
}
);
layerId = m01;
shapes = (
{
closed = 1;
nodes = (
(222,636,ls),
(296,636,o),
(364,547,o),
(364,350,cs),
(364,183,o),
(318,64,o),
(222,64,cs),
(79,64,l),
(79,-6,l),
(219,-6,ls),
(370,-6,o),
(434,129,o),
(434,350,cs),
(434,592,o),
(335,706,o),
(222,706,cs),
(79,706,l),
(79,636,l)
);
},
{
closed = 1;
nodes = (
(108,29,l),
(178,29,l),
(178,669,l),
(108,669,l)
);
}
);
userData = {
com.schriftgestaltung.Glyphs.lastChange = "2021-06-18 01:56:06 +0000";
};
width = 500;
}
);
unicode = 68;
},
{
glyphname = E;
lastChange = "2021-06-29 13:04:32 +0000";
layers = (
{
layerId = m01;
shapes = (
{
closed = 1;
nodes = (
(170,315,l),
(347,315,l),
(347,385,l),
(170,385,l)
);
},
{
closed = 1;
nodes = (
(94,630,l),
(435,630,l),
(435,700,l),
(94,700,l)
);
},
{
closed = 1;
nodes = (
(367,582,l),
(435,582,l),
(435,700,l),
(367,700,l)
);
},
{
closed = 1;
nodes = (
(116,0,l),
(186,0,l),
(186,700,l),
(116,700,l)
);
},
{
closed = 1;
nodes = (
(94,0,l),
(435,0,l),
(435,70,l),
(94,70,l)
);
},
{
closed = 1;
nodes = (
(367,0,l),
(435,0,l),
(435,118,l),
(367,118,l)
);
},
{
closed = 1;
nodes = (
(320,298,l),
(390,298,l),
(390,403,l),
(320,403,l)
);
}
);
width = 500;
}
);
unicode = 69;
},
{
glyphname = F;
lastChange = "2021-06-29 13:30:46 +0000";
layers = (
{
layerId = m01;
shapes = (
{
closed = 1;
nodes = (
(163,328,l),
(330,328,l),
(330,398,l),
(163,398,l)
);
},
{
closed = 1;
nodes = (
(87,630,l),
(432,630,l),
(432,700,l),
(87,700,l)
);
},
{
closed = 1;
nodes = (
(364,582,l),
(432,582,l),
(432,700,l),
(364,700,l)
);
},
{
closed = 1;
nodes = (
(109,-1,l),
(179,-1,l),
(179,700,l),
(109,700,l)
);
},
{
closed = 1;
nodes = (
(87,-1,l),
(223,-1,l),
(223,69,l),
(87,69,l)
);
},
{
closed = 1;
nodes = (
(305,311,l),
(375,311,l),
(375,416,l),
(305,416,l)
);
}
);
width = 500;
}
);
unicode = 70;
},
{
glyphname = G;
lastChange = "2021-06-29 13:06:48 +0000";
layers = (
{
hints = (
{
place = (60, 380);
place = (60, 380);
type = Stem;
}
);
layerId = m01;
shapes = (
{
closed = 1;
nodes = (
(138,566,o),
(173,639,o),
(254,639,cs),
(344,639,o),
(362,518,o),
(362,518,c),
(432,533,l),
(432,533,o),
(410,709,o),
(254,709,cs),
(98,709,o),
(68,573,o),
(68,350,cs),
(68,123,o),
(98,-10,o),
(254,-8,cs),
(379,-6,o),
(425,111,o),
(425,143,cs),
(425,289,l),
(355,289,l),
(355,145,ls),
(355,133,o),
(326,62,o),
(254,62,cs),
(173,62,o),
(138,130,o),
(138,350,cs)
);
},
{
closed = 1;
nodes = (
(362,488,l),
(432,488,l),
(432,595,l),
(362,595,l)
);
},
{
closed = 1;
nodes = (
(291,280,l),
(444,280,l),
(444,350,l),
(291,350,l)
);
}
);
width = 500;
}
);
unicode = 71;
},
{
glyphname = H;
lastChange = "2021-06-29 13:14:42 +0000";
layers = (
{
hints = (
{
place = (60, 380);
place = (60, 380);
type = Stem;
}
);
layerId = m01;
shapes = (
{
closed = 1;
nodes = (
(91,0,l),
(161,0,l),
(161,700,l),
(91,700,l)
);
},
{
closed = 1;
nodes = (
(71,630,l),
(181,630,l),
(181,700,l),
(71,700,l)
);
},
{
closed = 1;
nodes = (
(71,0,l),
(181,0,l),
(181,70,l),
(71,70,l)
);
},
{
closed = 1;
nodes = (
(339,0,l),
(409,0,l),
(409,700,l),
(339,700,l)
);
},
{
closed = 1;
nodes = (
(319,630,l),
(429,630,l),
(429,700,l),
(319,700,l)
);
},
{
closed = 1;
nodes = (
(319,0,l),
(429,0,l),
(429,70,l),
(319,70,l)
);
},
{
closed = 1;
nodes = (
(148,328,l),
(352,328,l),
(352,398,l),
(148,398,l)
);
}
);
width = 500;
}
);
unicode = 72;
},
{
glyphname = I;
lastChange = "2021-06-29 13:05:26 +0000";
layers = (
{
layerId = m01;
shapes = (
{
closed = 1;
nodes = (
(215,0,l),
(285,0,l),
(285,700,l),
(215,700,l)
);
},
{
closed = 1;
nodes = (
(107,630,l),
(393,630,l),
(393,700,l),
(107,700,l)
);
},
{
closed = 1;
nodes = (
(107,0,l),
(393,0,l),
(393,70,l),
(107,70,l)
);
}
);
userData = {
com.schriftgestaltung.Glyphs.lastChange = "2021-06-18 06:10:03 +0000";
};
width = 500;
}
);
unicode = 73;
},
{
glyphname = J;
lastChange = "2021-06-29 13:11:03 +0000";
layers = (
{
layerId = m01;
shapes = (
{
closed = 1;
nodes = (
(265,656,l),
(265,201,ls),
(265,114,o),
(251,61,o),
(184,61,cs),
(123,61,o),
(96,105,o),
(96,168,c),
(26,168,l),
(26,83,o),
(71,-9,o),
(184,-9,cs),
(297,-9,o),
(335,62,o),
(335,201,cs),
(335,656,l)
);
},
{
closed = 1;
nodes = (
(121,630,l),
(407,630,l),
(407,700,l),
(121,700,l)
);
}
);
width = 500;
}
);
unicode = 74;
},
{
glyphname = K;
lastChange = "2021-06-29 13:17:59 +0000";
layers = (
{
hints = (
{
place = (60, 380);
place = (60, 380);
type = Stem;
}
);
layerId = m01;
shapes = (
{
closed = 1;
nodes = (
(90,0,l),
(160,0,l),
(160,700,l),
(90,700,l)
);
},
{
closed = 1;
nodes = (
(70,630,l),
(180,630,l),
(180,700,l),
(70,700,l)
);
},
{
closed = 1;
nodes = (
(70,0,l),
(180,0,l),
(180,70,l),
(70,70,l)
);
},
{
closed = 1;
nodes = (
(155,348,l),
(155,221,l),
(409,649,l),
(327,649,l)
);
},
{
closed = 1;
nodes = (
(196,362,l),
(340,57,l),
(416,57,l),
(241,434,l)
);
},
{
closed = 1;
nodes = (
(306,630,l),
(423,630,l),
(423,700,l),
(306,700,l)
);
},
{
closed = 1;
nodes = (
(322,0,l),
(432,0,l),
(432,70,l),
(322,70,l)
);
}
);
width = 500;
}
);
unicode = 75;
},
{
glyphname = L;
lastChange = "2021-06-28 06:24:55 +0000";
layers = (
{
hints = (
{
place = (60, 380);
place = (60, 380);
type = Stem;
}
);
layerId = m01;
shapes = (
{
closed = 1;
nodes = (
(120,0,l),
(190,0,l),
(190,700,l),
(120,700,l)
);
},
{
closed = 1;
nodes = (
(100,630,l),
(210,630,l),
(210,700,l),
(100,700,l)
);
},
{
closed = 1;
nodes = (
(100,0,l),
(431,0,l),
(431,70,l),
(100,70,l)
);
},
{
closed = 1;
nodes = (
(366,0,l),
(436,0,l),
(436,105,l),
(366,105,l)
);
}
);
width = 500;
}
);
unicode = 76;
},
{
glyphname = M;
lastChange = "2021-06-29 13:43:16 +0000";
layers = (
{
layerId = m01;
shapes = (
{
closed = 1;
nodes = (
(87,0,l),
(157,0,l),
(157,700,l),
(87,700,l)
);
},
{
closed = 1;
nodes = (
(67,630,l),
(157,630,l),
(157,700,l),
(67,700,l)
);
},
{
closed = 1;
nodes = (
(67,0,l),
(177,0,l),
(177,70,l),
(67,70,l)
);
},
{
closed = 1;
nodes = (
(343,0,l),
(413,0,l),
(413,700,l),
(343,700,l)
);
},
{
closed = 1;
nodes = (
(343,630,l),
(433,630,l),
(433,700,l),
(343,700,l)
);
},
{
closed = 1;
nodes = (
(323,0,l),
(433,0,l),
(433,70,l),
(323,70,l)
);
},
{
closed = 1;
nodes = (
(250,484,l),
(217,485,o),
(157,655,o),
(157,700,c),
(107,700,l),
(107,595,o),
(176,414,o),
(250,414,c)
);
},
{
closed = 1;
nodes = (
(324,414,o),
(393,595,o),
(393,700,c),
(343,700,l),
(343,655,o),
(283,485,o),
(250,484,c),
(250,414,l)
);
}
);
width = 501;
}
);
unicode = 77;
},
{
glyphname = N;
lastChange = "2021-06-28 06:37:11 +0000";
layers = (
{
hints = (
{
place = (60, 380);
place = (60, 380);
type = Stem;
}
);
layerId = m01;
shapes = (
{
closed = 1;
nodes = (
(89,0,l),
(159,0,l),
(159,700,l),
(89,700,l)
);
},
{
closed = 1;
nodes = (
(69,630,l),
(159,630,l),
(159,700,l),
(69,700,l)
);
},
{
closed = 1;
nodes = (
(69,0,l),
(179,0,l),
(179,70,l),
(69,70,l)
);
},
{
closed = 1;
nodes = (
(343,0,l),
(413,0,l),
(413,700,l),
(343,700,l)
);
},
{
closed = 1;
nodes = (
(323,630,l),
(433,630,l),
(433,700,l),
(323,700,l)
);
},
{
closed = 1;
nodes = (
(159,510,l),
(343,58,l),
(343,233,l),
(159,700,l)
);
},
{
closed = 1;
nodes = (
(323,0,l),
(433,0,l),
(433,70,l),
(323,70,l)
);
}
);
width = 500;
}
);
unicode = 78;
},
{
glyphname = O;
lastChange = "2021-06-29 13:28:22 +0000";
layers = (
{
hints = (
{
place = (60, 380);
place = (60, 380);
type = Stem;
}
);
layerId = m01;
shapes = (
{
closed = 1;
nodes = (
(401,709,o),
(426,533,o),
(426,350,cs),
(426,194,o),
(412,-9,o),
(250,-9,cs),
(88,-9,o),
(74,194,o),
(74,350,cs),
(74,533,o),
(99,709,o),
(250,709,cs)
);
},
{
closed = 1;
nodes = (
(144,181,o),
(174,61,o),
(250,62,cs),
(326,63,o),
(357,181,o),
(357,350,cs),
(357,547,o),
(323,639,o),
(250,639,cs),
(174,639,o),
(144,547,o),
(144,350,cs)
);
}
);
width = 500;
}
);
unicode = 79;
},
{
glyphname = P;
lastChange = "2021-06-28 06:44:35 +0000";
layers = (
{
hints = (
{
place = (60, 380);
place = (60, 380);
type = Stem;
}
);
layerId = m01;
shapes = (
{
closed = 1;
nodes = (
(103,0,l),
(173,0,l),
(173,700,l),
(103,700,l)
);
},
{
closed = 1;
nodes = (
(83,630,l),
(231,630,ls),
(323,630,o),
(364,568,o),
(364,505,cs),
(364,449,o),
(320,386,o),
(231,386,cs),
(140,386,l),
(140,316,l),
(231,316,ls),
(349,316,o),
(434,403,o),
(434,505,cs),
(434,611,o),
(358,700,o),
(231,700,cs),
(83,700,l)
);
},
{
closed = 1;
nodes = (
(83,0,l),
(193,0,l),
(193,70,l),
(83,70,l)
);
}
);
width = 466;
}
);
unicode = 80;
},
{
glyphname = Q;
lastChange = "2021-06-29 13:38:31 +0000";
layers = (
{
layerId = m01;
shapes = (
{
closed = 1;
nodes = (
(219,242,l),
(219,242,o),
(339,209,o),
(339,63,cs),
(339,-21,o),
(446,-21,o),
(446,-21,c),
(446,-88,l),
(446,-88,o),
(271,-90,o),
(271,47,cs),
(271,154,o),
(195,176,o),
(195,176,c)
);
},
{
ref = O;
}
);
width = 500;
}
);
unicode = 81;
},
{
glyphname = R;
lastChange = "2021-06-29 13:11:54 +0000";
layers = (
{
hints = (
{
place = (60, 380);
place = (60, 380);
type = Stem;
}
);
layerId = m01;
shapes = (
{
closed = 1;
nodes = (
(100,-2,l),
(170,-2,l),
(170,704,l),
(100,704,l)
);
},
{
closed = 1;
nodes = (
(80,634,l),
(223,634,ls),
(298,634,o),
(352,591,o),
(352,514,cs),
(352,445,o),
(307,388,o),
(235,388,cs),
(137,388,l),
(137,318,l),
(235,318,ls),
(341,318,o),
(422,406,o),
(422,514,cs),
(422,634,o),
(335,704,o),
(223,704,cs),
(80,704,l)
);
},
{
closed = 1;
nodes = (
(80,-2,l),
(190,-2,l),
(190,68,l),
(80,68,l)
);
},
{
closed = 1;
nodes = (
(243,321,l),
(353,55,l),
(429,55,l),
(288,387,l)
);
},
{
closed = 1;
nodes = (
(335,-2,l),
(445,-2,l),
(445,68,l),
(335,68,l)
);
}
);
width = 500;
}
);
unicode = 82;
},
{
glyphname = S;
lastChange = "2021-06-29 13:40:08 +0000";
layers = (
{
layerId = m01;
shapes = (
{
closed = 1;
nodes = (
(348,-8,o),
(429,88,o),
(429,194,cs),
(429,379,o),
(144,402,o),
(144,546,cs),
(144,599,o),
(189,638,o),
(247,638,cs),
(314,638,o),
(358,589,o),
(358,523,c),
(428,523,l),
(428,627,o),
(358,708,o),
(247,708,cs),
(152,708,o),
(73,641,o),
(74,540,cs),
(76,350,o),
(359,337,o),
(359,185,cs),
(359,116,o),
(301,62,o),
(247,62,cs),
(193,62,o),
(137,110,o),
(137,193,c),
(67,193,l),
(67,54,o),
(168,-8,o),
(247,-8,cs)
);
},
{
closed = 1;
nodes = (
(358,502,l),
(428,502,l),
(428,641,l),
(358,641,l)
);
},
{
closed = 1;
nodes = (
(67,79,l),
(137,79,l),
(137,218,l),
(67,218,l)
);
}
);
width = 500;
}
);
unicode = 83;
},
{
glyphname = T;
lastChange = "2021-06-29 13:36:30 +0000";
layers = (
{
layerId = m01;
shapes = (
{
closed = 1;
nodes = (
(215,-5,l),
(285,-5,l),
(285,700,l),
(215,700,l)
);
},
{
closed = 1;
nodes = (
(370,700,l),
(370,595,l),
(440,595,l),
(440,700,l)
);
},
{
closed = 1;
nodes = (
(195,-5,l),
(305,-5,l),
(305,65,l),
(195,65,l)
);
},
{
closed = 1;
nodes = (
(100,630,l),
(400,630,l),
(400,700,l),
(100,700,l)
);
},
{
closed = 1;
nodes = (
(60,700,l),
(60,595,l),
(130,595,l),
(130,700,l)
);
}
);
width = 500;
}
);
unicode = 84;
},
{
glyphname = U;
lastChange = "2021-06-29 13:40:41 +0000";
layers = (
{
layerId = m01;
shapes = (
{
closed = 1;
nodes = (
(79,701,l),
(79,224,ls),
(79,119,o),
(122,-6,o),
(250,-6,cs),
(378,-6,o),
(420,119,o),
(420,224,cs),
(420,700,l),
(350,700,l),
(350,224,ls),
(350,120,o),
(310,65,o),
(250,64,cs),
(190,63,o),
(150,120,o),
(150,224,cs),
(150,701,l)
);
},
{
closed = 1;
nodes = (
(60,631,l),
(170,631,l),
(170,701,l),
(60,701,l)
);
},
{
closed = 1;
nodes = (
(330,631,l),
(440,631,l),
(440,701,l),
(330,701,l)
);
}
);
width = 500;
}
);
unicode = 85;
},
{
glyphname = V;
lastChange = "2021-06-29 13:40:49 +0000";
layers = (
{
layerId = m01;
shapes = (
{
closed = 1;
nodes = (
(58,631,l),
(168,631,l),
(168,701,l),
(58,701,l)
);
},
{
closed = 1;
nodes = (
(332,631,l),
(442,631,l),
(442,701,l),
(332,701,l)
);
},
{
closed = 1;
nodes = (
(226,0,l),
(298,0,l),
(426,656,l),
(352,656,l)
);
},
{
closed = 1;
nodes = (
(74,656,l),
(202,0,l),
(274,0,l),
(148,656,l)
);
}
);
width = 500;
}
);
unicode = 86;
},
{
glyphname = W;
lastChange = "2021-06-29 13:46:36 +0000";
layers = (
{
layerId = m01;
shapes = (
{
closed = 1;
nodes = (
(55,631,l),
(165,631,l),
(165,701,l),
(55,701,l)
);
},
{
closed = 1;
nodes = (
(335,631,l),
(445,631,l),
(445,701,l),
(335,701,l)
);
},
{
closed = 1;
nodes = (
(75,656,l),
(121,0,l),
(182,0,l),
(149,656,l)
);
},
{
closed = 1;
nodes = (
(318,0,l),
(379,0,l),
(425,656,l),
(351,656,l)
);
},
{
closed = 1;
nodes = (
(132,0,l),
(182,0,l),
(278,386,l),
(222,386,l)
);
},
{
closed = 1;
nodes = (
(318,0,l),
(368,0,l),
(278,386,l),
(222,386,l)
);
},
{
closed = 1;
nodes = (
(222,386,l),
(278,386,l)
);
}
);
width = 500;
}
);
unicode = 87;
},
{
glyphname = X;
lastChange = "2021-06-29 13:47:00 +0000";
layers = (
{
layerId = m01;
shapes = (
{
closed = 1;
nodes = (
(346,33,l),
(420,33,l),
(152,674,l),
(78,674,l)
);
},
{
closed = 1;
nodes = (
(154,33,l),
(422,674,l),
(348,674,l),
(80,33,l)
);
},
{
closed = 1;
nodes = (
(68,633,l),
(178,633,l),
(178,703,l),
(68,703,l)
);
},
{
closed = 1;
nodes = (
(322,633,l),
(432,633,l),
(432,703,l),
(322,703,l)
);
},
{
closed = 1;
nodes = (
(322,-2,l),
(432,-2,l),
(432,68,l),
(322,68,l)
);
},
{
closed = 1;
nodes = (
(68,-2,l),
(178,-2,l),
(178,68,l),
(68,68,l)
);
}
);
width = 500;
}
);
unicode = 88;
},
{
glyphname = Y;
lastChange = "2021-06-29 13:47:17 +0000";
layers = (
{
layerId = m01;
shapes = (
{
closed = 1;
nodes = (
(215,301,l),
(215,33,l),
(285,33,l),
(285,301,l),
(154,671,l),
(76,671,l)
);
},
{
closed = 1;
nodes = (
(285,301,l),
(424,671,l),
(346,671,l),
(215,301,l)
);
},
{
closed = 1;
nodes = (
(68,630,l),
(178,630,l),
(178,700,l),
(68,700,l)
);
},
{
closed = 1;
nodes = (
(322,630,l),
(432,630,l),
(432,700,l),
(322,700,l)
);
},
{
closed = 1;
nodes = (
(195,-3,l),
(305,-3,l),
(305,67,l),
(195,67,l)
);
}
);
width = 500;
}
);
unicode = 89;
},
{
glyphname = Z;
lastChange = "2021-06-29 13:47:32 +0000";
layers = (
{
layerId = m01;
shapes = (
{
closed = 1;
nodes = (
(152,68,l),
(428,632,l),
(348,632,l),
(72,68,l)
);
},
{
closed = 1;
nodes = (
(111,632,l),
(428,632,l),
(428,702,l),
(111,702,l)
);
},
{
closed = 1;
nodes = (
(72,-2,l),
(389,-2,l),
(389,68,l),
(72,68,l)
);
},
{
closed = 1;
nodes = (
(358,-2,l),
(428,-2,l),
(428,103,l),
(358,103,l)
);
},
{
closed = 1;
nodes = (
(72,597,l),
(142,597,l),
(142,702,l),
(72,702,l)
);
}
);
width = 500;
}
);
unicode = 90;
},
{
glyphname = T_h.liga;
lastChange = "2021-06-24 15:16:44 +0000";
layers = (
{
layerId = m01;
shapes = (
{
closed = 1;
nodes = (
(53,700,ls),
(47,700,o),
(43,696,o),
(43,690,cs),
(43,612,ls),
(43,606,o),
(47,602,o),
(53,602,cs),
(103,602,ls),
(109,602,o),
(113,606,o),
(113,612,cs),
(113,620,ls),
(113,626,o),
(117,630,o),
(123,630,cs),
(214,631,ls),
(220,631,o),
(224,627,o),
(224,621,cs),
(224,73,ls),
(224,67,o),
(220,63,o),
(214,63,cs),
(202,63,ls),
(196,63,o),
(192,59,o),
(192,53,cs),
(192,3,ls),
(192,-3,o),
(196,-7,o),
(202,-7,cs),
(316,-7,ls),
(322,-7,o),
(326,-3,o),
(326,3,cs),
(326,53,ls),
(326,59,o),
(322,63,o),
(316,63,cs),
(304,63,ls),
(298,63,o),
(294,67,o),
(294,73,cs),
(294,621,ls),
(294,627,o),
(298,631,o),
(304,631,cs),
(580,631,ls),
(586,631,o),
(590,627,o),
(590,621,cs),
(590,73,ls),
(590,67,o),
(586,63,o),
(580,63,cs),
(575,63,ls),
(569,63,o),
(565,60,o),
(565,53,cs),
(563,3,ls),
(563,-3,o),
(567,-7,o),
(573,-7,cs),
(652,-7,ls),
(658,-7,o),
(662,-3,o),
(662,3,cs),
(660,63,l),
(660,261,ls),
(660,362,o),
(682,419,o),
(758,419,cs),
(826,419,o),
(845,373,o),
(846,229,cs),
(847,64,l),
(845,4,ls),
(845,-2,o),
(849,-6,o),
(855,-6,cs),
(922,-6,ls),
(928,-6,o),
(932,-2,o),
(932,4,cs),
(930,54,ls),
(930,61,o),
(928,64,o),
(924,64,cs),
(920,64,o),
(917,67,o),
(917,74,cs),
(916,229,ls),
(915,420,o),
(873,487,o),
(755,487,cs),
(723,487,o),
(695,476,o),
(672,460,cs),
(665,455,o),
(660,458,o),
(660,466,cs),
(660,632,l),
(657,690,ls),
(657,697,o),
(653,700,o),
(647,700,cs)
);
}
);
width = 1000;
}
);
},
{
glyphname = a;
lastChange = "2021-06-29 13:53:14 +0000";
layers = (
{
layerId = m01;
shapes = (
{
closed = 1;
nodes = (
(180,64,o),
(142,154,o),
(142,250,cs),
(142,348,o),
(181,434,o),
(250,434,cs),
(320,434,o),
(358,348,o),
(358,249,cs),
(358,154,o),
(320,64,o),
(250,64,cs)
);
},
{
closed = 1;
nodes = (
(378,-4,o),
(428,118,o),
(428,249,cs),
(428,396,o),
(374,504,o),
(250,504,cs),
(126,504,o),
(72,396,o),
(72,250,cs),
(72,118,o),
(122,-4,o),
(250,-4,cs)
);
}
);
userData = {
com.schriftgestaltung.Glyphs.lastChange = "2021-06-18 11:47:39 +0000";
};
width = 500;
}
);
unicode = 97;
},
{
glyphname = b;
lastChange = "2021-06-24 15:17:56 +0000";
layers = (
{
layerId = m01;
shapes = (
{
closed = 1;
nodes = (
(157,32,ls),
(157,41,o),
(163,43,o),
(169,36,cs),
(192,11,o),
(216,-3,o),
(264,-3,cs),
(391,-3,o),
(451,109,o),
(451,249,cs),
(451,393,o),
(390,500,o),
(264,500,cs),
(223,500,o),
(194,488,o),
(170,463,cs),
(164,456,o),
(158,458,o),
(158,467,cs),
(158,625,l),
(155,695,ls),
(155,702,o),
(151,705,o),
(145,705,cs),
(84,705,ls),
(78,705,o),
(74,701,o),
(74,695,cs),
(77,635,ls),
(77,628,o),
(79,625,o),
(83,625,cs),
(86,625,o),
(88,621,o),
(88,615,cs),
(88,89,ls),
(88,83,o),
(86,79,o),
(82,79,cs),
(78,79,o),
(75,76,o),
(75,69,cs),
(72,9,ls),
(72,3,o),
(76,-1,o),
(82,-1,cs),
(145,-1,ls),
(151,-1,o),
(156,2,o),
(156,9,cs)
);
},
{
closed = 1;
nodes = (
(159,364,o),
(197,429,o),
(264,429,cs),
(336,429,o),
(381,349,o),
(381,249,cs),
(381,136,o),
(336,65,o),
(264,65,cs),
(194,65,o),
(159,134,o),
(159,250,cs)
);
}
);
width = 500;
}
);
unicode = 98;
},
{
glyphname = c;
lastChange = "2021-06-24 15:18:08 +0000";
layers = (
{
layerId = m01;
shapes = (
{
closed = 1;
nodes = (
(371,192,ls),
(365,192,o),
(362,189,o),
(361,182,cs),
(351,102,o),
(317,59,o),
(251,59,cs),
(170,59,o),
(131,124,o),
(131,244,cs),
(131,371,o),
(171,432,o),
(251,432,cs),
(306,432,o),
(341,400,o),
(356,343,cs),
(357,337,o),
(361,334,o),
(367,334,cs),
(420,334,ls),
(426,334,o),
(431,339,o),
(430,345,cs),
(416,444,ls),
(415,451,o),
(411,454,o),
(405,453,cs),
(381,449,l),
(352,483,o),
(306,499,o),
(248,499,cs),
(114,499,o),
(60,423,o),
(60,245,cs),
(60,79,o),
(112,-8,o),
(248,-8,cs),
(367,-8,o),
(421,55,o),
(434,181,cs),
(435,188,o),
(431,192,o),
(425,192,cs)
);
}
);
width = 500;
}
);
unicode = 99;
},
{
glyphname = d;
lastChange = "2021-06-24 15:18:19 +0000";
layers = (
{
layerId = m01;
shapes = (
{
closed = 1;
nodes = (
(422,-1,ls),
(428,-1,o),
(432,3,o),
(432,9,cs),
(429,69,ls),
(429,76,o),
(427,79,o),
(423,79,cs),
(419,79,o),
(416,83,o),
(416,89,cs),
(416,615,ls),
(416,621,o),
(418,625,o),
(422,625,cs),
(425,625,o),
(427,628,o),
(427,635,cs),
(430,695,ls),
(430,701,o),
(426,705,o),
(420,705,cs),
(360,705,ls),
(354,705,o),
(350,702,o),
(350,695,cs),
(348,625,l),
(348,470,ls),
(348,461,o),
(343,460,o),
(336,466,cs),
(310,491,o),
(274,504,o),
(226,504,cs),
(102,504,o),
(39,416,o),
(39,249,cs),
(39,98,o),
(98,-3,o),
(226,-3,cs),
(275,-3,o),
(310,11,o),
(337,37,cs),
(343,44,o),
(349,41,o),
(349,33,cs),
(350,9,ls),
(350,2,o),
(354,-1,o),
(360,-1,cs)
);
},
{
closed = 1;
nodes = (
(109,368,o),
(156,436,o),
(226,436,cs),
(295,436,o),
(347,368,o),
(347,250,cs),
(347,134,o),
(296,64,o),
(226,64,cs),
(156,64,o),
(109,134,o),
(109,249,cs)
);
}
);
width = 500;
}
);
unicode = 100;
},
{
glyphname = e;
lastChange = "2021-06-24 15:18:28 +0000";
layers = (
{
layerId = m01;
shapes = (
{
closed = 1;
nodes = (
(418,202,o),
(434,314,o),
(434,355,cs),
(434,441,o),
(363,500,o),
(258,499,cs),
(133,498,o),
(71,409,o),
(71,245,cs),
(71,79,o),
(118,-8,o),
(258,-8,cs),
(361,-8,o),
(408,40,o),
(432,136,cs),
(434,143,o),
(431,147,o),
(424,147,cs),
(371,147,ls),
(365,147,o),
(361,144,o),
(359,139,cs),
(343,87,o),
(316,57,o),
(261,57,cs),
(188,57,o),
(150,100,o),
(142,188,cs),
(141,195,o),
(145,199,o),
(152,199,cs)
);
},
{
closed = 1;
nodes = (
(149,378,o),
(183,433,o),
(261,433,cs),
(314,433,o),
(364,406,o),
(364,355,cs),
(364,296,o),
(295,262,o),
(152,260,cs),
(145,260,o),
(141,264,o),
(142,271,cs)
);
}
);
width = 501;
}
);
unicode = 101;
},
{
glyphname = f;
lastChange = "2021-06-25 06:38:57 +0000";
layers = (
{
layerId = m01;
shapes = (
{
closed = 1;
nodes = (
(204,-84,o),
(188,-132,o),
(163,-132,cs),
(134,-132,o),
(113,-115,o),
(83,-58,cs),
(80,-51,o),
(75,-49,o),
(69,-53,cs),
(30,-76,ls),
(25,-79,o),
(24,-84,o),
(27,-90,cs),
(71,-174,o),
(96,-202,o),
(161,-202,cs),
(230,-202,o),
(273,-142,o),
(274,-1,cs),
(276,420,ls),
(276,426,o),
(280,430,o),
(286,430,cs),
(420,430,ls),
(426,430,o),
(430,434,o),
(430,440,cs),
(430,490,ls),
(430,496,o),
(426,500,o),
(420,500,cs),
(285,500,ls),
(279,500,o),
(275,503,o),
(275,510,cs),
(275,566,ls),
(275,613,o),
(293,664,o),
(340,664,cs),
(359,664,o),
(376,656,o),
(389,643,cs),
(393,639,o),
(398,638,o),
(403,642,cs),
(441,673,ls),
(446,677,o),
(447,682,o),
(443,687,cs),
(418,715,o),
(382,731,o),
(340,732,cs),
(251,734,o),
(205,656,o),
(205,578,cs),
(205,510,ls),
(205,504,o),
(201,500,o),
(195,500,cs),
(71,500,ls),
(65,500,o),
(61,496,o),
(61,490,cs),
(61,440,ls),
(61,434,o),
(65,430,o),
(71,430,cs),
(196,430,ls),
(202,430,o),
(206,427,o),
(206,420,cs),
(204,-3,ls)
);
}
);
width = 500;
}
);
unicode = 102;
},
{
glyphname = g;
lastChange = "2021-06-24 15:18:46 +0000";
layers = (
{
layerId = m01;
shapes = (
{
closed = 1;
nodes = (
(174,75,o),
(129,165,o),
(129,247,cs),
(129,333,o),
(174,432,o),
(250,432,cs),
(337,432,o),
(358,371,o),
(358,244,cs),
(358,132,o),
(340,75,o),
(250,75,cs)
);
},
{
closed = 1;
nodes = (
(56,120,o),
(122,6,o),
(247,6,cs),
(282,6,o),
(320,15,o),
(344,31,cs),
(351,36,o),
(357,34,o),
(356,25,cs),
(348,-71,o),
(314,-131,o),
(241,-131,cs),
(204,-131,o),
(175,-118,o),
(156,-96,cs),
(151,-90,o),
(146,-90,o),
(142,-95,cs),
(105,-134,ls),
(101,-139,o),
(101,-143,o),
(105,-148,cs),
(133,-180,o),
(159,-200,o),
(223,-200,cs),
(364,-200,o),
(426,-107,o),
(426,61,cs),
(426,412,ls),
(426,418,o),
(428,422,o),
(431,422,cs),
(434,422,o),
(435,425,o),
(435,432,cs),
(438,492,ls),
(438,498,o),
(435,502,o),
(429,502,cs),
(369,502,ls),
(363,502,o),
(359,499,o),
(359,492,cs),
(358,480,ls),
(358,471,o),
(353,470,o),
(346,475,cs),
(322,490,o),
(284,499,o),
(247,499,cs),
(125,499,o),
(56,377,o),
(56,248,cs)
);
}
);
width = 500;
}
);
unicode = 103;
},
{
glyphname = h;
lastChange = "2021-06-24 15:18:53 +0000";
layers = (
{
layerId = m01;
shapes = (
{
closed = 1;
nodes = (
(418,423,o),
(376,490,o),
(258,490,cs),
(226,490,o),
(202,479,o),
(180,463,cs),
(173,458,o),
(168,461,o),
(168,469,cs),
(168,637,l),
(167,697,ls),
(167,704,o),
(163,707,o),
(157,707,cs),
(95,707,ls),
(89,707,o),
(85,703,o),
(85,697,cs),
(87,647,ls),
(87,640,o),
(89,637,o),
(93,637,cs),
(96,637,o),
(98,633,o),
(98,627,cs),
(98,73,ls),
(98,67,o),
(96,63,o),
(92,63,cs),
(88,63,o),
(85,60,o),
(85,53,cs),
(83,4,ls),
(83,-2,o),
(87,-6,o),
(93,-6,cs),
(160,-6,ls),
(166,-6,o),
(170,-2,o),
(170,4,cs),
(168,63,l),
(168,264,ls),
(168,365,o),
(190,422,o),
(261,422,cs),
(329,422,o),
(348,376,o),
(349,232,cs),
(350,64,l),
(348,5,ls),
(348,-1,o),
(352,-5,o),
(358,-5,cs),
(425,-5,ls),
(431,-5,o),
(435,-1,o),
(435,5,cs),
(433,54,ls),
(433,61,o),
(431,64,o),
(427,64,cs),
(423,64,o),
(420,67,o),
(420,74,cs),
(419,232,ls)
);
}
);
width = 500;
}
);
unicode = 104;
},
{
glyphname = i;
lastChange = "2021-06-25 05:27:05 +0000";
layers = (
{
layerId = m01;
shapes = (
{
closed = 1;
nodes = (
(118,440,ls),
(118,434,o),
(122,430,o),
(128,430,cs),
(211,430,ls),
(217,430,o),
(221,426,o),
(221,420,cs),
(221,195,ls),
(221,54,o),
(258,-3,o),
(327,-3,cs),
(391,-3,o),
(431,32,o),
(476,116,cs),
(479,122,o),
(478,126,o),
(472,129,cs),
(430,150,ls),
(424,153,o),
(420,151,o),
(417,145,cs),
(397,103,o),
(369,67,o),
(327,67,cs),
(301,67,o),
(291,110,o),
(291,194,cs),
(291,490,ls),
(291,496,o),
(287,500,o),
(281,500,cs),
(128,500,ls),
(122,500,o),
(118,496,o),
(118,490,cs)
);
},
{
closed = 1;
nodes = (
(288,617,ls),
(294,617,o),
(298,621,o),
(298,627,cs),
(298,694,ls),
(298,700,o),
(294,704,o),
(288,704,cs),
(221,704,ls),
(215,704,o),
(211,700,o),
(211,694,cs),
(211,627,ls),
(211,621,o),
(215,617,o),
(221,617,cs)
);
}
);
width = 500;
}
);
unicode = 105;
},
{
glyphname = j;
lastChange = "2021-06-24 15:19:12 +0000";
layers = (
{
layerId = m01;
shapes = (
{
closed = 1;
nodes = (
(139,440,ls),
(139,434,o),
(143,430,o),
(149,430,cs),
(245,430,ls),
(251,430,o),
(255,426,o),
(255,420,cs),
(255,13,ls),
(255,-86,o),
(242,-130,o),
(217,-130,cs),
(176,-130,o),
(143,-89,o),
(118,-45,cs),
(115,-39,o),
(110,-37,o),
(104,-41,cs),
(61,-68,ls),
(55,-72,o),
(54,-76,o),
(58,-82,cs),
(112,-166,o),
(153,-200,o),
(217,-200,cs),
(288,-200,o),
(325,-132,o),
(325,13,cs),
(325,490,ls),
(325,496,o),
(321,500,o),
(315,500,cs),
(149,500,ls),
(143,500,o),
(139,496,o),
(139,490,cs)
);
},
{
closed = 1;
nodes = (
(306,617,ls),
(312,617,o),
(316,621,o),
(316,627,cs),
(316,694,ls),
(316,700,o),
(312,704,o),
(306,704,cs),
(239,704,ls),
(233,704,o),
(229,700,o),
(229,694,cs),
(229,627,ls),
(229,621,o),
(233,617,o),
(239,617,cs)
);
}
);
width = 500;
}
);
unicode = 106;
},
{
glyphname = k;
lastChange = "2021-06-24 15:19:19 +0000";
layers = (
{
layerId = m01;
shapes = (
{
closed = 1;
nodes = (
(174,207,ls),
(174,213,o),
(178,217,o),
(184,217,cs),
(204,217,ls),
(209,217,o),
(213,216,o),
(216,211,cs),
(357,6,ls),
(360,1,o),
(364,0,o),
(369,0,cs),
(429,0,ls),
(437,0,o),
(440,6,o),
(436,12,cs),
(277,243,ls),
(274,248,o),
(274,252,o),
(277,257,cs),
(436,488,ls),
(440,494,o),
(437,500,o),
(429,500,cs),
(369,500,ls),
(364,500,o),
(360,499,o),
(357,494,cs),
(216,294,ls),
(213,289,o),
(209,288,o),
(204,288,cs),
(184,288,ls),
(178,288,o),
(174,292,o),
(174,298,cs),
(174,695,ls),
(174,701,o),
(170,705,o),
(164,705,cs),
(100,705,ls),
(94,705,o),
(90,701,o),
(90,695,cs),
(93,635,ls),
(93,628,o),
(95,625,o),
(99,625,cs),
(102,625,o),
(104,621,o),
(104,615,cs),
(104,89,ls),
(104,83,o),
(102,79,o),
(98,79,cs),
(94,79,o),
(91,76,o),
(91,69,cs),
(88,9,ls),
(88,3,o),
(92,-1,o),
(98,-1,cs),
(164,-1,ls),
(170,-1,o),
(174,3,o),
(174,9,cs)
);
}
);
width = 500;
}
);
unicode = 107;
},
{
glyphname = l;
lastChange = "2021-06-25 06:45:15 +0000";
layers = (
{
layerId = m01;
shapes = (
{
closed = 1;
nodes = (
(195,58,o),
(222,0,o),
(306,0,cs),
(381,0,o),
(417,33,o),
(459,117,cs),
(462,123,o),
(460,127,o),
(455,130,cs),
(416,150,ls),
(410,153,o),
(406,151,o),
(403,145,cs),
(379,96,o),
(358,68,o),
(309,68,cs),
(275,68,o),
(264,104,o),
(264,199,cs),
(266,677,ls),
(266,683,o),
(262,687,o),
(256,687,cs),
(118,687,l),
(74,688,ls),
(68,688,o),
(64,684,o),
(64,678,cs),
(64,626,ls),
(64,620,o),
(68,616,o),
(74,616,cs),
(118,617,l),
(188,617,ls),
(194,617,o),
(198,613,o),
(198,607,cs),
(196,200,ls)
);
}
);
width = 500;
}
);
unicode = 108;
},
{
glyphname = m;
lastChange = "2021-06-24 15:19:30 +0000";
layers = (
{
layerId = m01;
shapes = (
{
closed = 1;
nodes = (
(168,388,o),
(188,441,o),
(207,441,cs),
(228,441,o),
(245,388,o),
(245,327,cs),
(245,247,ls),
(245,241,o),
(249,237,o),
(255,237,cs),
(294,237,ls),
(300,237,o),
(304,241,o),
(304,247,cs),
(304,327,ls),
(304,388,o),
(323,440,o),
(343,440,cs),
(361,440,o),
(377,388,o),
(377,327,cs),
(377,9,ls),
(377,3,o),
(381,-1,o),
(387,-1,cs),
(451,-1,ls),
(457,-1,o),
(460,3,o),
(460,9,cs),
(458,59,ls),
(458,66,o),
(456,69,o),
(453,69,cs),
(450,69,o),
(447,73,o),
(447,79,cs),
(447,327,ls),
(447,426,o),
(399,505,o),
(343,505,cs),
(319,505,o),
(299,492,o),
(283,470,cs),
(278,464,o),
(274,464,o),
(270,470,cs),
(254,492,o),
(233,505,o),
(207,505,cs),
(181,505,o),
(158,484,o),
(143,449,cs),
(140,442,o),
(136,442,o),
(132,449,cs),
(122,465,o),
(108,483,o),
(95,497,cs),
(91,502,o),
(86,503,o),
(81,498,cs),
(37,460,ls),
(32,455,o),
(32,451,o),
(36,446,cs),
(46,435,o),
(55,423,o),
(63,409,cs),
(66,403,o),
(71,402,o),
(76,405,cs),
(80,408,o),
(85,406,o),
(88,400,cs),
(98,377,o),
(100,356,o),
(100,327,cs),
(101,79,ls),
(101,73,o),
(99,69,o),
(96,69,cs),
(93,69,o),
(90,66,o),
(90,59,cs),
(87,9,ls),
(87,2,o),
(90,-1,o),
(96,-1,cs),
(166,-1,l),
(168,-1,ls),
(169,-1,o),
(170,3,o),
(170,9,cs),
(168,327,ls)
);
}
);
width = 500;
}
);
unicode = 109;
},
{
glyphname = n;
lastChange = "2021-06-24 15:19:38 +0000";
layers = (
{
layerId = m01;
shapes = (
{
closed = 1;
nodes = (
(175,68,l),
(175,328,ls),
(175,389,o),
(214,443,o),
(274,443,cs),
(324,443,o),
(363,389,o),
(363,328,cs),
(363,68,l),
(365,8,ls),
(365,1,o),
(369,-2,o),
(375,-2,cs),
(437,-2,ls),
(443,-2,o),
(446,2,o),
(446,8,cs),
(444,58,ls),
(444,65,o),
(442,68,o),
(439,68,cs),
(436,68,o),
(433,72,o),
(433,78,cs),
(433,331,ls),
(433,430,o),
(367,508,o),
(274,508,cs),
(221,508,o),
(180,488,o),
(147,454,cs),
(142,449,o),
(137,450,o),
(133,456,cs),
(124,470,o),
(112,484,o),
(101,496,cs),
(97,501,o),
(92,502,o),
(87,497,cs),
(43,459,ls),
(38,454,o),
(38,450,o),
(42,445,cs),
(52,434,o),
(61,422,o),
(69,408,cs),
(72,402,o),
(77,401,o),
(82,404,cs),
(86,407,o),
(91,405,o),
(94,399,cs),
(104,376,o),
(106,355,o),
(106,326,cs),
(104,78,ls),
(104,71,o),
(102,68,o),
(99,68,cs),
(96,68,o),
(93,64,o),
(93,58,cs),
(93,8,ls),
(93,2,o),
(97,-2,o),
(103,-2,cs),
(163,-2,ls),
(169,-2,o),
(173,1,o),
(173,8,cs)
);
}
);
userData = {
com.schriftgestaltung.Glyphs.lastChange = "2021-06-18 11:47:39 +0000";
};
width = 500;
}
);
unicode = 110;
},
{
glyphname = o;
lastChange = "2021-06-29 13:52:33 +0000";
layers = (
{
layerId = m01;
shapes = (
{
closed = 1;
nodes = (
(180,64,o),
(142,154,o),
(142,250,cs),
(142,348,o),
(181,434,o),
(250,434,cs),
(320,434,o),
(358,348,o),
(358,249,cs),
(358,154,o),
(320,64,o),
(250,64,cs)
);
},
{
closed = 1;
nodes = (
(378,-4,o),
(428,118,o),
(428,249,cs),
(428,396,o),
(374,504,o),
(250,504,cs),
(126,504,o),
(72,396,o),
(72,250,cs),
(72,118,o),
(122,-4,o),
(250,-4,cs)
);
}
);
width = 500;
}
);
unicode = 111;
},
{
glyphname = p;
lastChange = "2021-06-24 15:19:48 +0000";
layers = (
{
layerId = m01;
shapes = (
{
closed = 1;
nodes = (
(190,55,o),
(157,122,o),
(157,242,cs),
(157,366,o),
(191,429,o),
(274,429,cs),
(358,429,o),
(391,366,o),
(391,242,cs),
(391,120,o),
(358,55,o),
(274,55,cs)
);
},
{
closed = 1;
nodes = (
(145,-203,ls),
(151,-203,o),
(155,-200,o),
(155,-193,cs),
(157,-123,l),
(157,18,ls),
(157,26,o),
(162,29,o),
(169,24,cs),
(194,2,o),
(227,-8,o),
(271,-8,cs),
(413,-8,o),
(461,74,o),
(461,243,cs),
(461,418,o),
(413,496,o),
(271,496,cs),
(228,496,o),
(194,485,o),
(168,461,cs),
(162,456,o),
(156,458,o),
(156,466,cs),
(155,490,ls),
(155,497,o),
(151,500,o),
(145,500,cs),
(83,500,ls),
(77,500,o),
(73,496,o),
(73,490,cs),
(76,430,ls),
(76,423,o),
(78,420,o),
(82,420,cs),
(85,420,o),
(87,416,o),
(87,410,cs),
(87,-113,ls),
(87,-119,o),
(85,-123,o),
(81,-123,cs),
(77,-123,o),
(74,-126,o),
(74,-133,cs),
(71,-193,ls),
(71,-199,o),
(75,-203,o),
(81,-203,cs)
);
}
);
width = 500;
}
);
unicode = 112;
},
{
glyphname = q;
lastChange = "2021-06-24 15:20:29 +0000";
layers = (
{
layerId = m01;
shapes = (
{
closed = 1;
nodes = (
(151,55,o),
(118,120,o),
(118,242,cs),
(118,366,o),
(151,429,o),
(235,429,cs),
(318,429,o),
(352,366,o),
(352,242,cs),
(352,122,o),
(319,55,o),
(235,55,cs)
);
},
{
closed = 1;
nodes = (
(435,-133,ls),
(435,-126,o),
(433,-123,o),
(429,-123,cs),
(425,-123,o),
(422,-119,o),
(422,-113,cs),
(422,410,ls),
(422,416,o),
(424,420,o),
(428,420,cs),
(431,420,o),
(433,423,o),
(433,430,cs),
(436,490,ls),
(436,496,o),
(432,500,o),
(426,500,cs),
(364,500,ls),
(358,500,o),
(354,497,o),
(354,490,cs),
(353,466,ls),
(353,458,o),
(347,456,o),
(341,462,cs),
(315,485,o),
(280,496,o),
(238,496,cs),
(96,496,o),
(48,418,o),
(48,243,cs),
(48,74,o),
(96,-8,o),
(238,-8,cs),
(282,-8,o),
(315,2,o),
(340,24,cs),
(347,29,o),
(352,26,o),
(352,18,cs),
(352,-123,l),
(354,-193,ls),
(354,-200,o),
(358,-203,o),
(364,-203,cs),
(428,-203,ls),
(434,-203,o),
(438,-199,o),
(438,-193,cs)
);
}
);
width = 500;
}
);
unicode = 113;
},
{
glyphname = r;
lastChange = "2021-06-24 15:20:38 +0000";
layers = (
{
layerId = m01;
shapes = (
{
closed = 1;
nodes = (
(461,446,ls),
(464,451,o),
(464,456,o),
(459,460,cs),
(424,485,o),
(374,500,o),
(321,500,cs),
(266,500,o),
(218,477,o),
(187,447,cs),
(181,442,o),
(177,442,o),
(173,449,cs),
(162,466,o),
(147,483,o),
(135,497,cs),
(130,502,o),
(126,502,o),
(121,498,cs),
(76,459,ls),
(71,454,o),
(71,450,o),
(75,445,cs),
(85,434,o),
(94,422,o),
(102,408,cs),
(105,402,o),
(110,401,o),
(115,404,cs),
(119,407,o),
(124,405,o),
(127,399,cs),
(137,378,o),
(139,368,o),
(139,339,cs),
(139,79,ls),
(139,73,o),
(137,69,o),
(134,69,cs),
(131,69,o),
(129,66,o),
(129,59,cs),
(126,9,ls),
(126,3,o),
(129,-1,o),
(135,-1,cs),
(213,-1,ls),
(219,-1,o),
(222,3,o),
(222,9,cs),
(220,59,ls),
(220,66,o),
(218,69,o),
(215,69,cs),
(212,69,o),
(209,73,o),
(209,79,cs),
(209,261,ls),
(209,385,o),
(241,435,o),
(324,435,cs),
(341,435,o),
(355,433,o),
(366,430,cs),
(372,429,o),
(374,425,o),
(374,419,cs),
(374,414,ls),
(374,409,o),
(376,404,o),
(381,402,cs),
(414,388,ls),
(419,386,o),
(424,388,o),
(427,393,cs)
);
}
);
width = 500;
}
);
unicode = 114;
},
{
glyphname = s;
lastChange = "2021-06-24 15:21:11 +0000";
layers = (
{
layerId = m01;
shapes = (
{
closed = 1;
nodes = (
(419,348,ls),
(425,349,o),
(429,351,o),
(428,355,c),
(429,354,ls),
(429,353,o),
(428,372,o),
(427,382,cs),
(424,446,ls),
(424,453,o),
(419,456,o),
(413,456,cs),
(371,455,l),
(340,483,o),
(300,498,o),
(250,499,cs),
(65,501,o),
(-15,315,o),
(152,244,cs),
(223,214,o),
(265,209,o),
(319,186,cs),
(391,155,o),
(370,58,o),
(267,58,cs),
(198,58,o),
(160,95,o),
(144,147,cs),
(142,153,o),
(137,156,o),
(131,154,cs),
(78,140,ls),
(72,138,o),
(69,135,o),
(71,128,cs),
(96,41,o),
(161,-9,o),
(252,-10,cs),
(420,-12,o),
(522,174,o),
(349,245,cs),
(280,273,o),
(236,272,o),
(182,303,cs),
(120,339,o),
(147,431,o),
(235,431,cs),
(304,431,o),
(340,400,o),
(356,348,cs),
(357,342,o),
(361,339,o),
(367,340,cs)
);
}
);
width = 500;
}
);
unicode = 115;
},
{
glyphname = t;
lastChange = "2021-06-24 15:21:18 +0000";
layers = (
{
layerId = m01;
shapes = (
{
closed = 1;
nodes = (
(276,420,ls),
(276,426,o),
(280,430,o),
(286,430,cs),
(415,430,ls),
(421,430,o),
(425,434,o),
(425,440,cs),
(425,490,ls),
(425,496,o),
(421,500,o),
(415,500,cs),
(286,500,ls),
(280,500,o),
(276,504,o),
(276,510,cs),
(276,638,ls),
(276,644,o),
(272,648,o),
(266,648,cs),
(216,648,ls),
(210,648,o),
(206,644,o),
(206,638,cs),
(206,510,ls),
(206,504,o),
(202,500,o),
(196,500,cs),
(80,500,ls),
(74,500,o),
(70,496,o),
(70,490,cs),
(70,440,ls),
(70,434,o),
(74,430,o),
(80,430,cs),
(196,430,ls),
(202,430,o),
(206,426,o),
(206,420,cs),
(206,181,ls),
(206,59,o),
(228,-5,o),
(315,-5,cs),
(376,-5,o),
(418,35,o),
(464,120,cs),
(467,126,o),
(466,131,o),
(461,134,cs),
(418,159,ls),
(412,163,o),
(407,161,o),
(404,155,cs),
(378,108,o),
(345,66,o),
(315,66,cs),
(285,66,o),
(276,102,o),
(276,179,cs)
);
}
);
width = 500;
}
);
unicode = 116;
},
{
glyphname = u;
lastChange = "2021-06-24 15:21:25 +0000";
layers = (
{
layerId = m01;
shapes = (
{
closed = 1;
nodes = (
(135,480,ls),
(135,486,o),
(131,490,o),
(125,490,cs),
(63,490,ls),
(57,490,o),
(53,486,o),
(53,480,cs),
(55,420,ls),
(55,413,o),
(57,410,o),
(60,410,cs),
(63,410,o),
(65,406,o),
(65,400,cs),
(64,243,ls),
(63,77,o),
(109,-9,o),
(228,-10,cs),
(271,-10,o),
(310,10,o),
(339,55,cs),
(343,62,o),
(348,62,o),
(351,55,cs),
(363,33,o),
(378,15,o),
(401,-4,cs),
(406,-8,o),
(411,-8,o),
(415,-3,cs),
(448,35,ls),
(452,40,o),
(451,45,o),
(446,50,cs),
(407,86,o),
(395,115,o),
(395,163,cs),
(394,400,ls),
(394,406,o),
(396,410,o),
(399,410,cs),
(402,410,o),
(404,413,o),
(404,420,cs),
(407,480,ls),
(407,486,o),
(403,490,o),
(397,490,cs),
(335,490,ls),
(329,490,o),
(325,486,o),
(325,480,cs),
(325,410,l),
(325.728,247.875,ls),
(326,136,o),
(287,53,o),
(230,53,cs),
(163,53,o),
(132,122,o),
(133,242,cs)
);
}
);
width = 500;
}
);
unicode = 117;
},
{
glyphname = v;
lastChange = "2021-06-24 15:21:31 +0000";
layers = (
{
layerId = m01;
shapes = (
{
closed = 1;
nodes = (
(418,422,ls),
(420,427,o),
(424,430,o),
(430,430,cs),
(446,430,ls),
(452,430,o),
(456,433,o),
(456,440,cs),
(459,490,ls),
(459,496,o),
(455,500,o),
(449,500,cs),
(376,500,ls),
(370,500,o),
(367,497,o),
(365,492,cs),
(256,107,ls),
(253,98,o),
(247,97,o),
(244,107,cs),
(134,491,ls),
(133,496,o),
(132,498,o),
(132,499,cs),
(132,500,o),
(128,500,o),
(122,500,cs),
(51,500,ls),
(45,500,o),
(41,496,o),
(41,490,cs),
(43,440,ls),
(43,433,o),
(47,430,o),
(53,430,cs),
(68,430,ls),
(73,430,o),
(78,427,o),
(80,422,cs),
(207,8,ls),
(209,3,o),
(214,0,o),
(219,0,cs),
(281,0,ls),
(286,0,o),
(291,3,o),
(293,8,cs)
);
}
);
width = 500;
}
);
unicode = 118;
},
{
glyphname = w;
lastChange = "2021-06-29 13:52:59 +0000";
layers = (
{
layerId = m01;
shapes = (
{
closed = 1;
nodes = (
(62,430,l),
(155,430,l),
(155,500,l),
(62,500,l)
);
},
{
closed = 1;
nodes = (
(345,430,l),
(439,430,l),
(439,500,l),
(345,500,l)
);
},
{
closed = 1;
nodes = (
(82,500,l),
(97,0,l),
(158,0,l),
(156,500,l)
);
},
{
closed = 1;
nodes = (
(342,0,l),
(403,0,l),
(419,500,l),
(345,500,l)
);
},
{
closed = 1;
nodes = (
(108,0,l),
(171,0,l),
(281,262,l),
(219,262,l)
);
},
{
closed = 1;
nodes = (
(329,0,l),
(392,0,l),
(281,262,l),
(219,262,l)
);
},
{
closed = 1;
nodes = (
(219,262,l),
(281,262,l)
);
}
);
width = 501;
}
);
unicode = 119;
},
{
glyphname = x;
lastChange = "2021-06-24 15:21:47 +0000";
layers = (
{
layerId = m01;
shapes = (
{
closed = 1;
nodes = (
(436,1,ls),
(442,1,o),
(445,5,o),
(445,11,cs),
(443,61,ls),
(443,68,o),
(439,71,o),
(433,71,cs),
(404,71,ls),
(399,71,o),
(395,74,o),
(392,78,cs),
(295,243,ls),
(292,247,o),
(292,253,o),
(295,257,cs),
(392,422,ls),
(395,426,o),
(399,429,o),
(404,429,cs),
(433,429,ls),
(439,429,o),
(443,432,o),
(443,439,cs),
(446,489,ls),
(446,495,o),
(442,499,o),
(436,499,cs),
(367,499,ls),
(362,499,o),
(358,496,o),
(355,492,cs),
(256,328,ls),
(252,322,o),
(247,322,o),
(243,328,cs),
(144,492,ls),
(141,496,o),
(137,499,o),
(132,499,cs),
(64,499,ls),
(58,499,o),
(54,495,o),
(54,489,cs),
(56,439,ls),
(56,432,o),
(60,429,o),
(66,429,cs),
(95,429,ls),
(100,429,o),
(104,426,o),
(107,422,cs),
(204,257,ls),
(207,253,o),
(207,247,o),
(204,243,cs),
(107,78,ls),
(104,74,o),
(100,71,o),
(95,71,cs),
(66,71,ls),
(60,71,o),
(56,68,o),
(56,61,cs),
(54,11,ls),
(54,5,o),
(58,1,o),
(64,1,cs),
(132,1,ls),
(137,1,o),
(141,4,o),
(144,8,cs),
(243,172,ls),
(247,178,o),
(252,178,o),
(256,172,cs),
(355,8,ls),
(358,4,o),
(362,1,o),
(367,1,cs)
);
}
);
width = 500;
}
);
unicode = 120;
},
{
glyphname = y;
lastChange = "2021-06-24 15:22:18 +0000";
layers = (
{
layerId = m01;
shapes = (
{
closed = 1;
nodes = (
(415,422,ls),
(417,427,o),
(421,430,o),
(426,430,cs),
(447,430,ls),
(453,430,o),
(457,433,o),
(457,440,cs),
(460,490,ls),
(460,496,o),
(456,500,o),
(450,500,cs),
(377,500,ls),
(372,500,o),
(367,497,o),
(365,492,cs),
(260,161,ls),
(257,151,o),
(250,152,o),
(247,161,cs),
(135,492,ls),
(133,497,o),
(128,500,o),
(123,500,cs),
(51,500,ls),
(45,500,o),
(41,496,o),
(41,490,cs),
(43,440,ls),
(43,433,o),
(47,430,o),
(53,430,cs),
(75,430,ls),
(80,430,o),
(85,427,o),
(87,422,cs),
(217,42,ls),
(218,38,o),
(219,34,o),
(217,29,cs),
(169,-123,ls),
(167,-128,o),
(162,-131,o),
(157,-131,cs),
(133,-131,ls),
(127,-131,o),
(123,-134,o),
(123,-141,cs),
(120,-191,ls),
(120,-197,o),
(123,-199,o),
(129,-201,c),
(207,-201,ls),
(212,-201,o),
(217,-198,o),
(219,-193,cs)
);
}
);
width = 500;
}
);
unicode = 121;
},
{
glyphname = z;
lastChange = "2021-06-24 15:22:33 +0000";
layers = (
{
layerId = m01;
shapes = (
{
closed = 1;
nodes = (
(437,82,ls),
(437,88,o),
(433,91,o),
(427,91,cs),
(376,89,ls),
(370,89,o),
(366,85,o),
(366,80,cs),
(366,74,o),
(362,70,o),
(356,70,cs),
(179,70,ls),
(171,70,o),
(168,76,o),
(173,82,cs),
(433,424,ls),
(436,428,o),
(437,432,o),
(437,437,cs),
(437,490,ls),
(437,496,o),
(433,500,o),
(427,500,cs),
(73,500,ls),
(67,500,o),
(63,496,o),
(63,490,cs),
(63,418,ls),
(63,412,o),
(67,409,o),
(73,409,cs),
(124,411,ls),
(130,411,o),
(134,415,o),
(134,421,cs),
(134,427,o),
(138,430,o),
(144,430,cs),
(322,430,ls),
(330,430,o),
(333,424,o),
(328,418,cs),
(68,76,ls),
(65,72,o),
(64,68,o),
(64,63,cs),
(64,10,ls),
(64,4,o),
(68,0,o),
(74,0,cs),
(427,0,ls),
(433,0,o),
(437,4,o),
(437,10,cs)
);
}
);
width = 500;
}
);
unicode = 122;
},
{
glyphname = f_l.liga;
lastChange = "2021-06-24 15:40:39 +0000";
layers = (
{
layerId = m01;
shapes = (
{
closed = 1;
nodes = (
(197,430,ls),
(203,430,o),
(207,427,o),
(207,420,cs),
(209,-10,ls),
(209,-91,o),
(193,-139,o),
(168,-139,cs),
(139,-139,o),
(118,-122,o),
(88,-65,cs),
(85,-58,o),
(80,-56,o),
(74,-60,cs),
(35,-83,ls),
(30,-86,o),
(29,-91,o),
(32,-97,cs),
(76,-181,o),
(101,-209,o),
(166,-209,cs),
(235,-209,o),
(280,-149,o),
(279,-8,cs),
(277,420,ls),
(277,426,o),
(281,430,o),
(287,430,cs),
(431,430,ls),
(437,430,o),
(441,434,o),
(441,440,cs),
(441,490,ls),
(441,496,o),
(437,500,o),
(431,500,cs),
(287,500,ls),
(281,500,o),
(277,504,o),
(277,510,cs),
(277,569,ls),
(277,616,o),
(298,667,o),
(367,667,cs),
(460,667,o),
(550,662,o),
(685,632,cs),
(691,631,o),
(694,627,o),
(694,621,cs),
(694,200,ls),
(694,58,o),
(720,0,o),
(804,0,cs),
(874,0,o),
(910,33,o),
(952,117,cs),
(955,123,o),
(953,127,o),
(948,130,cs),
(909,150,ls),
(903,153,o),
(899,151,o),
(896,145,cs),
(872,96,o),
(851,68,o),
(807,68,cs),
(773,68,o),
(762,104,o),
(762,199,cs),
(764,677,ls),
(764,680.226,o),
(762.844,682.873,o),
(760.843,684.632,c),
(759.689,686.994,o),
(757.298,688.45,o),
(754,689,cs),
(592,727,o),
(497,736,o),
(359,735,cs),
(255,734,o),
(207,659,o),
(207,581,cs),
(207,510,ls),
(207,504,o),
(203,500,o),
(197,500,cs),
(97,500,ls),
(91,500,o),
(87,496,o),
(87,490,cs),
(87,440,ls),
(87,434,o),
(91,430,o),
(97,430,cs)
);
}
);
width = 1000;
}
);
},
{
glyphname = f_l_ext_left.liga;
lastChange = "2021-06-22 15:00:06 +0000";
layers = (
{
layerId = m01;
shapes = (
{
ref = f_l.liga;
},
{
closed = 1;
nodes = (
(-20,430,l),
(138,430,l),
(138,500,l),
(-20,500,l)
);
}
);
width = 1000;
}
);
},
{
glyphname = f_l_stroke_left.liga;
lastChange = "2021-06-24 15:41:07 +0000";
layers = (
{
layerId = m01;
shapes = (
{
closed = 1;
nodes = (
(207.274,500,l),
(173,500,ls),
(46,500,o),
(-11,470,o),
(-43,411,cs),
(-47,405,o),
(-44,400,o),
(-39,397,cs),
(4,375,ls),
(9,372,o),
(15,374,o),
(18,379,cs),
(41,417,o),
(69,430,o),
(173,430,cs),
(207.511,430,l),
(209,-10,ls),
(209,-91,o),
(193,-139,o),
(168,-139,cs),
(139,-139,o),
(118,-122,o),
(88,-65,cs),
(85,-58,o),
(80,-56,o),
(74,-60,cs),
(35,-83,ls),
(30,-86,o),
(29,-91,o),
(32,-97,cs),
(76,-181,o),
(101,-209,o),
(166,-209,cs),
(235,-209,o),
(279,-149,o),
(279,-8,cs),
(277.482,430,l),
(431,430,ls),
(437,430,o),
(441,434,o),
(441,440,cs),
(441,490,ls),
(441,496,o),
(437,500,o),
(431,500,cs),
(277.239,500,l),
(277,569,ls),
(277,616,o),
(298,667,o),
(367,667,cs),
(460,667,o),
(550,662,o),
(685,633,cs),
(691,631,o),
(694,628,o),
(694,622,cs),
(694,200,ls),
(694,58,o),
(720,0,o),
(804,0,cs),
(874,0,o),
(910,33,o),
(952,117,cs),
(955,123,o),
(953,127,o),
(948,130,cs),
(909,150,ls),
(903,153,o),
(899,151,o),
(896,145,cs),
(872,96,o),
(851,68,o),
(807,68,cs),
(773,68,o),
(762,104,o),
(762,199,cs),
(764,678,ls),
(764,684,o),
(761,688,o),
(755,689,cs),
(593,727,o),
(497,736,o),
(359,735,cs),
(255,734,o),
(207,659,o),
(207,581,cs)
);
}
);
width = 1000;
}
);
},
{
glyphname = f_ext_left.alt;
lastChange = "2021-06-24 15:58:25 +0000";
layers = (
{
layerId = m01;
shapes = (
{
closed = 1;
nodes = (
(-20,430,l),
(198,430,ls),
(204,430,o),
(208,427,o),
(208,420,cs),
(209,-3,ls),
(209,-84,o),
(193,-132,o),
(168,-132,cs),
(139,-132,o),
(118,-115,o),
(88,-58,cs),
(85,-51,o),
(80,-49,o),
(74,-53,cs),
(35,-76,ls),
(30,-79,o),
(29,-84,o),
(32,-90,cs),
(76,-174,o),
(101,-202,o),
(166,-202,cs),
(235,-202,o),
(279,-142,o),
(279,-1,cs),
(278,420,ls),
(278,426,o),
(282,430,o),
(288,430,cs),
(415,430,ls),
(421,430,o),
(425,434,o),
(425,440,cs),
(425,490,ls),
(425,496,o),
(421,500,o),
(415,500,cs),
(287,500,ls),
(281,500,o),
(277,503,o),
(277,510,cs),
(277,569,ls),
(277,616,o),
(295,667,o),
(342,667,cs),
(361,667,o),
(378,659,o),
(391,646,cs),
(395,642,o),
(400,641,o),
(405,645,cs),
(443,676,ls),
(448,680,o),
(449,685,o),
(445,690,cs),
(420,718,o),
(384,734,o),
(342,735,cs),
(253,737,o),
(207,659,o),
(207,581,cs),
(207,510,ls),
(207,504,o),
(203,500,o),
(197,500,cs),
(-20,500,l)
);
}
);
width = 500;
}
);
},
{
glyphname = f_ext_leftright.alt;
lastChange = "2021-06-24 15:58:40 +0000";
layers = (
{
layerId = m01;
shapes = (
{
closed = 1;
nodes = (
(-20,430,l),
(198,430,ls),
(204,430,o),
(208,427,o),
(208,420,cs),
(209,-3,ls),
(209,-84,o),
(193,-132,o),
(168,-132,cs),
(137,-132,o),
(116,-113,o),
(83,-48,c),
(35,-76,ls),
(30,-79,o),
(29,-84,o),
(32,-90,cs),
(76,-174,o),
(101,-202,o),
(166,-202,cs),
(235,-202,o),
(279,-142,o),
(279,-1,cs),
(278,420,ls),
(278,426,o),
(282,430,o),
(288,430,cs),
(520,430,l),
(520,500,l),
(287,500,ls),
(281,500,o),
(277,503,o),
(277,510,cs),
(277,569,ls),
(277,616,o),
(295,667,o),
(342,667,cs),
(361,667,o),
(378,659,o),
(391,646,cs),
(395,642,o),
(400,641,o),
(405,645,cs),
(443,676,ls),
(448,680,o),
(449,685,o),
(445,690,cs),
(420,718,o),
(384,734,o),
(342,735,cs),
(253,737,o),
(207,659,o),
(207,581,cs),
(207,510,ls),
(207,504,o),
(203,500,o),
(197,500,cs),
(-20,500,l)
);
}
);
width = 500;
}
);
},
{
glyphname = f_ext_right.alt;
lastChange = "2021-06-24 15:58:58 +0000";
layers = (
{
layerId = m01;
shapes = (
{
closed = 1;
nodes = (
(80,500,ls),
(74,500,o),
(70,496,o),
(70,490,cs),
(70,440,ls),
(70,434,o),
(74,430,o),
(80,430,cs),
(198,430,ls),
(204,430,o),
(208,427,o),
(208,420,cs),
(209,-3,ls),
(209,-84,o),
(193,-132,o),
(168,-132,cs),
(139,-132,o),
(118,-115,o),
(88,-58,cs),
(85,-51,o),
(80,-49,o),
(74,-53,cs),
(35,-76,ls),
(30,-79,o),
(29,-84,o),
(32,-90,cs),
(76,-174,o),
(101,-202,o),
(166,-202,cs),
(235,-202,o),
(279,-142,o),
(279,-1,cs),
(278,420,ls),
(278,426,o),
(282,430,o),
(288,430,cs),
(520,430,l),
(520,500,l),
(287,500,ls),
(281,500,o),
(277,503,o),
(277,510,cs),
(277,569,ls),
(277,616,o),
(295,667,o),
(342,667,cs),
(361,667,o),
(378,659,o),
(391,646,cs),
(395,642,o),
(400,641,o),
(405,645,cs),
(443,676,ls),
(448,680,o),
(449,685,o),
(445,690,cs),
(420,718,o),
(384,734,o),
(342,735,cs),
(253,737,o),
(207,659,o),
(207,581,cs),
(207,510,ls),
(207,504,o),
(203,500,o),
(197,500,cs)
);
}
);
width = 500;
}
);
},
{
glyphname = f_stroke_left.alt;
lastChange = "2021-06-24 15:59:50 +0000";
layers = (
{
layerId = m01;
shapes = (
{
closed = 1;
nodes = (
(-47,405,o),
(-44,400,o),
(-39,397,cs),
(4,375,ls),
(9,372,o),
(15,374,o),
(18,379,cs),
(41,417,o),
(69,430,o),
(173,430,cs),
(198,430,ls),
(204,430,o),
(208,427,o),
(208,420,cs),
(209,-3,ls),
(209,-84,o),
(193,-132,o),
(168,-132,cs),
(139,-132,o),
(118,-115,o),
(88,-58,cs),
(85,-51,o),
(80,-49,o),
(74,-53,cs),
(35,-76,ls),
(30,-79,o),
(29,-84,o),
(32,-90,cs),
(76,-174,o),
(101,-202,o),
(166,-202,cs),
(235,-202,o),
(279,-142,o),
(279,-1,cs),
(278,420,ls),
(278,426,o),
(282,430,o),
(288,430,cs),
(431,430,ls),
(437,430,o),
(441,434,o),
(441,440,cs),
(441,490,ls),
(441,496,o),
(437,500,o),
(431,500,cs),
(287,500,ls),
(281,500,o),
(277,503,o),
(277,510,cs),
(277,569,ls),
(277,616,o),
(295,667,o),
(342,667,cs),
(361,667,o),
(379,659,o),
(391,646,cs),
(395,642,o),
(400,641,o),
(405,645,cs),
(443,676,ls),
(448,680,o),
(449,685,o),
(445,690,cs),
(420,718,o),
(384,734,o),
(342,735,cs),
(253,737,o),
(207,659,o),
(207,581,cs),
(207,510,ls),
(207,504,o),
(203,500,o),
(197,500,cs),
(173,500,ls),
(46,500,o),
(-11,470,o),
(-43,411,cs)
);
}
);
width = 500;
}
);
},
{
glyphname = f_stroke_left_ext_right.alt;
lastChange = "2021-06-24 15:59:33 +0000";
layers = (
{
layerId = m01;
shapes = (
{
closed = 1;
nodes = (
(4,375,ls),
(9,372,o),
(15,374,o),
(18,379,cs),
(41,417,o),
(69,430,o),
(173,430,cs),
(198,430,ls),
(204,430,o),
(208,427,o),
(208,420,cs),
(209,-3,ls),
(209,-84,o),
(193,-132,o),
(168,-132,cs),
(139,-132,o),
(118,-115,o),
(88,-58,cs),
(85,-51,o),
(80,-49,o),
(74,-53,cs),
(35,-76,ls),
(30,-79,o),
(29,-84,o),
(32,-90,cs),
(76,-174,o),
(101,-202,o),
(166,-202,cs),
(235,-202,o),
(279,-142,o),
(279,-1,cs),
(278,420,ls),
(278,426,o),
(282,430,o),
(288,430,cs),
(520,430,l),
(520,500,l),
(287,500,ls),
(281,500,o),
(277,503,o),
(277,510,cs),
(277,569,ls),
(277,616,o),
(295,667,o),
(342,667,cs),
(361,667,o),
(378,659,o),
(391,646,cs),
(395,642,o),
(400,641,o),
(405,645,cs),
(443,676,ls),
(448,680,o),
(449,685,o),
(445,690,cs),
(420,718,o),
(384,734,o),
(342,735,cs),
(253,737,o),
(207,659,o),
(207,581,cs),
(207,510,ls),
(207,504,o),
(203,500,o),
(197,500,cs),
(173,500,ls),
(46,500,o),
(-11,470,o),
(-43,411,cs),
(-47,405,o),
(-44,400,o),
(-39,397,cs)
);
}
);
width = 500;
}
);
},
{
glyphname = i_ext_left.alt;
lastChange = "2021-06-22 11:25:02 +0000";
layers = (
{
layerId = m01;
shapes = (
{
pos = (-10,0);
ref = i;
},
{
closed = 1;
nodes = (
(-20,430,l),
(266,430,l),
(266,500,l),
(-20,500,l)
);
}
);
width = 500;
}
);
},
{
glyphname = j_ext_left.alt;
lastChange = "2021-06-22 11:25:24 +0000";
layers = (
{
layerId = m01;
shapes = (
{
pos = (4,0);
ref = j;
},
{
closed = 1;
nodes = (
(-20,430,l),
(266,430,l),
(266,500,l),
(-20,500,l)
);
}
);
width = 500;
}
);
},
{
glyphname = m_ext_left.alt;
lastChange = "2021-06-24 16:00:15 +0000";
layers = (
{
layerId = m01;
shapes = (
{
closed = 1;
nodes = (
(168,388,o),
(188,441,o),
(207,441,cs),
(228,441,o),
(245,388,o),
(245,327,cs),
(245,247,ls),
(245,241,o),
(249,237,o),
(255,237,cs),
(294,237,ls),
(300,237,o),
(304,241,o),
(304,247,cs),
(304,327,ls),
(304,388,o),
(323,440,o),
(343,440,cs),
(361,440,o),
(377,388,o),
(377,327,cs),
(377,9,ls),
(377,3,o),
(381,-1,o),
(387,-1,cs),
(451,-1,ls),
(457,-1,o),
(460,3,o),
(460,9,cs),
(458,59,ls),
(458,66,o),
(456,69,o),
(453,69,cs),
(450,69,o),
(447,73,o),
(447,79,cs),
(447,327,ls),
(447,426,o),
(399,505,o),
(343,505,cs),
(319,505,o),
(299,492,o),
(283,470,cs),
(278,464,o),
(274,464,o),
(270,470,cs),
(254,492,o),
(233,505,o),
(207,505,cs),
(181,505,o),
(158,489,o),
(142,453,cs),
(139,447,o),
(136,446,o),
(133,452,cs),
(119,474,o),
(86,500,o),
(36,500,cs),
(-20,500,l),
(-20,430,l),
(36,430,ls),
(78,430,o),
(100,372,o),
(100,318,cs),
(101,79,ls),
(101,73,o),
(99,69,o),
(96,69,cs),
(93,69,o),
(90,66,o),
(90,59,cs),
(87,9,ls),
(87,2,o),
(90,-1,o),
(96,-1,cs),
(166,-1,l),
(168,-1,ls),
(169,-1,o),
(170,3,o),
(170,9,cs),
(168,327,ls)
);
}
);
width = 500;
}
);
},
{
glyphname = n_ext_left.alt;
lastChange = "2021-06-24 16:00:23 +0000";
layers = (
{
layerId = m01;
shapes = (
{
closed = 1;
nodes = (
(118,478,o),
(87,500,o),
(36,500,cs),
(-20,500,l),
(-20,430,l),
(36,430,ls),
(77.276,430,o),
(105.031,375.913,o),
(105.975,322.793,cs),
(104,78,ls),
(104,71,o),
(102,68,o),
(99,68,cs),
(96,68,o),
(93,64,o),
(93,58,cs),
(93,8,ls),
(93,2,o),
(97,-2,o),
(103,-2,cs),
(163,-2,ls),
(169,-2,o),
(173,1,o),
(173,8,cs),
(175,68,l),
(175,328,ls),
(175,389,o),
(214,443,o),
(274,443,cs),
(324,443,o),
(363,389,o),
(363,328,cs),
(363,68,l),
(365,8,ls),
(365,1,o),
(369,-2,o),
(375,-2,cs),
(437,-2,ls),
(443,-2,o),
(446,2,o),
(446,8,cs),
(444,58,ls),
(444,65,o),
(442,68,o),
(439,68,cs),
(436,68,o),
(433,72,o),
(433,78,cs),
(433,331,ls),
(433,430,o),
(367,508,o),
(274,508,cs),
(221,508,o),
(179,488,o),
(147,454,cs),
(142,449,o),
(137,450,o),
(133,455,cs)
);
}
);
width = 500;
}
);
},
{
glyphname = r_ext_left.alt;
lastChange = "2021-06-24 16:00:33 +0000";
layers = (
{
layerId = m01;
shapes = (
{
closed = 1;
nodes = (
(461,446,ls),
(464,451,o),
(464,456,o),
(459,460,cs),
(424,485,o),
(374,500,o),
(321,500,cs),
(267,500,o),
(221,478,o),
(189,449,cs),
(184,445,o),
(180,445,o),
(176,450,cs),
(156,474,o),
(119,500,o),
(69,500,cs),
(-20,500,l),
(-20,430,l),
(69,430,ls),
(110,430,o),
(138,376,o),
(139,323,cs),
(139,79,ls),
(139,73,o),
(137,69,o),
(134,69,cs),
(131,69,o),
(129,66,o),
(129,59,cs),
(126,9,ls),
(126,3,o),
(129,-1,o),
(135,-1,cs),
(213,-1,ls),
(219,-1,o),
(222,3,o),
(222,9,cs),
(220,59,ls),
(220,66,o),
(218,69,o),
(215,69,cs),
(212,69,o),
(209,73,o),
(209,79,cs),
(209,261,ls),
(209,385,o),
(241,435,o),
(324,435,cs),
(341,435,o),
(355,433,o),
(366,430,cs),
(372,429,o),
(374,425,o),
(374,419,cs),
(374,414,ls),
(374,409,o),
(376,404,o),
(381,402,cs),
(414,388,ls),
(419,386,o),
(424,388,o),
(427,393,cs)
);
}
);
width = 500;
}
);
},
{
glyphname = t_ext_left.alt;
lastChange = "2021-06-24 16:00:51 +0000";
layers = (
{
layerId = m01;
shapes = (
{
ref = t;
},
{
closed = 1;
nodes = (
(-20,430,l),
(371,430,l),
(371,500,l),
(-20,500,l)
);
}
);
width = 500;
}
);
},
{
glyphname = t_ext_leftright.alt;
lastChange = "2021-06-22 12:23:43 +0000";
layers = (
{
layerId = m01;
shapes = (
{
ref = t;
},
{
closed = 1;
nodes = (
(-20,430,l),
(520,430,l),
(520,500,l),
(-20,500,l)
);
}
);
width = 500;
}
);
},
{
glyphname = t_ext_right.alt;
lastChange = "2021-06-24 16:01:15 +0000";
layers = (
{
layerId = m01;
shapes = (
{
ref = t;
},
{
closed = 1;
nodes = (
(210,430,l),
(520,430,l),
(520,500,l),
(210,500,l)
);
}
);
width = 500;
}
);
},
{
glyphname = einferior;
lastChange = "2021-06-24 17:16:31 +0000";
layers = (
{
hints = (
{
horizontal = 1;
origin = (0,11);
target = (0,5);
type = Stem;
}
);
layerId = m01;
shapes = (
{
closed = 1;
nodes = (
(380,31,o),
(388,91,o),
(388,138,cs),
(388,197,o),
(333,241,o),
(254,241,cs),
(164,241,o),
(113,171,o),
(113,60,cs),
(113,-59,o),
(148,-121,o),
(254,-121,cs),
(319,-121,o),
(372,-74,o),
(385,-12,cs),
(386,-7,o),
(385,-4,o),
(379,-4,cs),
(327,-4,ls),
(322,-4,o),
(319,-6,o),
(318,-10,cs),
(313,-33,o),
(290,-58,o),
(256,-58,cs),
(201,-58,o),
(179,-27,o),
(176,20,cs),
(176,25,o),
(179,28,o),
(184,28,cs)
);
},
{
closed = 1;
nodes = (
(175,151,o),
(206,180,o),
(254,180,cs),
(294,180,o),
(327,170,o),
(327,138,cs),
(327,99,o),
(287,91,o),
(179,90,cs),
(174,90,o),
(171,92,o),
(171,97,cs)
);
}
);
width = 500;
}
);
unicode = 8337;
},
{
glyphname = Gamma;
lastChange = "2021-06-24 16:01:44 +0000";
layers = (
{
layerId = m01;
shapes = (
{
closed = 1;
nodes = (
(226,59,ls),
(226,65,o),
(222,69,o),
(216,69,cs),
(199,69,ls),
(193,69,o),
(189,72,o),
(189,79,cs),
(185,621,ls),
(185,627,o),
(189,631,o),
(195,631,cs),
(371,632,ls),
(377,632,o),
(381,628,o),
(381,622,cs),
(381,599,ls),
(381,593,o),
(385,589,o),
(391,589,cs),
(442,589,ls),
(448,589,o),
(452,593,o),
(452,599,cs),
(451,690,ls),
(451,697,o),
(447,700,o),
(441,700,cs),
(105,700,ls),
(99,700,o),
(95,696,o),
(95,690,cs),
(95,640,ls),
(95,634,o),
(99,630,o),
(105,630,cs),
(111,630,o),
(115,627,o),
(115,620,cs),
(119,79,ls),
(119,73,o),
(115,69,o),
(109,69,cs),
(105,69,ls),
(99,69,o),
(95,65,o),
(95,59,cs),
(95,9,ls),
(95,3,o),
(99,-1,o),
(105,-1,cs),
(216,-1,ls),
(222,-1,o),
(226,3,o),
(226,9,cs)
);
}
);
userData = {
com.schriftgestaltung.Glyphs.lastChange = "2021-06-18 05:28:15 +0000";
};
width = 500;
}
);
unicode = 915;
},
{
glyphname = Delta;
lastChange = "2021-06-24 16:02:15 +0000";
layers = (
{
layerId = m01;
shapes = (
{
closed = 1;
nodes = (
(370,81,ls),
(372,74,o),
(368,70,o),
(361,70,cs),
(139,70,ls),
(132,70,o),
(128,74,o),
(130,81,cs),
(243,549,ls),
(245,558,o),
(255,558,o),
(257,549,cs)
);
},
{
closed = 1;
nodes = (
(50,76,ls),
(49,71,o),
(48,68,o),
(48,64,cs),
(48,10,ls),
(48,4,o),
(52,0,o),
(58,0,cs),
(442,0,ls),
(448,0,o),
(452,4,o),
(452,10,cs),
(452,64,ls),
(452,68,o),
(451,71,o),
(450,76,cs),
(287,691,ls),
(286,696,o),
(282,700,o),
(276,700,cs),
(224,700,ls),
(218,700,o),
(214,696,o),
(213,691,cs)
);
}
);
userData = {
com.schriftgestaltung.Glyphs.lastChange = "2021-06-18 05:30:51 +0000";
};
width = 500;
}
);
unicode = 916;
},
{
glyphname = Theta;
lastChange = "2021-06-24 16:03:05 +0000";
layers = (
{
layerId = m01;
shapes = (
{
closed = 1;
nodes = (
(401,704,o),
(447,575,o),
(447,350,cs),
(447,150,o),
(412,-4,o),
(245,-4,cs),
(78,-4,o),
(43,150,o),
(43,350,cs),
(43,575,o),
(89,704,o),
(245,704,cs)
);
},
{
closed = 1;
nodes = (
(113,137,o),
(164,68,o),
(245,67,cs),
(326,68,o),
(378,137,o),
(378,350,cs),
(378,568,o),
(323,634,o),
(245,634,cs),
(164,634,o),
(113,568,o),
(113,350,cs)
);
},
{
closed = 1;
nodes = (
(172,317,ls),
(172,310,o),
(176,307,o),
(183,309,cs),
(190,310,o),
(197,311,o),
(204,311,cs),
(296,311,ls),
(303,311,o),
(310,310,o),
(317,309,cs),
(324,307,o),
(328,310,o),
(328,317,cs),
(328,376,ls),
(328,383,o),
(324,386,o),
(317,384,cs),
(310,383,o),
(303,382,o),
(296,382,cs),
(204,382,ls),
(197,382,o),
(190,383,o),
(183,384,cs),
(176,386,o),
(172,383,o),
(172,376,cs)
);
}
);
userData = {
com.schriftgestaltung.Glyphs.lastChange = "2021-06-18 05:32:42 +0000";
};
width = 500;
}
);
unicode = 920;
},
{
glyphname = Lambda;
lastChange = "2021-06-24 16:02:47 +0000";
layers = (
{
layerId = m01;
shapes = (
{
closed = 1;
nodes = (
(367,81,ls),
(368,74,o),
(366,70,o),
(363,70,cs),
(359,70,o),
(356,66,o),
(356,60,cs),
(356,10,ls),
(356,4,o),
(360,0,o),
(366,0,cs),
(454,0,ls),
(460,0,o),
(464,4,o),
(464,10,cs),
(462,60,ls),
(462,67,o),
(458,70,o),
(452,70,cs),
(451,70,ls),
(445,70,o),
(441,73,o),
(440,79,cs),
(303,709,ls),
(302,715,o),
(298,718,o),
(292,718,cs),
(207,718,ls),
(201,718,o),
(197,715,o),
(196,709,cs),
(60,79,ls),
(59,73,o),
(55,70,o),
(49,70,cs),
(48,70,ls),
(42,70,o),
(38,67,o),
(38,60,cs),
(36,10,ls),
(36,4,o),
(40,0,o),
(46,0,cs),
(133,0,ls),
(139,0,o),
(143,4,o),
(143,10,cs),
(142,60,ls),
(142,67,o),
(139,70,o),
(134,70,cs),
(129,70,o),
(127,75,o),
(128,81,cs),
(244,608,ls),
(246,617,o),
(254,617,o),
(256,608,cs)
);
}
);
userData = {
com.schriftgestaltung.Glyphs.lastChange = "2021-06-18 05:35:31 +0000";
};
width = 500;
}
);
unicode = 923;
},
{
glyphname = Xi;
lastChange = "2021-06-24 16:40:18 +0000";
layers = (
{
layerId = m01;
shapes = (
{
closed = 1;
nodes = (
(103,320,ls),
(103,313,o),
(107,310,o),
(114,312,cs),
(121,313,o),
(128,314,o),
(135,314,cs),
(365,314,ls),
(372,314,o),
(379,313,o),
(386,312,cs),
(393,310,o),
(397,313,o),
(397,320,cs),
(397,379,ls),
(397,386,o),
(393,389,o),
(386,387,cs),
(379,386,o),
(372,385,o),
(365,385,cs),
(135,385,ls),
(128,385,o),
(121,386,o),
(114,387,cs),
(107,389,o),
(103,386,o),
(103,379,cs)
);
},
{
closed = 1;
nodes = (
(54,625,ls),
(54,618,o),
(58,615,o),
(65,617,cs),
(79,620,o),
(98,624,o),
(106,624,cs),
(394,624,ls),
(402,624,o),
(421,620,o),
(435,617,cs),
(442,615,o),
(446,618,o),
(446,625,cs),
(446,686,ls),
(446,692,o),
(442,696,o),
(436,696,cs),
(64,696,ls),
(58,696,o),
(54,692,o),
(54,686,cs)
);
},
{
closed = 1;
nodes = (
(55,12,ls),
(55,6,o),
(59,2,o),
(65,2,cs),
(436,2,ls),
(442,2,o),
(446,6,o),
(446,12,cs),
(446,73,ls),
(446,80,o),
(442,83,o),
(435,81,cs),
(421,78,o),
(402,74,o),
(394,74,cs),
(107,74,ls),
(99,74,o),
(80,78,o),
(66,81,cs),
(59,83,o),
(55,80,o),
(55,73,cs)
);
}
);
userData = {
com.schriftgestaltung.Glyphs.lastChange = "2021-06-18 06:06:12 +0000";
};
width = 500;
}
);
unicode = 926;
},
{
glyphname = Pi;
lastChange = "2021-06-24 16:42:05 +0000";
layers = (
{
layerId = m01;
shapes = (
{
closed = 1;
nodes = (
(178,54,ls),
(178,60,o),
(174,64,o),
(168,64,cs),
(166,64,ls),
(160,64,o),
(156,68,o),
(156,74,cs),
(156,621,ls),
(156,627,o),
(160,631,o),
(166,631,cs),
(334,631,ls),
(340,631,o),
(344,627,o),
(344,621,cs),
(344,74,ls),
(344,68,o),
(340,64,o),
(334,64,cs),
(332,64,ls),
(326,64,o),
(322,60,o),
(322,54,cs),
(322,4,ls),
(322,-2,o),
(326,-6,o),
(332,-6,cs),
(423,-6,ls),
(429,-6,o),
(433,-2,o),
(433,4,cs),
(433,54,ls),
(433,60,o),
(429,64,o),
(424,64,cs),
(418,64,o),
(414,68,o),
(414,74,cs),
(414,620,ls),
(414,626,o),
(418,630,o),
(424,630,cs),
(433,630,ls),
(439,630,o),
(443,634,o),
(443,640,cs),
(443,690,ls),
(443,696,o),
(439,700,o),
(433,700,cs),
(67,700,ls),
(61,700,o),
(57,696,o),
(57,690,cs),
(57,640,ls),
(57,634,o),
(61,630,o),
(67,630,cs),
(76,630,ls),
(82,630,o),
(86,626,o),
(86,620,cs),
(86,74,ls),
(86,68,o),
(82,64,o),
(77,64,cs),
(71,64,o),
(67,60,o),
(67,54,cs),
(67,4,ls),
(67,-2,o),
(71,-6,o),
(77,-6,cs),
(168,-6,ls),
(174,-6,o),
(178,-2,o),
(178,4,cs)
);
}
);
userData = {
com.schriftgestaltung.Glyphs.lastChange = "2021-06-18 13:54:34 +0000";
};
width = 500;
}
);
unicode = 928;
},
{
glyphname = Sigma;
lastChange = "2021-06-24 16:03:29 +0000";
layers = (
{
layerId = m01;
shapes = (
{
closed = 1;
nodes = (
(443,69,l),
(441,136,ls),
(441,142,o),
(437,146,o),
(431,146,cs),
(381,146,ls),
(375,146,o),
(371,142,o),
(371,136,cs),
(373,69,l),
(155,70,l),
(269,318,ls),
(271,323,o),
(272,326,o),
(272,330,cs),
(272,380,ls),
(272,384,o),
(271,387,o),
(269,392,cs),
(155,631,l),
(373,631,l),
(371,575,ls),
(371,569,o),
(375,565,o),
(381,565,cs),
(431,565,ls),
(437,565,o),
(441,569,o),
(441,575,cs),
(443,631,l),
(442,690,ls),
(442,697,o),
(438,700,o),
(432,700,cs),
(78,701,ls),
(72,701,o),
(68,697,o),
(68,691,cs),
(68,637,ls),
(68,633,o),
(69,630,o),
(71,625,cs),
(199,354,l),
(70,76,ls),
(68,71,o),
(67,68,o),
(67,64,cs),
(66,10,ls),
(66,4,o),
(70,0,o),
(76,0,cs),
(432,0,ls),
(438,0,o),
(442,3,o),
(442,10,cs)
);
}
);
userData = {
com.schriftgestaltung.Glyphs.lastChange = "2021-06-18 04:25:43 +0000";
};
width = 500;
}
);
unicode = 931;
},
{
glyphname = Upsilon;
lastChange = "2021-06-24 16:46:32 +0000";
layers = (
{
layerId = m01;
shapes = (
{
closed = 1;
nodes = (
(302,0,ls),
(308,0,o),
(312,4,o),
(312,10,cs),
(312,60,ls),
(312,66,o),
(308,70,o),
(302,70,cs),
(295,70,ls),
(289,70,o),
(285,74,o),
(285,80,cs),
(287,218,ls),
(289,360,o),
(363,630,o),
(446,630,cs),
(459,630,ls),
(465,630,o),
(469,633,o),
(469,640,cs),
(470,690,ls),
(470,696,o),
(466,700,o),
(460,700,cs),
(442,700,ls),
(317,700,o),
(260,492,o),
(250,387,c),
(246,492,o),
(183,700,o),
(58,700,cs),
(40,700,ls),
(34,700,o),
(30,696,o),
(30,690,cs),
(31,640,ls),
(31,633,o),
(35,630,o),
(41,630,cs),
(54,630,ls),
(137,630,o),
(213,360,o),
(213,218,cs),
(213,80,ls),
(213,74,o),
(209,70,o),
(203,70,cs),
(198,70,ls),
(192,70,o),
(188,66,o),
(188,60,cs),
(188,10,ls),
(188,4,o),
(192,0,o),
(198,0,cs)
);
}
);
userData = {
com.schriftgestaltung.Glyphs.lastChange = "2021-06-18 06:09:18 +0000";
};
width = 500;
}
);
unicode = 933;
},
{
glyphname = Phi;
lastChange = "2021-06-25 04:12:17 +0000";
layers = (
{
layerId = m01;
shapes = (
{
closed = 1;
nodes = (
(115,701,ls),
(109,701,o),
(105,697,o),
(105,691,cs),
(105,642,ls),
(105,636,o),
(109,632,o),
(115,632,cs),
(205,632,ls),
(211,632,o),
(215,628,o),
(215,622,cs),
(215,580,ls),
(215,574,o),
(212,570,o),
(206,569,cs),
(109,560,o),
(37,491,o),
(37,350,cs),
(37,220,o),
(106,142,o),
(206,131,cs),
(212,130,o),
(215,127,o),
(215,121,cs),
(215,79,ls),
(215,73,o),
(211,69,o),
(205,69,cs),
(115,69,ls),
(109,69,o),
(105,65,o),
(105,59,cs),
(105,10,ls),
(105,4,o),
(109,0,o),
(115,0,cs),
(385,-1,ls),
(391,-1,o),
(395,3,o),
(395,9,cs),
(395,59,ls),
(395,65,o),
(391,69,o),
(385,69,cs),
(295,69,ls),
(289,69,o),
(285,73,o),
(285,79,cs),
(285,121,ls),
(285,127,o),
(288,130,o),
(294,131,cs),
(394,142,o),
(463,220,o),
(463,349,cs),
(463,491,o),
(391,555,o),
(294,569,cs),
(288,570,o),
(285,574,o),
(285,580,cs),
(285,621,ls),
(285,627,o),
(289,631,o),
(295,631,cs),
(385,631,ls),
(391,631,o),
(395,635,o),
(395,641,cs),
(395,690,ls),
(395,696,o),
(391,700,o),
(385,700,cs)
);
},
{
closed = 1;
nodes = (
(107,441,o),
(159,490,o),
(208,499,cs),
(212,500,o),
(215,496,o),
(215,489,cs),
(215,210,ls),
(215,203,o),
(211,200,o),
(204,201,cs),
(156,209,o),
(107,262,o),
(107,350,cs)
);
},
{
closed = 1;
nodes = (
(285,490,ls),
(285,497,o),
(289,499,o),
(296,498,cs),
(344,489,o),
(393,438,o),
(393,349,cs),
(393,263,o),
(344,210,o),
(296,201,cs),
(289,200,o),
(285,203,o),
(285,210,cs)
);
}
);
userData = {
com.schriftgestaltung.Glyphs.lastChange = "2021-06-18 06:11:51 +0000";
};
width = 500;
}
);
unicode = 934;
},
{
glyphname = Psi;
lastChange = "2021-06-25 04:22:29 +0000";
layers = (
{
layerId = m01;
shapes = (
{
closed = 1;
nodes = (
(190,643,ls),
(190,637,o),
(194,633,o),
(200,633,cs),
(205,633,ls),
(211,633,o),
(215,629,o),
(215,623,cs),
(215,279,ls),
(215,271,o),
(210,268,o),
(204,271,cs),
(129,307,o),
(122,435,o),
(122,693,cs),
(122,699,o),
(118,703,o),
(112,703,cs),
(40,703,ls),
(34,703,o),
(30,699,o),
(30,693,cs),
(30,643,ls),
(30,637,o),
(34,633,o),
(40,633,cs),
(42,633,ls),
(48,633,o),
(52,629,o),
(52,623,cs),
(52,416,o),
(64,218,o),
(206,187,c),
(212,185,o),
(215,182,o),
(215,176,cs),
(215,79,ls),
(215,73,o),
(211,69,o),
(205,69,cs),
(115,69,ls),
(109,69,o),
(105,65,o),
(105,59,cs),
(105,10,ls),
(105,4,o),
(109,0,o),
(115,0,cs),
(385,-1,ls),
(391,-1,o),
(395,3,o),
(395,9,cs),
(395,59,ls),
(395,65,o),
(391,69,o),
(385,69,cs),
(295,69,ls),
(289,69,o),
(285,73,o),
(285,79,cs),
(285,176,ls),
(285,182,o),
(288,186,o),
(294,187,cs),
(429,220,o),
(447,416,o),
(448,623,cs),
(448,629,o),
(452,633,o),
(458,633,cs),
(460,633,ls),
(466,633,o),
(470,637,o),
(470,643,cs),
(470,693,ls),
(470,699,o),
(466,703,o),
(460,703,cs),
(388,703,ls),
(382,703,o),
(378,699,o),
(378,693,cs),
(378,439,o),
(364,306,o),
(297,272,cs),
(290,268,o),
(285,273,o),
(285,280,cs),
(285,623,ls),
(285,629,o),
(289,633,o),
(295,633,cs),
(300,633,ls),
(306,633,o),
(310,637,o),
(310,643,cs),
(310,693,ls),
(310,699,o),
(306,703,o),
(300,703,cs),
(200,703,ls),
(194,703,o),
(190,699,o),
(190,693,cs)
);
}
);
userData = {
com.schriftgestaltung.Glyphs.lastChange = "2021-06-18 06:17:03 +0000";
};
width = 500;
}
);
unicode = 936;
},
{
glyphname = Omega;
lastChange = "2021-06-24 16:04:56 +0000";
layers = (
{
layerId = m01;
shapes = (
{
closed = 1;
nodes = (
(290,5,ls),
(290,-1,o),
(294,-5,o),
(300,-5,cs),
(460,-5,ls),
(466,-5,o),
(470,-1,o),
(470,5,cs),
(469,55,ls),
(469,62,o),
(465,65,o),
(459,65,cs),
(378,65,ls),
(369,65,o),
(368,68,o),
(375,74,cs),
(419,105,o),
(447,197,o),
(447,390,cs),
(447,583,o),
(401,706,o),
(245,706,cs),
(89,706,o),
(43,583,o),
(43,390,cs),
(43,199,o),
(92,107,o),
(135,75,cs),
(142,69,o),
(140,65,o),
(131,65,cs),
(44,65,ls),
(38,65,o),
(34,61,o),
(34,55,cs),
(34,5,ls),
(34,-1,o),
(38,-5,o),
(44,-5,cs),
(199,-5,ls),
(205,-5,o),
(209,-1,o),
(209,5,cs),
(209,108,ls),
(209,113,o),
(207,117,o),
(202,119,cs),
(142,150,o),
(113,215,o),
(113,390,cs),
(113,576,o),
(164,636,o),
(245,636,cs),
(323,636,o),
(378,576,o),
(378,390,cs),
(378,214,o),
(360,147,o),
(298,119,cs),
(292,117,o),
(290,113,o),
(290,108,cs)
);
}
);
userData = {
com.schriftgestaltung.Glyphs.lastChange = "2021-06-18 06:27:32 +0000";
};
width = 500;
}
);
unicode = 937;
},
{
glyphname = alpha;
lastChange = "2021-06-24 16:49:53 +0000";
layers = (
{
layerId = m01;
shapes = (
{
closed = 1;
nodes = (
(457,-16,ls),
(464,-16,o),
(467,-11,o),
(464,-4,cs),
(365,245,l),
(464,494,ls),
(467,501,o),
(464,506,o),
(457,506,cs),
(411,506,ls),
(406,506,o),
(392,504,o),
(390,498,cs),
(329,344,l),
(309,394,ls),
(292,437,o),
(245,486,o),
(183,486,cs),
(65,486,o),
(25,367,o),
(25,245,cs),
(25,123,o),
(65,4,o),
(183,4,cs),
(245,4,o),
(292,53,o),
(329,147,c),
(390,-8,ls),
(392,-14,o),
(406,-16,o),
(411,-16,cs)
);
},
{
closed = 1;
nodes = (
(95,317,o),
(103,416,o),
(183,416,cs),
(219,416,o),
(256,365,o),
(291,245,c),
(256,125,o),
(219,74,o),
(183,74,cs),
(103,74,o),
(95,173,o),
(95,245,cs)
);
}
);
userData = {
com.schriftgestaltung.Glyphs.lastChange = "2021-06-18 04:35:46 +0000";
};
width = 500;
}
);
unicode = 945;
},
{
glyphname = beta;
lastChange = "2021-06-24 16:54:22 +0000";
layers = (
{
layerId = m01;
shapes = (
{
closed = 1;
nodes = (
(69,-198,ls),
(69,-204,o),
(73,-207,o),
(79,-207,cs),
(159,-207,o),
(175,-146,o),
(175,54,c),
(198,19,o),
(247,5,o),
(276,5,cs),
(371,5,o),
(449,69,o),
(449,195,cs),
(449,282,o),
(401,345,o),
(345,374,c),
(391,410,o),
(425,465,o),
(425,518,cs),
(425,619,o),
(364,687,o),
(261,689,cs),
(157,691,o),
(105,598,o),
(105,460,cs),
(105,23,ls),
(105,-42,o),
(102,-135,o),
(77,-135,cs),
(72,-135,o),
(69,-141,o),
(69,-146,cs)
);
},
{
closed = 1;
nodes = (
(175,460,ls),
(175,554,o),
(198,619,o),
(261,619,cs),
(318,619,o),
(356,589,o),
(356,518,cs),
(356,461,o),
(299,402,o),
(225,402,cs),
(217,402,ls),
(212,402,o),
(208,398,o),
(208,392,cs),
(208,347,ls),
(208,341,o),
(212,337,o),
(217,337,cs),
(229,337,ls),
(304,337,o),
(377,295,o),
(377,195,cs),
(377,112,o),
(338,75,o),
(276,75,cs),
(236,75,o),
(175,118,o),
(175,188,cs)
);
}
);
userData = {
com.schriftgestaltung.Glyphs.lastChange = "2021-06-18 05:26:11 +0000";
};
width = 500;
}
);
unicode = 946;
},
{
glyphname = gamma;
lastChange = "2021-06-24 16:54:53 +0000";
layers = (
{
layerId = m01;
shapes = (
{
closed = 1;
nodes = (
(315,-142,ls),
(315,-136,o),
(311,-132,o),
(305,-132,cs),
(303,-132,ls),
(296,-132,o),
(293,-128,o),
(294,-121,cs),
(303,-68,o),
(307,-12,o),
(306,41,cs),
(306,46,o),
(307,50,o),
(309,54,cs),
(407,226,o),
(452,348,o),
(458,494,cs),
(458,500,o),
(454,504,o),
(448,504,cs),
(398,504,ls),
(392,504,o),
(388,501,o),
(388,494,cs),
(386,382,o),
(350,279,o),
(296,166,c),
(274,333,o),
(229,501,o),
(134,500,cs),
(81,499,o),
(61,475,o),
(48,445,cs),
(46,439,o),
(48,435,o),
(54,432,cs),
(98,413,ls),
(103,411,o),
(108,412,o),
(111,418,cs),
(116,425,o),
(125,432,o),
(133,432,cs),
(182,432,o),
(272,134,o),
(225,-123,cs),
(224,-129,o),
(220,-132,o),
(214,-132,cs),
(211,-132,ls),
(205,-132,o),
(201,-135,o),
(201,-142,cs),
(199,-192,ls),
(199,-198,o),
(203,-202,o),
(209,-202,cs),
(304,-202,ls),
(310,-202,o),
(314,-199,o),
(314,-192,cs)
);
}
);
userData = {
com.schriftgestaltung.Glyphs.lastChange = "2021-06-18 05:42:21 +0000";
};
width = 500;
}
);
unicode = 947;
},
{
glyphname = delta;
lastChange = "2021-06-24 16:58:36 +0000";
layers = (
{
layerId = m01;
shapes = (
{
closed = 1;
nodes = (
(168,575,o),
(223,521,o),
(277,473,cs),
(283,467,o),
(281,464,o),
(272,465,cs),
(83,493,o),
(56,324,o),
(56,235,cs),
(56,106,o),
(123,-8,o),
(248,-8,cs),
(372,-8,o),
(442,121,o),
(442,235,cs),
(442,425,o),
(329,524,o),
(207,623,cs),
(199,629,o),
(202,635,o),
(211,635,cs),
(347,633,ls),
(353,633,o),
(356,631,o),
(357,624,cs),
(360,590,ls),
(361,583,o),
(365,580,o),
(371,580,cs),
(412,580,ls),
(418,580,o),
(421,584,o),
(421,590,cs),
(416,684,ls),
(416,691,o),
(411,694,o),
(405,694,cs),
(157,693,ls),
(115,693,o),
(115,693,o),
(102,660,cs),
(87,622,o),
(88,621,o),
(126,599,cs)
);
},
{
closed = 1;
nodes = (
(126,327,o),
(157,401,o),
(242,401,cs),
(318,401,o),
(372,327,o),
(372,235,cs),
(372,128,o),
(308,63,o),
(248,63,cs),
(182,63,o),
(126,128,o),
(126,235,cs)
);
}
);
userData = {
com.schriftgestaltung.Glyphs.lastChange = "2021-06-18 05:49:46 +0000";
};
width = 500;
}
);
unicode = 948;
},
{
glyphname = epsilon;
lastChange = "2021-06-25 04:12:45 +0000";
layers = (
{
layerId = m01;
shapes = (
{
closed = 1;
nodes = (
(308,274,ls),
(308,280,o),
(304,284,o),
(298,284,cs),
(221,286,o),
(139,307,o),
(139,369,cs),
(139,413,o),
(184,446,o),
(243,446,cs),
(294,446,o),
(321,413,o),
(336,382,cs),
(338,376,o),
(342,374,o),
(347,374,cs),
(392,374,ls),
(398,374,o),
(402,378,o),
(402,384,cs),
(401,435,ls),
(401,442,o),
(397,445,o),
(391,445,cs),
(379,446,ls),
(374,446,o),
(370,448,o),
(367,453,cs),
(351,478,o),
(299,507,o),
(243,507,cs),
(130,507,o),
(69,441,o),
(69,370,cs),
(69,317,o),
(92,283,o),
(135,260,cs),
(143,256,o),
(143,254,o),
(136,249,cs),
(94,220,o),
(71,180,o),
(71,126,cs),
(71,54,o),
(114,-9,o),
(241,-9,cs),
(346,-9,o),
(396,33,o),
(408,100,cs),
(410,107,o),
(405,111,o),
(399,111,cs),
(353,111,ls),
(347,111,o),
(344,108,o),
(342,102,cs),
(333,62,o),
(295,50,o),
(241,50,cs),
(172,50,o),
(139,78,o),
(139,125,cs),
(139,199,o),
(222,221,o),
(298,223,cs),
(305,223,o),
(308,227,o),
(308,233,cs)
);
}
);
userData = {
com.schriftgestaltung.Glyphs.lastChange = "2021-06-18 05:57:34 +0000";
};
width = 500;
}
);
unicode = 949;
},
{
glyphname = zeta;
lastChange = "2021-06-25 05:10:51 +0000";
layers = (
{
layerId = m01;
shapes = (
{
closed = 1;
nodes = (
(126,299,o),
(155,395,o),
(391,611,cs),
(409,627,o),
(406,630,o),
(398,650,cs),
(388,675,ls),
(381,693,o),
(380,693,o),
(357,693,cs),
(93,694,ls),
(87,694,o),
(82,691,o),
(82,684,cs),
(77,590,ls),
(77,584,o),
(80,580,o),
(86,580,cs),
(137,580,ls),
(143,580,o),
(147,583,o),
(148,590,cs),
(151,614,ls),
(152,621,o),
(155,623,o),
(161,623,cs),
(287,625,ls),
(296,625,o),
(299,621,o),
(291,613,cs),
(147,474,o),
(56,356,o),
(56,221,cs),
(56,107,o),
(118,-6,o),
(250,-6,cs),
(330,-6,o),
(358,-36,o),
(360,-119,cs),
(360,-125,o),
(364,-129,o),
(370,-129,cs),
(419,-129,ls),
(425,-129,o),
(429,-125,o),
(429,-119,cs),
(429,29,o),
(346,64,o),
(250,64,cs),
(182,64,o),
(126,112,o),
(126,219,cs)
);
}
);
userData = {
com.schriftgestaltung.Glyphs.lastChange = "2021-06-20 03:37:48 +0000";
};
width = 500;
}
);
unicode = 950;
},
{
glyphname = eta;
lastChange = "2021-06-25 05:11:09 +0000";
layers = (
{
layerId = m01;
shapes = (
{
closed = 1;
nodes = (
(175,69,l),
(175,331,ls),
(175,392,o),
(210,448,o),
(270,448,cs),
(316,448,o),
(355,392,o),
(355,331,cs),
(355,-4,ls),
(355,-139,o),
(389,-192,o),
(464,-197,cs),
(470,-197,o),
(474,-193,o),
(474,-187,cs),
(474,-137,ls),
(474,-131,o),
(471,-127,o),
(465,-126,cs),
(433,-120,o),
(425,-82,o),
(425,-4,cs),
(425,331,ls),
(425,430,o),
(359,510,o),
(270,510,cs),
(217,510,o),
(181,489,o),
(149,455,cs),
(144,450,o),
(139,451,o),
(135,457,cs),
(124,473,o),
(113,487,o),
(103,498,cs),
(99,503,o),
(94,504,o),
(89,500,cs),
(43,461,ls),
(38,457,o),
(37,452,o),
(42,447,cs),
(52,436,o),
(62,422,o),
(70,407,cs),
(73,401,o),
(78,400,o),
(83,404,cs),
(88,408,o),
(93,405,o),
(96,399,cs),
(105,376,o),
(106,355,o),
(106,326,cs),
(104,79,ls),
(104,72,o),
(102,69,o),
(99,69,cs),
(96,69,o),
(93,65,o),
(93,59,cs),
(93,9,ls),
(93,3,o),
(97,-1,o),
(103,-1,cs),
(163,-1,ls),
(169,-1,o),
(173,2,o),
(173,9,cs)
);
}
);
userData = {
com.schriftgestaltung.Glyphs.lastChange = "2021-06-18 06:01:10 +0000";
};
width = 500;
}
);
unicode = 951;
},
{
glyphname = theta;
lastChange = "2021-06-25 05:15:23 +0000";
layers = (
{
layerId = m01;
shapes = (
{
closed = 1;
nodes = (
(126,681,o),
(65,527,o),
(65,339,cs),
(65,166,o),
(113,-3,o),
(250,-3,cs),
(387,-3,o),
(435,166,o),
(435,339,cs),
(435,527,o),
(375,681,o),
(250,681,cs)
);
},
{
closed = 1;
nodes = (
(134,510,o),
(182,611,o),
(250,611,cs),
(315,611,o),
(368,510,o),
(367,385,cs),
(367,378,o),
(363,374,o),
(357,374,cs),
(144,374,ls),
(138,374,o),
(134,378,o),
(134,385,cs)
);
},
{
closed = 1;
nodes = (
(356,303,ls),
(362,303,o),
(366,299,o),
(366,292,cs),
(366,165,o),
(315,69,o),
(250,68,cs),
(185,67,o),
(130,167,o),
(135,292,cs),
(135,299,o),
(139,303,o),
(145,303,cs)
);
}
);
userData = {
com.schriftgestaltung.Glyphs.lastChange = "2021-06-18 05:58:52 +0000";
};
width = 500;
}
);
unicode = 952;
},
{
glyphname = iota;
lastChange = "2021-06-25 05:16:15 +0000";
layers = (
{
layerId = m01;
shapes = (
{
closed = 1;
nodes = (
(390,80,ls),
(387,85,o),
(381,85,o),
(376,82,cs),
(363,74,o),
(338,59,o),
(320,59,cs),
(253,59,o),
(246,95,o),
(247,209,cs),
(249,491,ls),
(249,497,o),
(245,501,o),
(239,501,cs),
(144,501,ls),
(138,501,o),
(134,497,o),
(134,491,cs),
(134,431,ls),
(134,425,o),
(138,421,o),
(144,421,cs),
(169,421,ls),
(175,421,o),
(179,417,o),
(179,411,cs),
(178,210,ls),
(177,44,o),
(199,-10,o),
(318,-10,cs),
(343,-10,o),
(388,8,o),
(410,23,cs),
(416,27,o),
(415,32,o),
(412,37,cs)
);
}
);
userData = {
com.schriftgestaltung.Glyphs.lastChange = "2021-06-18 07:09:00 +0000";
};
width = 500;
}
);
unicode = 953;
},
{
glyphname = kappa;
lastChange = "2021-06-25 05:16:27 +0000";
layers = (
{
layerId = m01;
shapes = (
{
closed = 1;
nodes = (
(163,162,ls),
(163,167,o),
(164,170,o),
(167,174,cs),
(202,219,ls),
(206,225,o),
(212,224,o),
(216,218,cs),
(321,36,ls),
(341,1,o),
(377,0,o),
(416,0,cs),
(422,0,o),
(426,4,o),
(426,10,cs),
(426,59,ls),
(426,65,o),
(422,69,o),
(416,69,cs),
(379,69,o),
(370,73,o),
(352,106,cs),
(259,275,ls),
(256,280,o),
(257,284,o),
(260,288,cs),
(350,394,ls),
(375,422,o),
(379,430,o),
(414,431,cs),
(420,431,o),
(424,435,o),
(424,441,cs),
(424,490,ls),
(424,496,o),
(420,500,o),
(414,500,cs),
(376,499,o),
(346,494,o),
(319,464,cs),
(175,302,ls),
(169,295,o),
(163,296,o),
(163,306,cs),
(161,490,ls),
(161,497,o),
(157,500,o),
(151,500,cs),
(87,500,ls),
(81,500,o),
(77,496,o),
(77,490,cs),
(80,430,ls),
(80,423,o),
(82,420,o),
(86,420,cs),
(89,420,o),
(91,417,o),
(91,410,cs),
(93,89,ls),
(93,83,o),
(90,79,o),
(87,79,cs),
(83,79,o),
(80,76,o),
(80,69,cs),
(77,9,ls),
(77,3,o),
(81,-1,o),
(87,-1,cs),
(153,-1,ls),
(159,-1,o),
(163,3,o),
(163,9,cs)
);
}
);
userData = {
com.schriftgestaltung.Glyphs.lastChange = "2021-06-18 12:03:40 +0000";
};
width = 500;
}
);
unicode = 954;
},
{
glyphname = lambda;
lastChange = "2021-06-25 05:17:25 +0000";
layers = (
{
layerId = m01;
shapes = (
{
closed = 1;
nodes = (
(479,65,o),
(473,72,o),
(471,79,cs),
(286,634,ls),
(274,669,o),
(250,697,o),
(204,697,cs),
(178,697,ls),
(172,697,o),
(169,693,o),
(169,687,cs),
(171,637,ls),
(171,630,o),
(176,627,o),
(182,627,cs),
(196,627,ls),
(205,627,o),
(216,623,o),
(219,614,cs),
(283,420,ls),
(284,416,o),
(284,410,o),
(282,406,cs),
(107,9,ls),
(104,2,o),
(108,-3,o),
(115,-3,cs),
(172,-2,ls),
(177,-2,o),
(180,0,o),
(183,6,cs),
(312,291,ls),
(316,299,o),
(322,299,o),
(325,291,cs),
(404,61,ls),
(417,22,o),
(433,-5,o),
(486,-5,cs),
(527,-5,ls),
(533,-5,o),
(536,-1,o),
(536,5,cs),
(534,55,ls),
(534,62,o),
(530,65,o),
(524,65,cs),
(486,65,ls)
);
}
);
userData = {
com.schriftgestaltung.Glyphs.lastChange = "2021-06-18 13:30:53 +0000";
};
width = 600;
}
);
unicode = 955;
},
{
glyphname = mu;
lastChange = "2021-06-25 05:17:41 +0000";
layers = (
{
layerId = m01;
shapes = (
{
closed = 1;
nodes = (
(116,-229,o),
(148,-152,o),
(150,2,cs),
(150,14,o),
(154,19,o),
(161,15,cs),
(183,2,o),
(210,-3,o),
(243,0,cs),
(285,4,o),
(325,21,o),
(353,65,cs),
(357,72,o),
(362,72,o),
(366,65,cs),
(377,44,o),
(393,25,o),
(416,6,cs),
(421,2,o),
(426,2,o),
(430,7,cs),
(463,45,ls),
(467,50,o),
(466,55,o),
(461,60,cs),
(422,96,o),
(410,125,o),
(410,173,cs),
(409,410,ls),
(409,416,o),
(411,420,o),
(414,420,cs),
(417,420,o),
(419,423,o),
(419,430,cs),
(422,490,ls),
(422,496,o),
(418,500,o),
(412,500,cs),
(350,500,ls),
(344,500,o),
(340,496,o),
(340,490,cs),
(340,420,l),
(341,258,ls),
(342,146,o),
(302,63,o),
(245,63,cs),
(186.319,63,o),
(155.253,115.929,o),
(149.115,209.694,c),
(148.576,323.439,l),
(150,490,ls),
(150,496,o),
(146,500,o),
(140,500,cs),
(78,500,ls),
(72,500,o),
(68,496,o),
(68,490,cs),
(70,430,ls),
(70,423,o),
(72,420,o),
(75,420,cs),
(78,420,o),
(80,416,o),
(80,410,cs),
(80,22,ls),
(80,-89,o),
(78,-141,o),
(37,-125,cs),
(31,-123,o),
(26,-125,o),
(24,-131,cs),
(6,-177,ls),
(4,-183,o),
(5,-187,o),
(11,-190,cs)
);
}
);
userData = {
com.schriftgestaltung.Glyphs.lastChange = "2021-06-18 12:09:59 +0000";
};
width = 500;
}
);
unicode = 956;
},
{
glyphname = nu;
lastChange = "2021-06-25 05:17:58 +0000";
layers = (
{
layerId = m01;
shapes = (
{
closed = 1;
nodes = (
(418,422,ls),
(420,427,o),
(424,430,o),
(430,430,cs),
(446,430,ls),
(452,430,o),
(456,433,o),
(456,440,cs),
(459,490,ls),
(459,496,o),
(455,500,o),
(449,500,cs),
(376,500,ls),
(370,500,o),
(367,497,o),
(365,492,cs),
(256,107,ls),
(253,98,o),
(247,97,o),
(244,107,cs),
(134,491,ls),
(133,496,o),
(132,498,o),
(132,499,cs),
(132,500,o),
(128,500,o),
(122,500,cs),
(51,500,ls),
(45,500,o),
(41,496,o),
(41,490,cs),
(43,440,ls),
(43,433,o),
(47,430,o),
(53,430,cs),
(68,430,ls),
(73,430,o),
(78,427,o),
(80,422,cs),
(207,8,ls),
(209,3,o),
(214,0,o),
(219,0,cs),
(281,0,ls),
(286,0,o),
(291,3,o),
(293,8,cs)
);
}
);
userData = {
com.schriftgestaltung.Glyphs.lastChange = "2021-06-18 13:31:13 +0000";
};
width = 500;
}
);
unicode = 957;
},
{
glyphname = xi;
lastChange = "2021-06-25 05:32:45 +0000";
layers = (
{
layerId = m01;
shapes = (
{
closed = 1;
nodes = (
(127,466,o),
(176,499,o),
(386,578,cs),
(406,585,o),
(406,586,o),
(404,606,cs),
(396,675,ls),
(394,693,o),
(388,693,o),
(365,693,cs),
(93,694,ls),
(87,694,o),
(82,691,o),
(82,684,cs),
(77,590,ls),
(77,584,o),
(80,580,o),
(86,580,cs),
(137,580,ls),
(143,580,o),
(147,583,o),
(148,590,cs),
(151,614,ls),
(152,621,o),
(155,623,o),
(161,623,cs),
(287,625,ls),
(296,625,o),
(301,616,o),
(291,613,cs),
(123,556,o),
(57,494,o),
(57,397,cs),
(57,342,o),
(98,300,o),
(158,289,c),
(98,257,o),
(58,199,o),
(58,144,cs),
(58,76,o),
(112,-9,o),
(241,4,cs),
(345,14,o),
(362,-39,o),
(364,-120,cs),
(364,-126,o),
(368,-130,o),
(374,-130,cs),
(423,-129,ls),
(429,-129,o),
(433,-125,o),
(433,-119,cs),
(433,36,o),
(346,81,o),
(235,73,cs),
(169,68,o),
(128,87,o),
(128,141,cs),
(128,207,o),
(195,253,o),
(342,286,cs),
(349,288,o),
(352,290,o),
(351,297,cs),
(344,343,ls),
(343,349,o),
(340,353,o),
(334,352,cs),
(239,329,o),
(127,350,o),
(127,405,cs)
);
}
);
userData = {
com.schriftgestaltung.Glyphs.lastChange = "2021-06-20 04:21:28 +0000";
};
width = 500;
}
);
unicode = 958;
},
{
glyphname = omicron;
lastChange = "2021-06-25 04:14:21 +0000";
layers = (
{
layerId = m01;
shapes = (
{
closed = 1;
nodes = (
(180,65,o),
(127,134,o),
(127,250,cs),
(127,368,o),
(181,434,o),
(250,434,cs),
(320,434,o),
(373,368,o),
(373,249,cs),
(373,134,o),
(320,65,o),
(250,65,cs)
);
},
{
closed = 1;
nodes = (
(378,-3,o),
(443,98,o),
(443,249,cs),
(443,416,o),
(374,504,o),
(250,504,cs),
(126,504,o),
(57,416,o),
(57,250,cs),
(57,98,o),
(122,-3,o),
(250,-3,cs)
);
}
);
userData = {
com.schriftgestaltung.Glyphs.lastChange = "2021-06-18 13:41:58 +0000";
};
width = 500;
}
);
unicode = 959;
},
{
glyphname = pi;
lastChange = "2021-06-25 05:33:38 +0000";
layers = (
{
layerId = m01;
shapes = (
{
closed = 1;
nodes = (
(165,-2,ls),
(171,-2,o),
(175,2,o),
(175,8,cs),
(175,421,ls),
(175,427,o),
(179,431,o),
(185,431,cs),
(307,431,ls),
(313,431,o),
(317,428,o),
(317,421,cs),
(321,90,ls),
(322,42,o),
(350,-4,o),
(433,-7,cs),
(439,-7,o),
(443,-3,o),
(443,3,cs),
(443,53,ls),
(443,59,o),
(439,63,o),
(433,63,cs),
(404,65,o),
(391,74,o),
(391,108,cs),
(387,420,ls),
(387,426,o),
(391,430,o),
(397,430,cs),
(433,430,ls),
(439,430,o),
(443,434,o),
(443,440,cs),
(443,490,ls),
(443,496,o),
(439,500,o),
(433,500,cs),
(67,500,ls),
(61,500,o),
(57,496,o),
(57,490,cs),
(57,440,ls),
(57,434,o),
(61,430,o),
(67,430,cs),
(95,430,ls),
(101,430,o),
(105,426,o),
(105,420,cs),
(105,8,ls),
(105,2,o),
(109,-2,o),
(115,-2,cs)
);
}
);
userData = {
com.schriftgestaltung.Glyphs.lastChange = "2021-06-18 13:57:58 +0000";
};
width = 500;
}
);
unicode = 960;
},
{
glyphname = rho;
lastChange = "2021-06-25 05:34:55 +0000";
layers = (
{
layerId = m01;
shapes = (
{
closed = 1;
nodes = (
(197,72,o),
(162,150,o),
(162,242,cs),
(162,350,o),
(198,424,o),
(274,424,cs),
(358,424,o),
(386,359,o),
(386,242,cs),
(386,148,o),
(353,72,o),
(274,72,cs)
);
},
{
closed = 1;
nodes = (
(145,-203,ls),
(151,-203,o),
(155,-200,o),
(155,-193,cs),
(156,-170,o),
(157,-146,o),
(157,-123,cs),
(157,26,ls),
(157,34,o),
(162,37,o),
(169,32,cs),
(194,10,o),
(227,0,o),
(271,0,cs),
(396,0,o),
(461,96,o),
(461,243,cs),
(461,407,o),
(413,494,o),
(271,496,cs),
(142,498,o),
(94,413,o),
(92,243,cs),
(87,-113,ls),
(87,-120,o),
(85,-123,o),
(81,-123,cs),
(77,-123,o),
(74,-126,o),
(74,-133,cs),
(71,-193,ls),
(71,-199,o),
(75,-203,o),
(81,-203,cs)
);
}
);
userData = {
com.schriftgestaltung.Glyphs.lastChange = "2021-06-18 14:01:04 +0000";
};
width = 500;
}
);
unicode = 961;
},
{
glyphname = sigmafinal;
lastChange = "2021-06-25 05:35:40 +0000";
layers = (
{
layerId = m01;
shapes = (
{
closed = 1;
nodes = (
(328,0,o),
(378,-51,o),
(348,-136,cs),
(346,-143,o),
(347,-148,o),
(353,-151,cs),
(395,-170,ls),
(401,-173,o),
(406,-171,o),
(408,-165,cs),
(466,-24,o),
(373,69,o),
(247,69,cs),
(166,69,o),
(132,127,o),
(132,247,cs),
(132,363,o),
(176,432,o),
(251,432,cs),
(306,432,o),
(340,400,o),
(355,343,cs),
(356,337,o),
(360,335,o),
(366,335,cs),
(409,337,ls),
(415,337,o),
(418,341,o),
(418,348,cs),
(413,448,ls),
(413,455,o),
(408,458,o),
(402,458,cs),
(383,457,ls),
(378,457,o),
(375,458,o),
(371,462,cs),
(341,487,o),
(302,499,o),
(248,499,cs),
(122,499,o),
(61,396,o),
(61,248,cs),
(61,82,o),
(112,5,o),
(248,2,cs)
);
}
);
userData = {
com.schriftgestaltung.Glyphs.lastChange = "2021-06-20 04:27:25 +0000";
};
width = 500;
}
);
unicode = 962;
},
{
glyphname = sigma;
lastChange = "2021-06-25 05:35:52 +0000";
layers = (
{
layerId = m01;
shapes = (
{
closed = 1;
nodes = (
(180,57,o),
(127,134,o),
(127,250,cs),
(127,368,o),
(181,442,o),
(250,442,cs),
(320,442,o),
(373,368,o),
(373,249,cs),
(373,134,o),
(320,57,o),
(250,57,cs)
);
},
{
closed = 1;
nodes = (
(57,98,o),
(122,-3,o),
(250,-3,cs),
(378,-3,o),
(443,98,o),
(443,249,cs),
(443,327,o),
(428,388,o),
(399,430,cs),
(395,437,o),
(397,442,o),
(403,442,c),
(451,444,ls),
(457,444,o),
(461,449,o),
(461,455,cs),
(461,508,ls),
(461,514,o),
(457,518,o),
(451,518,cs),
(413,516,ls),
(407,516,o),
(403,513,o),
(403,510,cs),
(403,507,o),
(399,504,o),
(393,504,cs),
(250,504,ls),
(126,504,o),
(57,416,o),
(57,250,cs)
);
}
);
userData = {
com.schriftgestaltung.Glyphs.lastChange = "2021-06-18 14:06:22 +0000";
};
width = 500;
}
);
unicode = 963;
},
{
glyphname = tau;
lastChange = "2021-06-25 05:36:02 +0000";
layers = (
{
layerId = m01;
shapes = (
{
closed = 1;
nodes = (
(277,418,ls),
(277,424,o),
(281,428,o),
(287,428,cs),
(413,429,ls),
(419,429,o),
(423,433,o),
(423,439,cs),
(423,488,ls),
(423,494,o),
(419,498,o),
(413,498,cs),
(78,498,ls),
(72,498,o),
(68,494,o),
(68,488,cs),
(68,439,ls),
(68,433,o),
(72,429,o),
(78,429,cs),
(194,428,ls),
(200,428,o),
(204,424,o),
(204,418,cs),
(204,184,ls),
(204,56,o),
(221,-2,o),
(313,-2,cs),
(374,-2,o),
(414,39,o),
(460,124,cs),
(463,130,o),
(462,135,o),
(457,138,cs),
(416,162,ls),
(410,166,o),
(405,164,o),
(402,158,cs),
(379,117,o),
(342,69,o),
(313,69,cs),
(283,69,o),
(277,106,o),
(277,182,cs)
);
}
);
userData = {
com.schriftgestaltung.Glyphs.lastChange = "2021-06-18 14:04:16 +0000";
};
width = 500;
}
);
unicode = 964;
},
{
glyphname = upsilon;
lastChange = "2021-06-25 05:37:02 +0000";
layers = (
{
layerId = m01;
shapes = (
{
closed = 1;
nodes = (
(159,420,l),
(159,490,ls),
(159,496,o),
(155,500,o),
(149,500,cs),
(87,500,ls),
(81,500,o),
(77,496,o),
(77,490,cs),
(79,430,ls),
(79,423,o),
(82,420,o),
(86,420,cs),
(90,420,o),
(94,416,o),
(93,410,cs),
(77,257,ls),
(64,128,o),
(125,-12,o),
(230,-10,cs),
(350,-8,o),
(429,124,o),
(429,243,cs),
(429,292,o),
(413,359,o),
(394,411,cs),
(392,418,o),
(393,422,o),
(396,422,cs),
(400,422,o),
(402,426,o),
(402,432,cs),
(402,491,ls),
(402,497,o),
(398,501,o),
(392,501,cs),
(327,501,ls),
(321,501,o),
(317,497,o),
(317,491,cs),
(317,428,ls),
(317,424,o),
(318,420,o),
(319,416,cs),
(339,364,o),
(359,293,o),
(359,242,cs),
(359,130,o),
(294,60,o),
(230,60,cs),
(179,60,o),
(130,145,o),
(142,257,cs)
);
}
);
userData = {
com.schriftgestaltung.Glyphs.lastChange = "2021-06-18 14:08:52 +0000";
};
width = 500;
}
);
unicode = 965;
},
{
glyphname = phi;
lastChange = "2021-06-25 04:59:01 +0000";
layers = (
{
layerId = m01;
shapes = (
{
closed = 1;
nodes = (
(178,-191,ls),
(178,-197,o),
(182,-201,o),
(188,-200,cs),
(232,-197,o),
(275,-173,o),
(281,-75,cs),
(285,-9,ls),
(285,-2,o),
(288,1,o),
(294,2,cs),
(394,23,o),
(463,125,o),
(463,245,cs),
(463,412,o),
(397,489,o),
(312,489,cs),
(236,489,o),
(218,406,o),
(216,92,cs),
(215,83,o),
(210,79,o),
(203,83,cs),
(159,111,o),
(122,172,o),
(122,246,cs),
(122,306,o),
(142,378,o),
(179,446,cs),
(182,452,o),
(181,457,o),
(176,460,cs),
(135,484,ls),
(130,487,o),
(124,486,o),
(121,480,cs),
(78,408,o),
(52,329,o),
(52,246,cs),
(52,127,o),
(117,37,o),
(207,5,cs),
(212,3,o),
(215,0,o),
(215,-6,cs),
(211,-75,ls),
(209,-115,o),
(204,-127,o),
(187,-130,cs),
(181,-131,o),
(178,-135,o),
(178,-141,cs)
);
},
{
closed = 1;
nodes = (
(287,346,o),
(291,419,o),
(319,419,cs),
(376,419,o),
(393,313,o),
(393,245,cs),
(393,151,o),
(352,94,o),
(297,75,cs),
(290,73,o),
(285,77,o),
(285,84,cs)
);
}
);
userData = {
com.schriftgestaltung.Glyphs.lastChange = "2021-06-18 13:59:24 +0000";
};
width = 500;
}
);
unicode = 966;
},
{
glyphname = chi;
lastChange = "2021-06-25 05:37:42 +0000";
layers = (
{
layerId = m01;
shapes = (
{
closed = 1;
nodes = (
(452,-144,ls),
(458,-144,o),
(462,-140,o),
(462,-133,cs),
(459,-83,ls),
(459,-77,o),
(455,-74,o),
(449,-74,cs),
(420,-76,ls),
(414,-76,o),
(411,-75,o),
(408,-69,cs),
(151,491,ls),
(148,497,o),
(145,498,o),
(139,498,cs),
(61,492,ls),
(55,492,o),
(51,488,o),
(51,481,cs),
(53,431,ls),
(53,425,o),
(57,422,o),
(63,422,cs),
(91,424,ls),
(97,424,o),
(100,423,o),
(103,417,cs),
(361,-143,ls),
(364,-149,o),
(367,-150,o),
(373,-150,cs)
);
},
{
closed = 1;
nodes = (
(372,497,ls),
(367,497,o),
(362,495,o),
(360,490,cs),
(60,-146,ls),
(57,-153,o),
(60,-158,o),
(67,-158,cs),
(124,-158,ls),
(129,-158,o),
(134,-156,o),
(136,-151,cs),
(436,485,ls),
(439,492,o),
(436,497,o),
(429,497,cs)
);
}
);
userData = {
com.schriftgestaltung.Glyphs.lastChange = "2021-06-18 13:50:59 +0000";
};
width = 500;
}
);
unicode = 967;
},
{
glyphname = psi;
lastChange = "2021-06-25 05:38:07 +0000";
layers = (
{
layerId = m01;
shapes = (
{
closed = 1;
nodes = (
(240,444,ls),
(240,438,o),
(244,434,o),
(250,434,cs),
(255,434,ls),
(261,434,o),
(265,430,o),
(265,424,cs),
(265,-117,ls),
(265,-123,o),
(261,-127,o),
(255,-127,cs),
(250,-127,ls),
(244,-127,o),
(240,-131,o),
(240,-137,cs),
(240,-185,ls),
(240,-191,o),
(244,-195,o),
(250,-195,cs),
(350,-195,ls),
(356,-195,o),
(360,-191,o),
(360,-185,cs),
(360,-136,ls),
(360,-130,o),
(356,-127,o),
(350,-127,cs),
(345,-127,ls),
(339,-127,o),
(335,-123,o),
(335,-117,cs),
(335,424,ls),
(335,430,o),
(339,434,o),
(345,434,cs),
(350,434,ls),
(356,434,o),
(360,438,o),
(360,444,cs),
(360,494,ls),
(360,500,o),
(356,504,o),
(350,504,cs),
(250,504,ls),
(244,504,o),
(240,500,o),
(240,494,cs)
);
},
{
closed = 1;
nodes = (
(428.986,435,ls),
(432,217,o),
(411,66,o),
(300,66,cs),
(179.367,66,o),
(172,216,o),
(172,435,cs),
(172,494,ls),
(172,500,o),
(168,504,o),
(162,504,cs),
(90,504,ls),
(84,504,o),
(80,500,o),
(80,494,cs),
(80,444,ls),
(80,438,o),
(84,434,o),
(90,434,cs),
(92,434,ls),
(98,434,o),
(102,430,o),
(102,424,cs),
(102,196,o),
(117,-14,o),
(300,-14,cs),
(475,-14,o),
(497,197,o),
(498,424,cs),
(498,430,o),
(502,434,o),
(508,434,cs),
(510,434,ls),
(516,434,o),
(520,438,o),
(520,444,cs),
(520,494,ls),
(520,500,o),
(516,504,o),
(510,504,cs),
(438,504,ls),
(432,504,o),
(428,500,o),
(428,494,cs)
);
}
);
userData = {
com.schriftgestaltung.Glyphs.lastChange = "2021-06-18 13:53:27 +0000";
};
width = 600;
}
);
unicode = 968;
},
{
glyphname = omega;
lastChange = "2021-06-25 05:38:17 +0000";
layers = (
{
layerId = m01;
shapes = (
{
closed = 1;
nodes = (
(200.89,1,o),
(234.134,22.183,o),
(250,62.769,c),
(265.866,22.183,o),
(299.11,1,o),
(326,1,cs),
(484,1,o),
(506,266,o),
(421,416,cs),
(417,424,o),
(417,429,o),
(421,429,cs),
(426,429,o),
(429,433,o),
(429,439,cs),
(429,489,ls),
(429,495,o),
(425,499,o),
(419,499,cs),
(337,500,ls),
(331,500,o),
(327,496,o),
(327,490,cs),
(329,436,ls),
(329,431,o),
(330,428,o),
(334,424,cs),
(421,317,o),
(423,71,o),
(326,71,cs),
(285,71,o),
(280,215,o),
(283,284,cs),
(283,290,o),
(279,294,o),
(273,294,cs),
(227,294,ls),
(221,294,o),
(217,290,o),
(217,284,cs),
(220,215,o),
(215,71,o),
(174,71,cs),
(77,71,o),
(79,317,o),
(166,424,cs),
(170,428,o),
(171,431,o),
(171,436,cs),
(173,490,ls),
(173,496,o),
(169,500,o),
(163,500,cs),
(81,499,ls),
(75,499,o),
(71,495,o),
(71,489,cs),
(71,439,ls),
(71,433,o),
(74,429,o),
(79,429,cs),
(83,429,o),
(84,424,o),
(80,417,cs),
(-6,267,o),
(15,1,o),
(174,1,cs)
);
}
);
userData = {
com.schriftgestaltung.Glyphs.lastChange = "2021-06-18 14:03:41 +0000";
};
width = 500;
}
);
unicode = 969;
},
{
glyphname = zero;
lastChange = "2021-06-24 12:33:45 +0000";
layers = (
{
layerId = m01;
shapes = (
{
closed = 1;
nodes = (
(393,704,o),
(447,549,o),
(447,349,cs),
(447,162,o),
(393,-4,o),
(245,-4,cs),
(98,-4,o),
(43,162,o),
(43,349,cs),
(43,549,o),
(98,704,o),
(245,704,cs)
);
},
{
closed = 1;
nodes = (
(113,142,o),
(164,67,o),
(245,66,cs),
(326,67,o),
(377,142,o),
(377,349,cs),
(377,559,o),
(323,634,o),
(245,634,cs),
(164,634,o),
(113,559,o),
(113,349,cs)
);
},
{
closed = 1;
nodes = (
(278,300,o),
(300,322,o),
(300,350,cs),
(300,378,o),
(278,400,o),
(250,400,cs),
(221,400,o),
(200,378,o),
(200,350,cs),
(200,322,o),
(221,300,o),
(250,300,cs)
);
}
);
width = 500;
}
);
unicode = 48;
},
{
glyphname = one;
lastChange = "2021-06-24 12:38:43 +0000";
layers = (
{
guides = (
{
angle = 90;
lockAngle = 1;
pos = (308,706);
},
{
angle = 45;
lockAngle = 1;
pos = (238,605);
},
{
angle = 90;
lockAngle = 1;
pos = (238,706);
},
{
angle = 45;
lockAngle = 1;
pos = (238,706);
}
);
layerId = m01;
shapes = (
{
closed = 1;
nodes = (
(418,60,ls),
(418,66,o),
(414,70,o),
(408,70,cs),
(318,69,ls),
(312,69,o),
(308,73,o),
(308,79,cs),
(308,696,ls),
(308,702,o),
(304,706,o),
(298,706,cs),
(245,706,ls),
(240,706,o),
(236,704,o),
(233,701,cs),
(104,572,ls),
(100,568,o),
(100,563,o),
(104,558,cs),
(139,520,ls),
(143,516,o),
(149,516,o),
(153,520,cs),
(226,593,ls),
(232,599,o),
(238,597,o),
(238,588,cs),
(238,79,ls),
(238,73,o),
(234,69,o),
(228,69,cs),
(123,70,ls),
(117,70,o),
(113,66,o),
(113,60,cs),
(113,10,ls),
(113,4,o),
(117,0,o),
(123,0,cs),
(408,0,ls),
(414,0,o),
(418,4,o),
(418,10,cs)
);
}
);
width = 500;
}
);
unicode = 49;
},
{
glyphname = two;
lastChange = "2021-06-24 12:38:55 +0000";
layers = (
{
layerId = m01;
shapes = (
{
closed = 1;
nodes = (
(431,102,ls),
(431,108,o),
(427,112,o),
(421,112,cs),
(371,112,ls),
(365,112,o),
(361,108,o),
(361,102,cs),
(361,80,ls),
(361,74,o),
(357,70,o),
(351,70,cs),
(152,70,ls),
(146,70,o),
(142,74,o),
(142,80,cs),
(153,246,o),
(434,359,o),
(434,526,cs),
(434,637,o),
(369,708,o),
(258,708,cs),
(136,708,o),
(85,601,o),
(68,549,cs),
(66,542,o),
(69,538,o),
(75,536,cs),
(124,523,ls),
(130,521,o),
(134,524,o),
(136,530,cs),
(151,574,o),
(186,637,o),
(258,638,cs),
(329,639,o),
(365,590,o),
(365,530,cs),
(365,380,o),
(72,285,o),
(72,70,cs),
(72,10,ls),
(72,4,o),
(76,0,o),
(82,0,cs),
(421,0,ls),
(427,0,o),
(431,4,o),
(431,10,cs)
);
}
);
width = 500;
}
);
unicode = 50;
},
{
glyphname = three;
lastChange = "2021-06-24 12:39:02 +0000";
layers = (
{
layerId = m01;
shapes = (
{
closed = 1;
nodes = (
(145,588,ls),
(151,588,o),
(155,592,o),
(155,598,cs),
(155,618,ls),
(155,624,o),
(159,628,o),
(165,628,cs),
(320,629,ls),
(328,629,o),
(331,624,o),
(326,617,cs),
(201,463,ls),
(198,459,o),
(197,456,o),
(197,451,cs),
(197,401,ls),
(197,396,o),
(199,392,o),
(204,389,cs),
(237,373,o),
(362,304,o),
(362,198,cs),
(362,102,o),
(326,61,o),
(248,61,cs),
(159,61,o),
(140,166,o),
(136,199,cs),
(135,206,o),
(131,209,o),
(125,209,cs),
(75,206,ls),
(69,206,o),
(65,201,o),
(66,195,cs),
(70,153,o),
(95,-9,o),
(245,-9,cs),
(372,-9,o),
(432,67,o),
(432,198,cs),
(432,325,o),
(315,405,o),
(281,426,cs),
(275,429,o),
(274,434,o),
(278,440,cs),
(422,624,ls),
(425,628,o),
(426,631,o),
(426,636,cs),
(426,689,ls),
(426,695,o),
(422,699,o),
(416,699,cs),
(95,699,ls),
(89,699,o),
(85,695,o),
(85,689,cs),
(85,598,ls),
(85,592,o),
(89,588,o),
(95,588,cs)
);
}
);
width = 500;
}
);
unicode = 51;
},
{
glyphname = four;
lastChange = "2021-06-24 12:39:13 +0000";
layers = (
{
guides = (
{
angle = 60;
pos = (54,255);
},
{
angle = 60;
pos = (136,255);
}
);
layerId = m01;
shapes = (
{
closed = 1;
nodes = (
(432,245,ls),
(432,251,o),
(428,255,o),
(422,255,cs),
(395,255,l),
(395,416,ls),
(395,422,o),
(391,426,o),
(385,426,cs),
(335,426,ls),
(329,426,o),
(325,422,o),
(325,416,cs),
(325,255,l),
(136,255,l),
(381,678,ls),
(384,683,o),
(383,688,o),
(377,692,cs),
(334,718,ls),
(328,722,o),
(323,719,o),
(320,714,cs),
(57,261,ls),
(55,257,o),
(54,252,o),
(54,248,cs),
(54,195,ls),
(54,189,o),
(58,185,o),
(64,185,cs),
(325,185,l),
(325,69,l),
(243,69,ls),
(237,69,o),
(233,65,o),
(233,59,cs),
(233,10,ls),
(233,4,o),
(237,0,o),
(243,0,cs),
(422,0,ls),
(428,0,o),
(432,4,o),
(432,10,cs),
(432,59,ls),
(432,65,o),
(428,69,o),
(422,69,cs),
(395,69,l),
(395,185,l),
(422,185,ls),
(428,185,o),
(432,189,o),
(432,195,cs)
);
}
);
width = 500;
}
);
unicode = 52;
},
{
glyphname = five;
lastChange = "2021-06-24 12:39:21 +0000";
layers = (
{
layerId = m01;
shapes = (
{
closed = 1;
nodes = (
(215,383,o),
(367,352,o),
(367,220,cs),
(367,119,o),
(327,61,o),
(246,61,cs),
(165,61,o),
(142,154,o),
(136,184,cs),
(135,191,o),
(131,194,o),
(125,193,cs),
(76,187,ls),
(70,186,o),
(66,182,o),
(67,176,cs),
(74,136,o),
(106,-9,o),
(243,-9,cs),
(377,-9,o),
(437,84,o),
(437,220,cs),
(437,444,o),
(171,452,o),
(171,452,c),
(171,630,l),
(350,630,l),
(349,598,ls),
(349,592,o),
(353,588,o),
(359,588,cs),
(409,587,ls),
(415,587,o),
(419,590,o),
(419,597,cs),
(421,688,ls),
(421,695,o),
(418,698,o),
(411,698,cs),
(396,699,o),
(366,700,o),
(344,700,cs),
(111,700,ls),
(105,700,o),
(101,696,o),
(101,690,cs),
(101,395,ls),
(101,389,o),
(104,385,o),
(111,385,cs)
);
}
);
width = 500;
}
);
unicode = 53;
},
{
glyphname = six;
lastChange = "2021-06-25 04:15:27 +0000";
layers = (
{
layerId = m01;
shapes = (
{
closed = 1;
nodes = (
(131,212,l),
(129,347,o),
(212,348,o),
(240,348,cs),
(306,348,o),
(355,312,o),
(355,207,cs),
(355,121,o),
(310,63,o),
(237,63,cs),
(164,63,o),
(131,138,o),
(131,212,cs),
(131,307,o),
(155,440,o),
(300,671,cs),
(304,677,o),
(303,681,o),
(298,685,cs),
(257,712,ls),
(252,716,o),
(247,715,o),
(243,710,cs),
(212,662,o),
(61,422,o),
(61,212,cs),
(61,103,o),
(109,-7,o),
(239,-7,cs),
(351,-7,o),
(425,82,o),
(425,208,cs),
(425,356,o),
(338,418,o),
(240,418,cs),
(207,418,o),
(161,406,o),
(138,397,c)
);
}
);
width = 500;
}
);
unicode = 54;
},
{
glyphname = seven;
layers = (
{
layerId = m01;
shapes = (
{
closed = 1;
nodes = (
(433,638,l),
(433,699,l),
(71,699,l),
(71,554,l),
(140,554,l),
(140,638,l),
(356,638,l),
(147,1,l),
(223,1,l)
);
}
);
width = 500;
}
);
unicode = 55;
},
{
glyphname = eight;
lastChange = "2021-06-24 14:36:14 +0000";
layers = (
{
layerId = m01;
shapes = (
{
closed = 1;
nodes = (
(325,340,o),
(385,276,o),
(385,200,cs),
(385,109,o),
(308,66,o),
(250,66,cs),
(187,66,o),
(115,109,o),
(115,200,cs),
(115,276,o),
(172,340,o),
(250,340,cs)
);
},
{
closed = 1;
nodes = (
(111,401,o),
(45,303,o),
(45,199,cs),
(45,84,o),
(129,-4,o),
(247,-4,cs),
(371,-4,o),
(455,84,o),
(455,199,cs),
(455,303,o),
(386,401,o),
(250,401,cs)
);
},
{
closed = 1;
nodes = (
(175,417,o),
(145,471,o),
(145,535,cs),
(145,586,o),
(186,635,o),
(250,635,cs),
(313,635,o),
(350,586,o),
(350,535,cs),
(350,475,o),
(324,417,o),
(250,417,cs)
);
},
{
closed = 1;
nodes = (
(376,353,o),
(425,443,o),
(425,535,cs),
(425,621,o),
(354,705,o),
(250,705,cs),
(145,705,o),
(75,621,o),
(75,535,cs),
(75,440,o),
(123,353,o),
(250,353,cs)
);
}
);
width = 500;
}
);
unicode = 56;
},
{
glyphname = nine;
lastChange = "2021-06-24 14:30:26 +0000";
layers = (
{
layerId = m01;
shapes = (
{
closed = 1;
nodes = (
(355,502,l),
(355,367,o),
(291,357,o),
(252,357,cs),
(187,357,o),
(131,389,o),
(131,494,cs),
(131,580,o),
(178,635,o),
(252,635,cs),
(318,635,o),
(354,567,o),
(354,503,cs),
(354,408,o),
(337,241,o),
(186,14,cs),
(182,8,o),
(182,4,o),
(187,1,cs),
(231,-29,ls),
(236,-32,o),
(241,-32,o),
(245,-27,cs),
(276,21,o),
(425,294,o),
(425,504,cs),
(425,606,o),
(369,705,o),
(250,705,cs),
(137,705,o),
(61,619,o),
(61,493,cs),
(61,345,o),
(148,287,o),
(252,287,cs),
(299,287,o),
(330,304,o),
(355,324,c)
);
}
);
width = 500;
}
);
unicode = 57;
},
{
glyphname = zeroinferior;
lastChange = "2021-06-25 05:39:25 +0000";
layers = (
{
hints = (
{
horizontal = 1;
origin = (0,5);
target = (0,11);
type = Stem;
}
);
layerId = m01;
shapes = (
{
closed = 1;
nodes = (
(159,241,o),
(120,155,o),
(120,61,cs),
(120,-27,o),
(159,-119,o),
(250,-119,cs),
(339,-119,o),
(380,-27,o),
(380,61,cs),
(380,158,o),
(339,241,o),
(250,241,cs)
);
},
{
closed = 1;
nodes = (
(184,135,o),
(209,180,o),
(250,180,cs),
(289,180,o),
(316,135,o),
(316,61,cs),
(316,-20,o),
(289,-61,o),
(250,-61,cs),
(209,-61,o),
(184,-20,o),
(184,61,cs)
);
}
);
width = 500;
}
);
unicode = 8320;
},
{
glyphname = oneinferior;
lastChange = "2021-06-25 04:16:07 +0000";
layers = (
{
hints = (
{
horizontal = 1;
origin = (0,39);
target = (0,12);
type = Stem;
}
);
layerId = m01;
shapes = (
{
closed = 1;
nodes = (
(355,-70,ls),
(355,-64,o),
(351,-60,o),
(345,-60,cs),
(296,-60,ls),
(290,-60,o),
(286,-56,o),
(286,-50,cs),
(286,230,ls),
(286,236,o),
(282,240,o),
(276,240,cs),
(234,240,ls),
(230,240,o),
(225,238,o),
(221,236,cs),
(152,191,ls),
(147,188,o),
(145,183,o),
(149,177,cs),
(174,143,ls),
(178,138,o),
(183,137,o),
(188,141,cs),
(215,159,ls),
(221,163,o),
(227,161,o),
(227,153,cs),
(227,-50,ls),
(227,-56,o),
(223,-60,o),
(217,-60,cs),
(162,-60,ls),
(156,-60,o),
(152,-64,o),
(152,-70,cs),
(152,-110,ls),
(152,-116,o),
(156,-120,o),
(162,-120,cs),
(345,-120,ls),
(351,-120,o),
(355,-116,o),
(355,-110,cs)
);
}
);
width = 500;
}
);
unicode = 8321;
},
{
glyphname = twoinferior;
lastChange = "2021-06-25 04:16:24 +0000";
layers = (
{
hints = (
{
horizontal = 1;
origin = (0,32);
target = (0,11);
type = Stem;
}
);
layerId = m01;
shapes = (
{
closed = 1;
nodes = (
(354,-70,ls),
(354,-64,o),
(350,-60,o),
(344,-60,cs),
(240,-60,ls),
(232,-60,o),
(229,-55,o),
(235,-48,cs),
(307,28,ls),
(391,116,o),
(359,240,o),
(237,240,cs),
(179,240,o),
(135,196,o),
(130,132,cs),
(130,126,o),
(134,122,o),
(140,122,cs),
(182,122,ls),
(188,122,o),
(192,125,o),
(193,132,cs),
(196,161,o),
(212,180,o),
(237,180,cs),
(294,180,o),
(308,120,o),
(251,61,cs),
(139,-55,ls),
(136,-58,o),
(134,-62,o),
(134,-67,cs),
(134,-110,ls),
(134,-116,o),
(138,-120,o),
(144,-120,cs),
(344,-120,ls),
(350,-120,o),
(354,-116,o),
(354,-110,cs)
);
}
);
width = 500;
}
);
unicode = 8322;
},
{
glyphname = threeinferior;
lastChange = "2021-06-25 04:16:45 +0000";
layers = (
{
hints = (
{
horizontal = 1;
origin = (0,28);
target = (0,43);
type = Stem;
}
);
layerId = m01;
shapes = (
{
closed = 1;
nodes = (
(278,175,l),
(198,114,ls),
(194,111,o),
(192,106,o),
(192,101,cs),
(192,59,ls),
(192,53,o),
(196,49,o),
(202,49,cs),
(216,49,ls),
(284,49,o),
(305,35,o),
(305,-6,cs),
(305,-39,o),
(288,-61,o),
(253,-61,cs),
(224,-61,o),
(208,-48,o),
(205,-27,cs),
(204,-20,o),
(200,-17,o),
(194,-17,cs),
(153,-17,ls),
(147,-17,o),
(143,-21,o),
(143,-27,cs),
(148,-85,o),
(188,-120,o),
(253,-120,cs),
(324,-120,o),
(366,-60,o),
(366,-4,cs),
(366,44.783,o),
(347.607,90.028,o),
(267.982,103.177,c),
(352,170,ls),
(356,174,o),
(358,178,o),
(358,183,cs),
(358,225,ls),
(358,231,o),
(354,235,o),
(348,235,cs),
(151,235,ls),
(145,235,o),
(141,231,o),
(141,225,cs),
(141,185,ls),
(141,179,o),
(145,175,o),
(151,175,cs)
);
}
);
width = 500;
}
);
unicode = 8323;
},
{
glyphname = fourinferior;
lastChange = "2021-06-25 04:17:04 +0000";
layers = (
{
hints = (
{
horizontal = 1;
origin = (0,56);
target = (0,28);
type = Stem;
}
);
layerId = m01;
shapes = (
{
closed = 1;
nodes = (
(374,24,ls),
(374,30,o),
(370,34,o),
(364,34,cs),
(354,34,ls),
(348,34,o),
(344,38,o),
(344,44,cs),
(344,91,ls),
(344,97,o),
(340,101,o),
(334,101,cs),
(289,101,ls),
(283,101,o),
(279,97,o),
(279,91,cs),
(279,44,ls),
(279,38,o),
(275,34,o),
(269,34,cs),
(205,34,ls),
(197,34,o),
(194,40,o),
(199,46,cs),
(329,213,ls),
(333,218,o),
(332,223,o),
(327,227,cs),
(293,254,ls),
(288,258,o),
(283,257,o),
(279,252,cs),
(115,39,ls),
(112,35,o),
(111,32,o),
(111,27,cs),
(111,-16,ls),
(111,-22,o),
(115,-26,o),
(121,-26,cs),
(269,-26,ls),
(275,-26,o),
(279,-30,o),
(279,-36,cs),
(279,-60,ls),
(279,-66,o),
(275,-70,o),
(269,-70,cs),
(259,-70,ls),
(253,-70,o),
(249,-74,o),
(249,-80,cs),
(249,-111,ls),
(249,-117,o),
(253,-121,o),
(259,-121,cs),
(334,-121,ls),
(340,-121,o),
(344,-117,o),
(344,-111,cs),
(344,-36,ls),
(344,-30,o),
(348,-26,o),
(354,-26,cs),
(364,-26,ls),
(370,-26,o),
(374,-22,o),
(374,-16,cs)
);
}
);
width = 500;
}
);
unicode = 8324;
},
{
glyphname = fiveinferior;
lastChange = "2021-06-25 04:17:13 +0000";
layers = (
{
hints = (
{
horizontal = 1;
origin = (0,25);
target = (0,50);
type = Stem;
}
);
layerId = m01;
shapes = (
{
closed = 1;
nodes = (
(189,41,ls),
(194,41,o),
(198,44,o),
(201,49,cs),
(207,60,o),
(224,71,o),
(243,71,cs),
(283,71,o),
(302,49,o),
(302,3,cs),
(302,-42,o),
(283,-62,o),
(245,-62,cs),
(218,-62,o),
(204,-46,o),
(200,-33,cs),
(198,-27,o),
(195,-24,o),
(189,-24,cs),
(151,-24,ls),
(145,-24,o),
(141,-28,o),
(142,-34,cs),
(146,-81,o),
(183,-120,o),
(245,-120,cs),
(324,-120,o),
(359,-71,o),
(359,2,cs),
(359,88,o),
(321,126,o),
(241,126,cs),
(231,126,o),
(220,123,o),
(211,118,cs),
(204,115,o),
(200,117,o),
(200,125,cs),
(200,164,ls),
(200,170,o),
(204,174,o),
(210,174,cs),
(339,176,ls),
(345,176,o),
(349,180,o),
(349,186,cs),
(349,226,ls),
(349,232,o),
(345,236,o),
(339,236,cs),
(152,236,ls),
(146,236,o),
(142,232,o),
(142,226,cs),
(142,51,ls),
(142,45,o),
(146,41,o),
(152,41,cs)
);
}
);
width = 500;
}
);
unicode = 8325;
},
{
glyphname = sixinferior;
lastChange = "2021-06-25 04:17:25 +0000";
layers = (
{
hints = (
{
horizontal = 1;
origin = (1,2);
target = (1,21);
type = Stem;
}
);
layerId = m01;
shapes = (
{
closed = 1;
nodes = (
(211,-60,o),
(190,-38,o),
(190,-2,cs),
(190,31,o),
(212,59,o),
(250,59,cs),
(288,59,o),
(309,31,o),
(309,-2,cs),
(309,-38,o),
(284,-60,o),
(250,-60,cs)
);
},
{
closed = 1;
nodes = (
(130,-65,o),
(161,-120,o),
(248,-120,cs),
(325,-120,o),
(369,-62,o),
(369,-2,cs),
(369,63,o),
(329,117,o),
(249,117,cs),
(246,117,o),
(243,117,o),
(240,116,cs),
(236,115,o),
(236,121,o),
(240,128,cs),
(262,167,o),
(278,186,o),
(308,219,cs),
(312,224,o),
(312,229,o),
(307,234,cs),
(277,259,ls),
(272,263,o),
(268,263,o),
(263,258,cs),
(189,179,o),
(130,59,o),
(130,-2,cs)
);
}
);
width = 500;
}
);
unicode = 8326;
},
{
glyphname = seveninferior;
lastChange = "2021-06-25 04:18:35 +0000";
layers = (
{
hints = (
{
horizontal = 1;
origin = (0,31);
target = (0,8);
type = Stem;
}
);
layerId = m01;
shapes = (
{
closed = 1;
nodes = (
(355,169,ls),
(356,173,o),
(357,177,o),
(357,181,cs),
(357,225,ls),
(357,231,o),
(353,235,o),
(347,235,cs),
(136,235,ls),
(130,235,o),
(126,231,o),
(126,225,cs),
(126,156,ls),
(126,150,o),
(130,146,o),
(136,146,cs),
(173,146,ls),
(179,146,o),
(183,150,o),
(183,156,cs),
(183,165,ls),
(183,171,o),
(187,175,o),
(193,175,cs),
(283,175,ls),
(290,175,o),
(293,171,o),
(291,164,cs),
(202,-111,ls),
(200,-118,o),
(203,-122,o),
(210,-122,cs),
(253,-122,ls),
(258,-122,o),
(263,-119,o),
(265,-114,cs)
);
}
);
width = 500;
}
);
unicode = 8327;
},
{
glyphname = eightinferior;
lastChange = "2021-06-24 04:25:40 +0000";
layers = (
{
hints = (
{
horizontal = 1;
origin = (1,5);
target = (3,5);
type = Stem;
}
);
layerId = m01;
shapes = (
{
closed = 1;
nodes = (
(286,34,o),
(307,14,o),
(307,-15,cs),
(307,-40,o),
(284,-60,o),
(254,-60,cs),
(224,-60,o),
(201,-40,o),
(201,-15,cs),
(201,14,o),
(227,34,o),
(254,34,cs)
);
},
{
closed = 1;
nodes = (
(179,86,o),
(143,35,o),
(143,-17,cs),
(143,-84,o),
(187,-120,o),
(255,-120,cs),
(319,-120,o),
(367,-84,o),
(367,-17,cs),
(367,33,o),
(329,86,o),
(255,86,cs)
);
},
{
closed = 1;
nodes = (
(224,102,o),
(213,125,o),
(213,148,cs),
(213,167,o),
(230,187,o),
(254,187,cs),
(277,187,o),
(294,167,o),
(294,148,cs),
(294,127,o),
(283,102,o),
(254,102,cs)
);
},
{
closed = 1;
nodes = (
(323,62,o),
(350,100,o),
(350,149,cs),
(350,196,o),
(311,240,o),
(255,240,cs),
(198,240,o),
(160,196,o),
(160,149,cs),
(160,98,o),
(186,62,o),
(255,62,cs)
);
}
);
width = 500;
}
);
unicode = 8328;
},
{
glyphname = nineinferior;
lastChange = "2021-06-25 04:19:00 +0000";
layers = (
{
layerId = m01;
shapes = (
{
closed = 1;
nodes = (
(290,188,o),
(308,158,o),
(308,130,cs),
(308,105,o),
(289,73,o),
(251,73,cs),
(213,73,o),
(194,105,o),
(194,130,cs),
(194,158,o),
(217,188,o),
(251,188,cs)
);
},
{
closed = 1;
nodes = (
(134,67,o),
(167,15,o),
(248,15,cs),
(251,15,o),
(254,15,o),
(258,16,cs),
(263,16,o),
(264,11,o),
(260,4,cs),
(236,-37,o),
(216,-68,o),
(189,-108,cs),
(185,-115,o),
(188,-120,o),
(196,-120,cs),
(246,-120,ls),
(251,-120,o),
(255,-118,o),
(258,-113,cs),
(309,-27,o),
(369,72,o),
(369,130,cs),
(369,193,o),
(338,248,o),
(251,248,cs),
(174,248,o),
(134,190,o),
(134,130,cs)
);
}
);
width = 500;
}
);
unicode = 8329;
},
{
glyphname = .notdef;
layers = (
{
layerId = m01;
shapes = (
{
closed = 1;
nodes = (
(427,700,l),
(73,700,l),
(73,0,l),
(427,0,l)
);
},
{
closed = 1;
nodes = (
(295,671,l),
(384,671,l),
(102,317,l),
(102,429,l)
);
},
{
closed = 1;
nodes = (
(177,671,l),
(265,671,l),
(102,466,l),
(102,578,l)
);
},
{
closed = 1;
nodes = (
(146,671,l),
(102,615,l),
(102,671,l)
);
},
{
closed = 1;
nodes = (
(398,650,l),
(398,539,l),
(102,169,l),
(102,280,l)
);
},
{
closed = 1;
nodes = (
(398,502,l),
(398,390,l),
(109,29,l),
(102,29,l),
(102,131,l)
);
},
{
closed = 1;
nodes = (
(398,242,l),
(228,29,l),
(139,29,l),
(398,353,l)
);
},
{
closed = 1;
nodes = (
(398,92,l),
(347,29,l),
(257,29,l),
(398,205,l)
);
},
{
closed = 1;
nodes = (
(398,55,l),
(398,29,l),
(376,29,l)
);
}
);
width = 500;
}
);
},
{
glyphname = period;
lastChange = "2021-06-25 05:59:01 +0000";
layers = (
{
layerId = m01;
shapes = (
{
closed = 1;
nodes = (
(208,100,o),
(200,92,o),
(200,83,cs),
(200,15,ls),
(200,7,o),
(208,-1,o),
(216,-1,cs),
(284,-1,ls),
(292,-1,o),
(300,7,o),
(300,15,cs),
(300,83,ls),
(300,91,o),
(292,100,o),
(284,100,cs),
(216,100,ls)
);
}
);
width = 500;
}
);
unicode = 46;
},
{
glyphname = comma;
lastChange = "2021-06-25 06:01:44 +0000";
layers = (
{
layerId = m01;
shapes = (
{
closed = 1;
nodes = (
(192,-137,o),
(196,-138,o),
(199,-135,c),
(260,-89,o),
(290,-56,o),
(297,5,cs),
(308,108,ls),
(309,117,o),
(302,124,o),
(292,124,cs),
(216,124,ls),
(206,124,o),
(200,118,o),
(200,108,cs),
(200,5,ls),
(200,-29,o),
(190,-64,o),
(159,-97,cs),
(157,-99,o),
(158,-103,o),
(160,-105,cs),
(190,-135,ls)
);
}
);
width = 500;
}
);
unicode = 44;
},
{
glyphname = exclam;
lastChange = "2021-06-25 05:40:00 +0000";
layers = (
{
layerId = m01;
shapes = (
{
closed = 1;
nodes = (
(296,694,o),
(291,700,o),
(285,700,cs),
(215,700,ls),
(209,700,o),
(204,694,o),
(204,688,cs),
(220,212,ls),
(220,209,o),
(222,207,o),
(225,207,cs),
(275,207,ls),
(278,207,o),
(280,209,o),
(280,212,cs),
(296,688,ls)
);
},
{
closed = 1;
nodes = (
(211,96,o),
(202,87,o),
(202,80,cs),
(202,15,ls),
(202,8,o),
(211,-1,o),
(218,-1,cs),
(282,-1,ls),
(289,-1,o),
(298,8,o),
(298,15,cs),
(298,80,ls),
(298,87,o),
(289,96,o),
(282,96,cs),
(218,96,ls)
);
}
);
width = 500;
}
);
unicode = 33;
},
{
glyphname = question;
lastChange = "2021-06-25 06:36:00 +0000";
layers = (
{
layerId = m01;
shapes = (
{
closed = 1;
nodes = (
(126,585,ls),
(130,580,o),
(135,579,o),
(140,584,cs),
(185,621,o),
(212,634,o),
(251,634,cs),
(319,634,o),
(358,588,o),
(358,539,cs),
(358,463,o),
(211,378,o),
(211,207,cs),
(211,204,o),
(213,202,o),
(216,202,cs),
(274,201,ls),
(277,201,o),
(279,203,o),
(279,206,cs),
(279,351,o),
(426,413,o),
(426,539,cs),
(426,647,o),
(345,704,o),
(251,704,cs),
(200,704,o),
(144,679,o),
(96,637,cs),
(91,632,o),
(91,627,o),
(95,622,cs)
);
},
{
ref = period;
}
);
userData = {
com.schriftgestaltung.Glyphs.lastChange = "2021-06-17 15:21:11 +0000";
};
width = 500;
}
);
unicode = 63;
},
{
glyphname = periodcentered;
layers = (
{
layerId = m01;
shapes = (
{
closed = 1;
nodes = (
(277,290,o),
(300,313,o),
(300,340,cs),
(300,367,o),
(277,390,o),
(250,390,cs),
(222,390,o),
(200,367,o),
(200,340,cs),
(200,313,o),
(222,290,o),
(250,290,cs)
);
}
);
width = 500;
}
);
unicode = 183;
},
{
glyphname = bullet;
layers = (
{
layerId = m01;
shapes = (
{
closed = 1;
nodes = (
(289,269,o),
(321,301,o),
(321,340,cs),
(321,379,o),
(289,411,o),
(250,411,cs),
(210,411,o),
(179,379,o),
(179,340,cs),
(179,301,o),
(210,269,o),
(250,269,cs)
);
}
);
width = 500;
}
);
unicode = 8226;
},
{
glyphname = asterisk;
lastChange = "2021-06-25 06:36:17 +0000";
layers = (
{
layerId = m01;
shapes = (
{
closed = 1;
nodes = (
(47,362,o),
(50,358,o),
(56,356,cs),
(149,331,ls),
(169.169,325.353,o),
(195.195,324.912,o),
(218.678,322.328,c),
(200.677,306.127,o),
(180.133,290.237,o),
(167,273,cs),
(106,198,ls),
(102,193,o),
(103,188,o),
(108,184,cs),
(151,154,ls),
(156,150,o),
(162,152,o),
(165,157,cs),
(217,236,ls),
(228.364,253.046,o),
(237.751,278.657,o),
(247.301,300.533,c),
(257.716,278.701,o),
(267.313,253.366,o),
(279,235,cs),
(331,155,ls),
(334,150,o),
(340,148,o),
(345,152,cs),
(387,183,ls),
(392,187,o),
(393,192,o),
(389,197,cs),
(329,271,ls),
(315.694,288.464,o),
(294.089,304.545,o),
(275.687,320.969,c),
(300.087,324.16,o),
(327.784,325.06,o),
(349,331,cs),
(441,356,ls),
(447,358,o),
(450,362,o),
(448,369,cs),
(432,418,ls),
(430,425,o),
(426,427,o),
(419,424,cs),
(330,390,ls),
(309.538,381.815,o),
(287.737,367.602,o),
(266.789,356.132,c),
(271.438,379.807,o),
(278.188,404.883,o),
(279,426,cs),
(284,522,ls),
(284,528,o),
(280,532,o),
(274,532,cs),
(222,532,ls),
(216,532,o),
(212,528,o),
(212,522,cs),
(217,426,ls),
(217.796,405.303,o),
(224.929,380.804,o),
(229.823,357.548,c),
(209.419,368.913,o),
(187.402,382.724,o),
(168,390,cs),
(79,424,ls),
(72,427,o),
(68,425,o),
(66,418,cs),
(49,369,ls)
);
}
);
width = 500;
}
);
unicode = 42;
},
{
glyphname = numbersign;
layers = (
{
layerId = m01;
shapes = (
{
closed = 1;
nodes = (
(299,53,l),
(361,53,l),
(361,627,l),
(299,627,l)
);
},
{
closed = 1;
nodes = (
(139,53,l),
(201,53,l),
(201,627,l),
(139,627,l)
);
},
{
closed = 1;
nodes = (
(63,483,l),
(63,421,l),
(437,421,l),
(437,483,l)
);
},
{
closed = 1;
nodes = (
(63,259,l),
(63,197,l),
(437,197,l),
(437,259,l)
);
}
);
width = 500;
}
);
unicode = 35;
},
{
glyphname = backslash;
lastChange = "2021-06-25 06:36:34 +0000";
layers = (
{
layerId = m01;
shapes = (
{
closed = 1;
nodes = (
(98,701,ls),
(91,701,o),
(88,697,o),
(90,690,cs),
(337,9,ls),
(339,3,o),
(344,1,o),
(349,1,cs),
(401,1,ls),
(408,1,o),
(411,5,o),
(409,12,cs),
(162,693,ls),
(160,699,o),
(155,701,o),
(150,701,cs)
);
}
);
width = 500;
}
);
unicode = 92;
},
{
glyphname = hyphen;
lastChange = "2021-06-25 06:36:45 +0000";
layers = (
{
layerId = m01;
shapes = (
{
closed = 1;
nodes = (
(50,315,ls),
(50,309,o),
(54,305,o),
(60,305,cs),
(440,305,ls),
(446,305,o),
(450,309,o),
(450,315,cs),
(450,365,ls),
(450,371,o),
(446,375,o),
(440,375,cs),
(60,375,ls),
(54,375,o),
(50,371,o),
(50,365,cs)
);
}
);
width = 500;
}
);
unicode = 45;
},
{
glyphname = underscore;
lastChange = "2021-06-25 06:37:30 +0000";
layers = (
{
layerId = m01;
shapes = (
{
closed = 1;
nodes = (
(60,6,ls),
(60,0,o),
(64,-4,o),
(70,-4,cs),
(430,-4,ls),
(436,-4,o),
(440,0,o),
(440,6,cs),
(440,56,ls),
(440,62,o),
(436,66,o),
(430,66,cs),
(70,66,ls),
(64,66,o),
(60,62,o),
(60,56,cs)
);
}
);
width = 500;
}
);
unicode = 95;
},
{
glyphname = parenleft;
lastChange = "2021-06-25 06:39:26 +0000";
layers = (
{
layerId = m01;
shapes = (
{
closed = 1;
nodes = (
(215,688,o),
(110,542,o),
(110,340,cs),
(110,137,o),
(215,-8,o),
(348,-76,cs),
(354,-79,o),
(359,-77,o),
(361,-71,cs),
(379,-29,ls),
(381,-23,o),
(380,-19,o),
(374,-16,cs),
(260,44,o),
(178,189,o),
(180,340,cs),
(178,490,o),
(260,636,o),
(374,696,cs),
(380,699,o),
(381,703,o),
(379,709,cs),
(361,752,ls),
(359,758,o),
(354,759,o),
(348,756,cs)
);
}
);
width = 500;
}
);
unicode = 40;
},
{
glyphname = braceleft;
lastChange = "2021-06-25 06:39:38 +0000";
layers = (
{
layerId = m01;
shapes = (
{
closed = 1;
nodes = (
(282,736,o),
(189,683,o),
(183,552,cs),
(178,451,o),
(158,410,o),
(80,390,cs),
(74,389,o),
(71,385,o),
(71,379,cs),
(71,301,ls),
(71,295,o),
(74,291,o),
(80,290,cs),
(158,270,o),
(178,229,o),
(183,128,cs),
(189,-3,o),
(279,-56,o),
(367,-75,cs),
(374,-76,o),
(378,-73,o),
(378,-66,cs),
(380,-8,ls),
(380,-1,o),
(377,1,o),
(371,2,cs),
(305,13,o),
(249,64,o),
(246,172,cs),
(243.524,272.915,o),
(216.516,317.102,o),
(171.859,341.58,c),
(216.111,364.991,o),
(243.54,407.744,o),
(246,508,cs),
(249,615,o),
(301,668,o),
(371,678,cs),
(377,679,o),
(380,681,o),
(380,688,cs),
(381,746,ls),
(381,753,o),
(377,756,o),
(370,755,cs)
);
}
);
width = 500;
}
);
unicode = 123;
},
{
glyphname = bracketleft;
lastChange = "2021-06-25 06:39:46 +0000";
layers = (
{
layerId = m01;
shapes = (
{
closed = 1;
nodes = (
(383,10,ls),
(383,16,o),
(379,20,o),
(373,20,cs),
(224,20,ls),
(218,20,o),
(214,24,o),
(214,30,cs),
(214,650,ls),
(214,656,o),
(218,660,o),
(224,660,cs),
(373,660,ls),
(379,660,o),
(383,664,o),
(383,670,cs),
(383,717,ls),
(383,723,o),
(379,727,o),
(373,727,cs),
(155,727,ls),
(149,727,o),
(145,723,o),
(145,717,cs),
(145,-37,ls),
(145,-43,o),
(149,-47,o),
(155,-47,cs),
(373,-47,ls),
(379,-47,o),
(383,-43,o),
(383,-37,cs)
);
}
);
width = 500;
}
);
unicode = 91;
},
{
glyphname = bracketright;
layers = (
{
layerId = m01;
shapes = (
{
closed = 1;
nodes = (
(374,-47,l),
(374,727,l),
(89,727,l),
(89,657,l),
(296,657,l),
(296,23,l),
(89,23,l),
(89,-47,l)
);
}
);
width = 500;
}
);
unicode = 93;
},
{
glyphname = quotedbl;
lastChange = "2021-06-25 06:40:04 +0000";
layers = (
{
layerId = m01;
shapes = (
{
closed = 1;
nodes = (
(127,473,ls),
(127,466,o),
(131,463,o),
(137,463,cs),
(173,463,ls),
(179,463,o),
(183,466,o),
(183,473,cs),
(194,690,ls),
(194,696,o),
(191,700,o),
(185,700,cs),
(125,700,ls),
(119,700,o),
(116,696,o),
(116,690,cs)
);
},
{
closed = 1;
nodes = (
(317,473,ls),
(317,466,o),
(321,463,o),
(327,463,cs),
(363,463,ls),
(369,463,o),
(373,466,o),
(373,473,cs),
(384,690,ls),
(384,696,o),
(381,700,o),
(375,700,cs),
(315,700,ls),
(309,700,o),
(306,696,o),
(306,690,cs)
);
}
);
width = 500;
}
);
unicode = 34;
},
{
glyphname = quotesingle;
lastChange = "2021-06-25 06:39:58 +0000";
layers = (
{
layerId = m01;
shapes = (
{
closed = 1;
nodes = (
(218,473,ls),
(218,466,o),
(222,463,o),
(228,463,cs),
(272,463,ls),
(278,463,o),
(282,466,o),
(282,473,cs),
(293,690,ls),
(293,696,o),
(290,700,o),
(284,700,cs),
(216,700,ls),
(210,700,o),
(207,696,o),
(207,690,cs)
);
}
);
userData = {
com.schriftgestaltung.Glyphs.lastChange = "2021-06-17 15:21:36 +0000";
};
width = 500;
}
);
unicode = 39;
},
{
glyphname = at;
lastChange = "2021-06-25 13:45:08 +0000";
layers = (
{
layerId = m01;
shapes = (
{
closed = 1;
nodes = (
(291,302,o),
(302,270,o),
(302,413,cs),
(302,487,o),
(294,518,o),
(276,518,cs),
(228,518,o),
(219,439,o),
(219,355,cs),
(219,228,o),
(250,164,o),
(327,164,cs),
(384,164,o),
(451,215,o),
(451,383,cs),
(451,388,l),
(451,392,ls),
(451,613,o),
(373,693,o),
(258,693,cs),
(139,693,o),
(61,557,o),
(61,333,cs),
(61,118,o),
(150,0,o),
(258,0,cs),
(387,0,l),
(387,70,l),
(261,70,ls),
(189,70,o),
(131,171,o),
(131,333,cs),
(131,510,o),
(178,623,o),
(261,623,cs),
(347,623,o),
(385,528,o),
(383,390,cs),
(382,296,o),
(360,234,o),
(327,234,cs),
(290,234,o),
(291,249,o),
(291,270,cs)
);
}
);
userData = {
com.schriftgestaltung.Glyphs.lastChange = "2021-06-19 07:36:39 +0000";
};
width = 500;
}
);
unicode = 64;
},
{
glyphname = ampersand;
lastChange = "2021-06-25 13:52:13 +0000";
layers = (
{
guides = (
{
angle = 101;
pos = (408,-5);
},
{
angle = 101;
pos = (479,-5);
}
);
layerId = m01;
shapes = (
{
closed = 1;
nodes = (
(465,-5,ls),
(473,-5,o),
(475,0,o),
(471,7,cs),
(179,469,l),
(179,469,o),
(147,524,o),
(147,556,cs),
(147,598,o),
(175,632,o),
(217,633,cs),
(284,635,o),
(302,557,o),
(302,534,cs),
(302,519,o),
(306,510,o),
(312,510,cs),
(362,510,ls),
(368,510,o),
(372,514,o),
(372,520,cs),
(372,587,o),
(341,703,o),
(217,703,cs),
(140,703,o),
(77,637,o),
(77,558,cs),
(77,490,o),
(111,443,o),
(111,443,c),
(394,1,ls),
(397,-3,o),
(401,-5,o),
(406,-5,cs)
);
},
{
closed = 1;
nodes = (
(342,386,ls),
(336,385,o),
(333,380,o),
(334,374,cs),
(337,355,o),
(344,310,o),
(344,267,cs),
(344,186,o),
(277,67,o),
(196,67,cs),
(141,67,o),
(118,105,o),
(118,174,cs),
(118,242,o),
(158,277,o),
(192,277,cs),
(221,277,o),
(242,239,o),
(242,239,c),
(196,346,l),
(103,346,o),
(48,276,o),
(48,174,cs),
(48,72,o),
(90,-3,o),
(196,-3,cs),
(352,-3,o),
(414,134,o),
(414,267,cs),
(414,313,o),
(406,364,o),
(403,385,cs),
(402,392,o),
(397,394,o),
(391,393,cs)
);
}
);
userData = {
com.schriftgestaltung.Glyphs.lastChange = "2021-06-19 07:35:37 +0000";
};
width = 500;
}
);
unicode = 38;
},
{
glyphname = copyright;
lastChange = "2021-06-25 13:07:43 +0000";
layers = (
{
layerId = m01;
shapes = (
{
closed = 1;
nodes = (
(372,140,o),
(470,238,o),
(470,360,cs),
(470,482,o),
(372,580,o),
(250,580,cs),
(128,580,o),
(30,482,o),
(30,360,cs),
(30,238,o),
(128,140,o),
(250,140,cs)
);
},
{
closed = 1;
nodes = (
(156,190,o),
(80,266,o),
(80,360,cs),
(80,454,o),
(156,530,o),
(250,530,cs),
(344,530,o),
(420,454,o),
(420,360,cs),
(420,266,o),
(344,190,o),
(250,190,cs)
);
},
{
closed = 1;
nodes = (
(294,337,l),
(294,337,o),
(281,310,o),
(250,310,cs),
(222,310,o),
(200,332,o),
(200,360,cs),
(200,388,o),
(222,410,o),
(250,410,cs),
(277,410,o),
(289,391,o),
(289,391,c),
(339,425,l),
(318,453,o),
(286,470,o),
(250,470,cs),
(189,470,o),
(140,421,o),
(140,360,cs),
(140,299,o),
(189,250,o),
(250,250,cs),
(316,250,o),
(348,304,o),
(348,304,c)
);
}
);
userData = {
com.schriftgestaltung.Glyphs.lastChange = "2021-06-19 07:36:11 +0000";
};
width = 501;
}
);
unicode = 169;
},
{
glyphname = bar;
layers = (
{
layerId = m01;
shapes = (
{
closed = 1;
nodes = (
(215,-63,l),
(285,-63,l),
(285,743,l),
(215,743,l)
);
}
);
width = 500;
}
);
unicode = 124;
},
{
glyphname = greater_equal.liga;
layers = (
{
layerId = m01;
shapes = (
{
closed = 1;
nodes = (
(857,452,l),
(143,607,l),
(143,527,l),
(857,377,l)
);
},
{
closed = 1;
nodes = (
(143,309,l),
(143,229,l),
(857,372,l),
(857,447,l)
);
},
{
closed = 1;
nodes = (
(143,153,l),
(143,73,l),
(857,216,l),
(857,291,l)
);
}
);
width = 1000;
}
);
},
{
glyphname = less_hyphen.liga;
layers = (
{
layerId = m01;
shapes = (
{
closed = 1;
nodes = (
(161,308,l),
(950,303,l),
(950,377,l),
(161,372,l)
);
},
{
pos = (16,0);
ref = less;
}
);
width = 1000;
}
);
},
{
glyphname = dollar;
layers = (
{
layerId = m01;
shapes = (
{
closed = 1;
nodes = (
(428,439,l),
(408.917,524.006,o),
(360.49,569.135,o),
(285.331,580.261,c),
(285,699,l),
(215,699,l),
(215.33,580.661,l),
(76.741,559.437,o),
(-4.46,400.313,o),
(155,328,c),
(216.092,307.103,l),
(216.523,152.354,l),
(175.487,163.143,o),
(155.246,190.515,o),
(144,237,c),
(72,218,l),
(91.257,132.218,o),
(140.396,87.044,o),
(216.734,76.443,c),
(217,-19,l),
(287,-19,l),
(286.734,76.666,l),
(424.061,99.143,o),
(503.667,257.046,o),
(345,329,c),
(285.974,349.203,l),
(285.543,504.126,l),
(325.532,492.995,o),
(345.668,465.757,o),
(356,420,c)
);
},
{
closed = 1;
nodes = (
(114.389,417.629,o),
(136.093,497.362,o),
(215.53,508.661,c),
(215.906,373.922,l),
(184,387,ls)
);
},
{
closed = 1;
nodes = (
(316,270,ls),
(385.064,239.612,o),
(365.091,160.888,o),
(286.533,148.618,c),
(286.161,282.277,l)
);
}
);
width = 500;
}
);
unicode = 36;
},
{
glyphname = leftcurlybracketlowerhook;
lastChange = "2021-06-20 06:16:25 +0000";
layers = (
{
layerId = m01;
shapes = (
{
closed = 1;
nodes = (
(485,-110,l),
(485,-30,l),
(440,-30,ls),
(377,-30,o),
(345,-1,o),
(345,56,cs),
(345,1020,l),
(255,1020,l),
(255,56,ls),
(255,-49,o),
(322,-110,o),
(440,-110,cs)
);
}
);
width = 600;
}
);
unicode = 9129;
},
{
glyphname = leftcurlybracketmiddlepiece;
lastChange = "2021-06-20 06:16:01 +0000";
layers = (
{
layerId = m01;
shapes = (
{
closed = 1;
nodes = (
(345,-300,l),
(345,220,ls),
(345,306,o),
(299,363,o),
(215,363,c),
(215,358,l),
(300,358,o),
(345,413,o),
(345,500,cs),
(345,1020,l),
(255,1020,l),
(255,500,ls),
(255,429,o),
(242,400,o),
(155,400,cs),
(45,400,l),
(45,320,l),
(155,320,ls),
(241,320,o),
(255,291,o),
(255,220,cs),
(255,-300,l)
);
}
);
width = 600;
}
);
unicode = 9128;
},
{
glyphname = leftcurlybracketupperhook;
lastChange = "2021-06-20 06:16:44 +0000";
layers = (
{
layerId = m01;
shapes = (
{
closed = 1;
nodes = (
(345,-300,l),
(345,664,ls),
(345,721,o),
(377,750,o),
(440,750,cs),
(485,750,l),
(485,830,l),
(440,830,ls),
(322,830,o),
(255,769,o),
(255,664,cs),
(255,-300,l)
);
}
);
width = 600;
}
);
unicode = 9127;
},
{
glyphname = minus;
layers = (
{
layerId = m01;
shapes = (
{
closed = 1;
nodes = (
(50,305,l),
(450,305,l),
(450,375,l),
(50,375,l)
);
}
);
width = 500;
}
);
unicode = 8722;
},
{
glyphname = multiply;
layers = (
{
layerId = m01;
shapes = (
{
closed = 1;
nodes = (
(76,464,l),
(375,168,l),
(423,216,l),
(124,512,l)
);
},
{
closed = 1;
nodes = (
(380,518,l),
(72,210,l),
(120,162,l),
(429,470,l)
);
}
);
width = 500;
}
);
unicode = 215;
},
{
glyphname = divide;
layers = (
{
layerId = m01;
shapes = (
{
closed = 1;
nodes = (
(50,304,l),
(450,305,l),
(450,375,l),
(50,374,l)
);
},
{
closed = 1;
nodes = (
(287,437,o),
(308,460,o),
(308,496,cs),
(308,532,o),
(287,553,o),
(251,553,cs),
(214,553,o),
(192,532,o),
(192,496,cs),
(192,460,o),
(214,437,o),
(251,437,cs)
);
},
{
closed = 1;
nodes = (
(287,124,o),
(308,147,o),
(308,183,cs),
(308,219,o),
(287,240,o),
(251,240,cs),
(214,240,o),
(192,219,o),
(192,183,cs),
(192,147,o),
(214,124,o),
(251,124,cs)
);
}
);
width = 500;
}
);
unicode = 247;
},
{
glyphname = notequal;
layers = (
{
layerId = m01;
shapes = (
{
closed = 1;
nodes = (
(94,136,l),
(175,137,l),
(406,544,l),
(325,544,l)
);
},
{
ref = equal;
}
);
width = 500;
}
);
unicode = 8800;
},
{
glyphname = greater;
layers = (
{
layerId = m01;
shapes = (
{
closed = 1;
nodes = (
(456,380,l),
(56,529,l),
(56,449,l),
(456,305,l)
);
},
{
closed = 1;
nodes = (
(56,231,l),
(56,151,l),
(456,300,l),
(456,375,l)
);
}
);
width = 500;
}
);
unicode = 62;
},
{
glyphname = greaterequal;
layers = (
{
layerId = m01;
shapes = (
{
pos = (0,79);
ref = greater;
},
{
closed = 1;
nodes = (
(56,152,l),
(56,72,l),
(456,221,l),
(456,296,l)
);
}
);
width = 500;
}
);
unicode = 8805;
},
{
glyphname = asciitilde;
layers = (
{
layerId = m01;
shapes = (
{
closed = 1;
nodes = (
(334,260,o),
(408,280,o),
(465,340,c),
(420,391,l),
(372,341,o),
(322,341,o),
(243,382,cs),
(166,420,o),
(92,399,o),
(35,339,c),
(80,288,l),
(128,338,o),
(178,342,o),
(257,297,c)
);
}
);
width = 500;
}
);
unicode = 126;
},
{
glyphname = asciicircum;
layers = (
{
layerId = m01;
shapes = (
{
closed = 1;
nodes = (
(285,664,l),
(215,664,l),
(319,474,l),
(389,474,l)
);
},
{
closed = 1;
nodes = (
(285,664,l),
(215,664,l),
(111,474,l),
(181,474,l)
);
}
);
width = 500;
}
);
unicode = 94;
},
{
glyphname = percent;
layers = (
{
layerId = m01;
shapes = (
{
closed = 1;
nodes = (
(89,0,l),
(166,0,l),
(422,700,l),
(345,700,l)
);
},
{
closed = 1;
nodes = (
(345,0,l),
(422,0,l),
(422,170,l),
(345,170,l)
);
},
{
closed = 1;
nodes = (
(89,530,l),
(166,530,l),
(166,700,l),
(89,700,l)
);
}
);
width = 500;
}
);
unicode = 37;
},
{
glyphname = perthousand;
layers = (
{
layerId = m01;
shapes = (
{
closed = 1;
nodes = (
(70,0,l),
(147,0,l),
(359,700,l),
(282,700,l)
);
},
{
closed = 1;
nodes = (
(363,0,l),
(440,0,l),
(440,170,l),
(363,170,l)
);
},
{
closed = 1;
nodes = (
(76,530,l),
(153,530,l),
(153,700,l),
(76,700,l)
);
},
{
closed = 1;
nodes = (
(237,0,l),
(314,0,l),
(314,170,l),
(237,170,l)
);
}
);
width = 500;
}
);
unicode = 8240;
},
{
glyphname = upArrow;
layers = (
{
layerId = m01;
shapes = (
{
closed = 1;
nodes = (
(285,130,l),
(285,398.197,l),
(345,290,l),
(413,329,l),
(285,550,l),
(215,550,l),
(87,329,l),
(155,290,l),
(215,397.317,l),
(215,130,l)
);
}
);
userData = {
com.schriftgestaltung.Glyphs.lastChange = "2021-06-17 15:24:01 +0000";
};
width = 500;
}
);
unicode = 8593;
},
{
glyphname = northEastArrow;
layers = (
{
layerId = m01;
shapes = (
{
closed = 1;
nodes = (
(126,167,l),
(316.301,357.301,l),
(282,237,l),
(357,217,l),
(423,464,l),
(374,513,l),
(127,447,l),
(147,372,l),
(266.417,405.417,l),
(77,216,l)
);
}
);
userData = {
com.schriftgestaltung.Glyphs.lastChange = "2021-06-17 15:24:07 +0000";
};
width = 500;
}
);
unicode = 8599;
},
{
glyphname = rightArrow;
layers = (
{
layerId = m01;
shapes = (
{
closed = 1;
nodes = (
(40,305,l),
(308.197,305,l),
(200,245,l),
(239,177,l),
(460,305,l),
(460,375,l),
(239,503,l),
(200,435,l),
(307.317,375,l),
(40,375,l)
);
}
);
userData = {
com.schriftgestaltung.Glyphs.lastChange = "2021-06-17 15:24:12 +0000";
};
width = 500;
}
);
unicode = 8594;
},
{
glyphname = southEastArrow;
layers = (
{
layerId = m01;
shapes = (
{
closed = 1;
nodes = (
(77,464,l),
(267.301,273.699,l),
(147,308,l),
(127,233,l),
(374,167,l),
(423,216,l),
(357,463,l),
(282,443,l),
(315.417,323.583,l),
(126,513,l)
);
}
);
userData = {
com.schriftgestaltung.Glyphs.lastChange = "2021-06-17 15:24:17 +0000";
};
width = 500;
}
);
unicode = 8600;
},
{
glyphname = downArrow;
layers = (
{
layerId = m01;
shapes = (
{
closed = 1;
nodes = (
(215,550,l),
(215,281.803,l),
(155,390,l),
(87,351,l),
(215,130,l),
(285,130,l),
(413,351,l),
(345,390,l),
(285,282.683,l),
(285,550,l)
);
}
);
userData = {
com.schriftgestaltung.Glyphs.lastChange = "2021-06-17 15:24:22 +0000";
};
width = 500;
}
);
unicode = 8595;
},
{
glyphname = southWestArrow;
layers = (
{
layerId = m01;
shapes = (
{
closed = 1;
nodes = (
(374,513,l),
(183.699,322.699,l),
(218,443,l),
(143,463,l),
(77,216,l),
(126,167,l),
(373,233,l),
(353,308,l),
(233.583,274.583,l),
(423,464,l)
);
}
);
userData = {
com.schriftgestaltung.Glyphs.lastChange = "2021-06-17 15:24:27 +0000";
};
width = 500;
}
);
unicode = 8601;
},
{
glyphname = leftArrow;
layers = (
{
layerId = m01;
shapes = (
{
closed = 1;
nodes = (
(460,375,l),
(191.803,375,l),
(300,435,l),
(261,503,l),
(40,375,l),
(40,305,l),
(261,177,l),
(300,245,l),
(192.683,305,l),
(460,305,l)
);
}
);
userData = {
com.schriftgestaltung.Glyphs.lastChange = "2021-06-17 15:24:33 +0000";
};
width = 500;
}
);
unicode = 8592;
},
{
glyphname = northWestArrow;
layers = (
{
layerId = m01;
shapes = (
{
closed = 1;
nodes = (
(423,216,l),
(232.699,406.301,l),
(353,372,l),
(373,447,l),
(126,513,l),
(77,464,l),
(143,217,l),
(218,237,l),
(184.583,356.417,l),
(374,167,l)
);
}
);
userData = {
com.schriftgestaltung.Glyphs.lastChange = "2021-06-17 15:24:38 +0000";
};
width = 500;
}
);
unicode = 8598;
},
{
glyphname = leftRightArrow;
layers = (
{
layerId = m01;
shapes = (
{
closed = 1;
nodes = (
(40,305,l),
(188,181,l),
(230,238,l),
(151.574,305,l),
(348.426,305,l),
(270,238,l),
(312,181,l),
(460,305,l),
(460,375,l),
(312,499,l),
(269,442,l),
(347.426,375,l),
(152.574,375,l),
(231,442,l),
(188,499,l),
(40,375,l)
);
}
);
userData = {
com.schriftgestaltung.Glyphs.lastChange = "2021-06-17 15:24:43 +0000";
};
width = 500;
}
);
unicode = 8596;
},
{
glyphname = upDownArrow;
layers = (
{
layerId = m01;
shapes = (
{
closed = 1;
nodes = (
(285,130,l),
(409,278,l),
(352,320,l),
(285,241.574,l),
(285,438.426,l),
(352,360,l),
(409,402,l),
(285,550,l),
(215,550,l),
(91,402,l),
(148,359,l),
(215,437.426,l),
(215,242.574,l),
(148,321,l),
(91,278,l),
(215,130,l)
);
}
);
userData = {
com.schriftgestaltung.Glyphs.lastChange = "2021-06-17 15:24:48 +0000";
};
width = 500;
}
);
unicode = 8597;
},
{
glyphname = dottedCircle;
layers = (
{
layerId = m01;
shapes = (
{
closed = 1;
nodes = (
(495,249,o),
(460,382,o),
(357,441,cs),
(255,500,o),
(122,464,o),
(63,362,cs),
(3,258,o),
(40,128,o),
(142,69,cs),
(245,9,o),
(376,43,o),
(436,147,cs)
);
},
{
closed = 1;
nodes = (
(361,68,o),
(245,38,o),
(154,90,cs),
(65,142,o),
(32,258,o),
(85,350,cs),
(137,440,o),
(255,471,o),
(344,419,cs),
(435,367,o),
(466,250,o),
(414,160,cs)
);
},
{
closed = 1;
nodes = (
(132,97,l),
(328,436,l),
(312,445,l),
(116,106,l)
);
},
{
closed = 1;
nodes = (
(83,145,l),
(257,447,l),
(242,456,l),
(68,154,l)
);
},
{
closed = 1;
nodes = (
(60,220,l),
(183,432,l),
(167,441,l),
(45,229,l)
);
},
{
closed = 1;
nodes = (
(383,406,l),
(367,415,l),
(171,76,l),
(187,67,l)
);
},
{
closed = 1;
nodes = (
(427,356,l),
(411,365,l),
(237,64,l),
(253,55,l)
);
},
{
closed = 1;
nodes = (
(454,278,l),
(438,287,l),
(316,75,l),
(332,66,l)
);
}
);
width = 500;
}
);
unicode = 9676;
},
{
glyphname = lozenge;
layers = (
{
layerId = m01;
shapes = (
{
closed = 1;
nodes = (
(100,339,l),
(250,109,l),
(398,340,l),
(248,571,l)
);
},
{
closed = 1;
nodes = (
(343,339,l),
(250,184,l),
(155,340,l),
(248,496,l)
);
}
);
userData = {
com.schriftgestaltung.Glyphs.lastChange = "2021-06-17 15:23:32 +0000";
};
width = 500;
}
);
unicode = 9674;
},
